G04 ================== begin FILE IDENTIFICATION RECORD ==================*
G04 Layout Name:  D:/projects/vllogic_hardware/vllink_lite/pcb.brd*
G04 Film Name:    BOTTOM*
G04 File Format:  Gerber RS274X*
G04 File Origin:  Cadence Allegro 17.2-P019*
G04 Origin Date:  Fri Nov 02 12:37:59 2018*
G04 *
G04 Layer:  ETCH/BOTTOM*
G04 Layer:  PIN/BOTTOM*
G04 Layer:  VIA CLASS/BOTTOM*
G04 *
G04 Offset:    (0.000 0.000)*
G04 Mirror:    No*
G04 Mode:      Positive*
G04 Rotation:  0*
G04 FullContactRelief:  No*
G04 UndefLineWidth:     6.000*
G04 ================== end FILE IDENTIFICATION RECORD ====================*
%FSLAX55Y55*MOIN*%
%IR0*IPPOS*OFA0.00000B0.00000*MIA0B0*SFA1.00000B1.00000*%
%ADD15R,.11811X.059055*%
%ADD13C,.02*%
%ADD12C,.03*%
%ADD14C,.070866*%
%ADD11C,.062992*%
%ADD10R,.062992X.062992*%
%ADD16C,.006*%
%ADD17C,.008*%
%ADD18C,.01*%
%ADD21C,.052004*%
%ADD19C,.080004*%
%ADD22C,.09287*%
%ADD20C,.084996*%
G75*
%LPD*%
G75*
G36*
G01X10000Y-44000D02*
X9616Y-43615D01*
G02X10181Y-42250I566J566D01*
G01X13150D01*
G03X14250Y-41150I0J1100D01*
G01Y-34850D01*
G03X13150Y-33750I-1100J0D01*
G01X6850D01*
G03X5750Y-34850I0J-1100D01*
G01Y-37819D01*
G02X4384Y-38385I-800J0D01*
G01X2000Y-36000D01*
Y36000D01*
X10000Y44000D01*
X119750D01*
G02X120484Y42880I0J-800D01*
G03X122500Y39800I2016J-880D01*
G01X126089D01*
X139563Y26326D01*
X129800Y16563D01*
Y8661D01*
G02X129384Y8262I-400J0D01*
G03X129300Y8263I-84J-2199D01*
G02X128900Y8663I0J400D01*
G01Y10321D01*
X124004Y15217D01*
X123999Y15375D01*
G03X121725Y13101I-2199J-75D01*
G01X121883Y13096D01*
X125900Y9079D01*
Y-8679D01*
X120765Y-13814D01*
X120448Y-13497D01*
X120423Y-13456D01*
G03X120144Y-13090I-1879J-1144D01*
G01Y-9215D01*
G03X116707Y-7226I-1244J1815D01*
G02X115747Y-7946I-797J63D01*
G03X113101Y-10025I-447J-2154D01*
G01X113096Y-10183D01*
X111279Y-12000D01*
X103109D01*
G03Y-15000I-1609J-1500D01*
G01X112521D01*
X115217Y-12304D01*
X115375Y-12299D01*
G03X116352Y-12032I-75J2199D01*
G01X116441Y-11984D01*
X116943D01*
Y-13090D01*
G03X117103Y-16263I1600J-1510D01*
G02X117145Y-17434I-524J-605D01*
G01X103779Y-30800D01*
X102779D01*
X101483Y-32096D01*
X101325Y-32101D01*
G03X102806Y-35992I75J-2199D01*
G03X106349Y-34325I1344J1742D01*
G01X106354Y-34167D01*
X123101Y-17421D01*
G02X124422Y-17723I566J-566D01*
G03X125000Y-18609I2078J723D01*
G01Y-32291D01*
G03X128000I1500J-1609D01*
G01Y-19878D01*
G02X129134Y-19150I800J0D01*
G03X132249Y-17225I916J2000D01*
G01X132254Y-17067D01*
X134950Y-14371D01*
Y-8077D01*
G02X135977Y-7310I800J0D01*
G03X138065Y-6842I623J2110D01*
G03X137856Y-3393I1835J1842D01*
G03X135977Y-3090I-1256J-1807D01*
G02X134950Y-2323I-227J767D01*
G01Y123D01*
G02X135977Y890I800J0D01*
G03X136525Y801I623J2110D01*
G01X136683Y796D01*
X136979Y500D01*
X137776D01*
G03X138751Y4333I2124J1500D01*
G02X138271Y4431I-177J359D01*
G03X135977Y5110I-1671J-1431D01*
G02X134950Y5877I-227J767D01*
G01Y12529D01*
X137217Y14796D01*
X137375Y14801D01*
G03X138253Y18983I-75J2199D01*
G02X138033Y20270I346J721D01*
G01X141826Y24063D01*
X148089Y17800D01*
X152994D01*
Y17047D01*
G03X154094Y15947I1100J0D01*
G01X165906D01*
G03X167006Y17047I0J1100D01*
G01Y22953D01*
G03X165906Y24053I-1100J0D01*
G01X154094D01*
G03X152994Y22953I0J-1100D01*
G01Y22200D01*
X149911D01*
X141727Y30385D01*
G02X142293Y31750I566J566D01*
G01X147150D01*
G03X148250Y32850I0J1100D01*
G01Y39150D01*
G03X147150Y40250I-1100J0D01*
G01X140850D01*
G03X139750Y39150I0J-1100D01*
G01Y34293D01*
G02X138384Y33727I-800J0D01*
G01X129477Y42634D01*
G02X130043Y44000I566J566D01*
G01X166000D01*
X168000Y42000D01*
Y39906D01*
G02X166693Y39288I-800J0D01*
G03Y32712I-2693J-3288D01*
G02X168000Y32094I507J-619D01*
G01Y-23759D01*
G02X167396Y-24103I-400J0D01*
G03X167091Y-23937I-2372J-3992D01*
G02X166906Y-23412I178J358D01*
G03X167006Y-22953I-1000J459D01*
G01Y-17047D01*
G03X165906Y-15947I-1100J0D01*
G01X155116D01*
X154588Y-15419D01*
G02X155153Y-14053I566J566D01*
G01X165906D01*
G03X167006Y-12953I0J1100D01*
G01Y-7047D01*
G03X165906Y-5947I-1100J0D01*
G01X155069D01*
X154540Y-5419D01*
G02X155106Y-4053I566J566D01*
G01X165906D01*
G03X167006Y-2953I0J1100D01*
G01Y2953D01*
G03X165906Y4053I-1100J0D01*
G01X155116D01*
X154588Y4581D01*
G02X155153Y5947I566J566D01*
G01X165906D01*
G03X167006Y7047I0J1100D01*
G01Y12953D01*
G03X165906Y14053I-1100J0D01*
G01X154094D01*
G03X152994Y12953I0J-1100D01*
G01Y8106D01*
G02X151629Y7540I-800J0D01*
G01X150669Y8500D01*
X148809D01*
G03X148702Y5392I-1609J-1500D01*
G01X148817Y5500D01*
X149426D01*
X152994Y1931D01*
Y-954D01*
G02X151609Y-1500I-800J0D01*
G03X150367Y-831I-1609J-1501D01*
G02X149700Y-31I133J789D01*
G03X146000Y-1609I-2200J31D01*
G01Y-11074D01*
X152994Y-18069D01*
Y-22953D01*
G03X154094Y-24053I1100J0D01*
G01X160650D01*
G02X161293Y-25329I0J-800D01*
G03X166880Y-32351I3730J-2765D01*
G02X168000Y-33084I320J-733D01*
G01Y-34916D01*
G02X166880Y-35649I-800J0D01*
G03X161327Y-42716I-1857J-4256D01*
G02X160690Y-44000I-637J-484D01*
G01X147310D01*
G02X146673Y-42716I0J800D01*
G03X139280I-3697J2810D01*
G02X138643Y-44000I-637J-484D01*
G01X10000D01*
G37*
%LPC*%
G75*
G36*
G01X115500Y31750D02*
Y28124D01*
G02X112500I-1500J-2124D01*
G01Y31750D01*
X110850D01*
G02X109750Y32850I0J1100D01*
G01Y39150D01*
G02X110850Y40250I1100J0D01*
G01X117150D01*
G02X118250Y39150I0J-1100D01*
G01Y32850D01*
G02X117150Y31750I-1100J0D01*
G01X115500D01*
G37*
G36*
G01X50011Y13800D02*
X48386D01*
G02X48262Y18274I-1386J2200D01*
G01X48444Y18456D01*
G02X51556Y15344I1556J-1556D01*
G01X50011Y13800D01*
G37*
G36*
G01X41500Y-30124D02*
Y-34024D01*
G02X38500I-1500J-3976D01*
G01Y-30124D01*
G02X41500I1500J2124D01*
G37*
G36*
G01X31500D02*
Y-34024D01*
G02X28500I-1500J-3976D01*
G01Y-30124D01*
G02X31500I1500J2124D01*
G37*
G36*
G01X21500D02*
Y-34024D01*
G02X18500I-1500J-3976D01*
G01Y-30124D01*
G02X21500I1500J2124D01*
G37*
G36*
G01X98504Y-8417D02*
X98499Y-8575D01*
G02X96225Y-6301I-2199J75D01*
G01X96383Y-6296D01*
X97890Y-4789D01*
Y-3832D01*
X97251D01*
X97137Y-4043D01*
G02X93700Y-1391I-1937J1043D01*
G01Y291D01*
G02X96586Y3609I1500J1609D01*
G03X97890Y4230I504J621D01*
G01Y5491D01*
G02X97194Y7246I1500J1609D01*
G03X96396Y8100I-798J53D01*
G01X83009D01*
G02X79216Y9334I-1609J1500D01*
G02X81209Y13000I384J2166D01*
G01X82808D01*
X83509Y12300D01*
X117221D01*
X122600Y6921D01*
Y3009D01*
G02X118976Y826I-1500J-1609D01*
G02X117570Y4634I94J2198D01*
G01Y6009D01*
X115479Y8100D01*
X102383D01*
G03X101585Y7246I0J-800D01*
G02X100890Y5491I-2195J-146D01*
G01Y-6032D01*
X98504Y-8417D01*
G37*
G54D21*
X50000Y-28000D03*
G54D19*
X17195Y-8662D03*
Y8662D03*
G54D22*
X142976Y-28094D03*
G54D20*
X50000Y-38000D03*
X104000Y36000D03*
X154000D03*
%LPD*%
G75*
G54D10*
X10000Y-38000D03*
X114000Y36000D03*
X144000D03*
G54D11*
X20000Y-38000D03*
X30000D03*
X50000D03*
X40000D03*
X104000Y36000D03*
X154000D03*
X164000D03*
G54D12*
X20000Y-28000D03*
X30000D03*
X40000D03*
X50000D03*
X47000Y16000D03*
X114000Y26000D03*
X139900Y2000D03*
Y-5000D03*
G54D13*
G01X50000Y-28000D02*
Y-38000D01*
G01X47000Y16000D02*
X49100D01*
X50000Y16900D01*
G01X127000Y42000D02*
X142249Y26751D01*
G01X127000Y42000D02*
X122500D01*
G01X142249Y26751D02*
X149000Y20000D01*
X160000D01*
X17195Y-8662D03*
Y8662D03*
X36000Y22000D03*
X39000Y-10000D03*
X42000Y-12850D03*
X50000Y16900D03*
X38500Y39000D03*
X43000D03*
X82900Y-7300D03*
X79600Y11500D03*
X81400Y9600D03*
X101400Y-34300D03*
X104150Y-34250D03*
X96300Y-8500D03*
X101500Y-13500D03*
X105000Y-3000D03*
Y2000D03*
X95200Y1900D03*
Y-3000D03*
X99390Y7100D03*
X100000Y24000D03*
X118543Y-14600D03*
X115300Y-10100D03*
X110000Y-3000D03*
Y2000D03*
X118900Y-7400D03*
X120850Y-23150D03*
X126500Y-33900D03*
Y-17000D03*
X130050Y-17150D03*
X121100Y1400D03*
X119070Y3024D03*
X121800Y15300D03*
X129300Y6063D03*
X127000Y42000D03*
X122500D03*
X136600Y-5200D03*
Y3000D03*
X137300Y17000D03*
X150000Y-3000D03*
X147500Y0D03*
X147200Y7000D03*
G54D14*
X142976Y-39906D03*
Y-28094D03*
X165024Y-39906D03*
Y-28094D03*
G54D15*
X160000Y-20000D03*
Y-10000D03*
Y0D03*
Y10000D03*
Y20000D03*
G54D16*
G01X20000Y-28000D02*
Y-38000D01*
G01X30000Y-28000D02*
Y-38000D01*
G01X40000Y-28000D02*
Y-38000D01*
G01X79600Y11500D02*
X82187D01*
X82887Y10800D01*
X116600D01*
X121100Y6300D01*
Y1400D01*
G01X81400Y9600D02*
X116100D01*
X119070Y6630D01*
Y3024D01*
G01X121800Y15300D02*
X127400Y9700D01*
Y-9300D01*
X104400Y-32300D01*
X103400D01*
X101400Y-34300D01*
G01X104150Y-34250D02*
X129300Y-9100D01*
Y6063D01*
G01X115300Y-10100D02*
X111900Y-13500D01*
X101500D01*
G01X95200Y1900D02*
Y-3000D01*
G01X99390Y7100D02*
Y-5410D01*
X96300Y-8500D01*
G01X114000Y26000D02*
Y36000D01*
G01X126500Y-17000D02*
Y-33900D01*
G01X130050Y-17150D02*
X133450Y-13750D01*
Y13150D01*
X137300Y17000D01*
G01X139900Y-5000D02*
X136800D01*
X136600Y-5200D01*
G01X139900Y2000D02*
X137600D01*
X136600Y3000D01*
G01X160000Y-10000D02*
X157000D01*
X150000Y-3000D01*
G01X147500Y0D02*
Y-10453D01*
X157047Y-20000D01*
X160000D01*
G01X147200Y7000D02*
X150047D01*
X157047Y0D01*
X160000D01*
G54D17*
G01X126500Y-17000D02*
X131400Y-12100D01*
Y15900D01*
X142249Y26749D01*
Y26751D01*
G01X118543Y-14600D02*
Y-7757D01*
X118900Y-7400D01*
G54D18*
G01X50000Y-42650D02*
Y-38000D01*
G01X45350D02*
X50000D01*
G01D02*
X54650D01*
G01X50000Y-28000D02*
Y-25000D01*
G01X47000Y-28000D02*
X50000D01*
G01D02*
X53000D01*
G01X152594Y10000D02*
X160000D01*
G01X154000Y31350D02*
Y36000D01*
G01D02*
Y40650D01*
G01X149350Y36000D02*
X154000D01*
G01D02*
X158650D01*
G01X160000Y5547D02*
Y10000D01*
G01D02*
Y14453D01*
G01Y10000D02*
X167406D01*
M02*
