G04 ================== begin FILE IDENTIFICATION RECORD ==================*
G04 Layout Name:  D:/projects/vllogic_hardware/vllink_lite/pcb.brd*
G04 Film Name:    DRILL_DRAWING*
G04 File Format:  Gerber RS274X*
G04 File Origin:  Cadence Allegro 17.2-P019*
G04 Origin Date:  Fri Nov 02 12:37:59 2018*
G04 *
G04 Layer:  MANUFACTURING/NCLEGEND-1-2*
G04 Layer:  BOARD GEOMETRY/OUTLINE*
G04 *
G04 Offset:    (0.000 0.000)*
G04 Mirror:    No*
G04 Mode:      Positive*
G04 Rotation:  0*
G04 FullContactRelief:  No*
G04 UndefLineWidth:     1.000*
G04 ================== end FILE IDENTIFICATION RECORD ====================*
%FSLAX55Y55*MOIN*%
%IR0*IPPOS*OFA0.00000B0.00000*MIA0B0*SFA1.00000B1.00000*%
%AMMACRO11*
1,1,.001,.026,0.0*
20,1,.001,.026,0.0,.025605,-.004515,0.0*
1,1,.001,.025605,-.004515*
20,1,.001,.025605,-.004515,.024432,-.008893,0.0*
1,1,.001,.024432,-.008893*
20,1,.001,.024432,-.008893,.022517,-.013,0.0*
1,1,.001,.022517,-.013*
20,1,.001,.022517,-.013,.019917,-.016712,0.0*
1,1,.001,.019917,-.016712*
20,1,.001,.019917,-.016712,.016712,-.019917,0.0*
1,1,.001,.016712,-.019917*
20,1,.001,.016712,-.019917,.013,-.022517,0.0*
1,1,.001,.013,-.022517*
20,1,.001,.013,-.022517,.008893,-.024432,0.0*
1,1,.001,.008893,-.024432*
20,1,.001,.008893,-.024432,.004515,-.025605,0.0*
1,1,.001,.004515,-.025605*
20,1,.001,.004515,-.025605,0.0,-.026,0.0*
1,1,.001,0.0,-.026*
20,1,.001,0.0,-.026,-.004515,-.025605,0.0*
1,1,.001,-.004515,-.025605*
20,1,.001,-.004515,-.025605,-.008893,-.024432,0.0*
1,1,.001,-.008893,-.024432*
20,1,.001,-.008893,-.024432,-.013,-.022517,0.0*
1,1,.001,-.013,-.022517*
20,1,.001,-.013,-.022517,-.016712,-.019917,0.0*
1,1,.001,-.016712,-.019917*
20,1,.001,-.016712,-.019917,-.019917,-.016712,0.0*
1,1,.001,-.019917,-.016712*
20,1,.001,-.019917,-.016712,-.022517,-.013,0.0*
1,1,.001,-.022517,-.013*
20,1,.001,-.022517,-.013,-.024432,-.008893,0.0*
1,1,.001,-.024432,-.008893*
20,1,.001,-.024432,-.008893,-.025605,-.004515,0.0*
1,1,.001,-.025605,-.004515*
20,1,.001,-.025605,-.004515,-.026,0.0,0.0*
1,1,.001,-.026,0.0*
20,1,.001,-.026,0.0,-.025605,.004515,0.0*
1,1,.001,-.025605,.004515*
20,1,.001,-.025605,.004515,-.024432,.008893,0.0*
1,1,.001,-.024432,.008893*
20,1,.001,-.024432,.008893,-.022517,.013,0.0*
1,1,.001,-.022517,.013*
20,1,.001,-.022517,.013,-.019917,.016712,0.0*
1,1,.001,-.019917,.016712*
20,1,.001,-.019917,.016712,-.016712,.019917,0.0*
1,1,.001,-.016712,.019917*
20,1,.001,-.016712,.019917,-.013,.022517,0.0*
1,1,.001,-.013,.022517*
20,1,.001,-.013,.022517,-.008893,.024432,0.0*
1,1,.001,-.008893,.024432*
20,1,.001,-.008893,.024432,-.004515,.025605,0.0*
1,1,.001,-.004515,.025605*
20,1,.001,-.004515,.025605,0.0,.026,0.0*
1,1,.001,0.0,.026*
20,1,.001,0.0,.026,.004515,.025605,0.0*
1,1,.001,.004515,.025605*
20,1,.001,.004515,.025605,.008893,.024432,0.0*
1,1,.001,.008893,.024432*
20,1,.001,.008893,.024432,.013,.022517,0.0*
1,1,.001,.013,.022517*
20,1,.001,.013,.022517,.016712,.019917,0.0*
1,1,.001,.016712,.019917*
20,1,.001,.016712,.019917,.019917,.016712,0.0*
1,1,.001,.019917,.016712*
20,1,.001,.019917,.016712,.022517,.013,0.0*
1,1,.001,.022517,.013*
20,1,.001,.022517,.013,.024432,.008893,0.0*
1,1,.001,.024432,.008893*
20,1,.001,.024432,.008893,.025605,.004515,0.0*
1,1,.001,.025605,.004515*
20,1,.001,.025605,.004515,.026,0.0,0.0*
1,1,.001,.026,0.0*
%
%ADD11MACRO11*%
%AMMACRO10*
1,1,.001,.004142,-.01*
20,1,.001,.004142,-.01,-.004142,-.01,0.0*
1,1,.001,-.004142,-.01*
20,1,.001,-.004142,-.01,-.01,-.004142,0.0*
1,1,.001,-.01,-.004142*
20,1,.001,-.01,-.004142,-.01,.004142,0.0*
1,1,.001,-.01,.004142*
20,1,.001,-.01,.004142,-.004142,.01,0.0*
1,1,.001,-.004142,.01*
20,1,.001,-.004142,.01,.004142,.01,0.0*
1,1,.001,.004142,.01*
20,1,.001,.004142,.01,.01,.004142,0.0*
1,1,.001,.01,.004142*
20,1,.001,.01,.004142,.01,-.004142,0.0*
1,1,.001,.01,-.004142*
20,1,.001,.01,-.004142,.004142,-.01,0.0*
1,1,.001,.004142,-.01*
1,1,.001,.003667,.004167*
20,1,.001,.003667,.004167,.002667,.004667,0.0*
1,1,.001,.002667,.004667*
20,1,.001,.002667,.004667,.0015,.005,0.0*
1,1,.001,.0015,.005*
20,1,.001,.0015,.005,.000167,.005,0.0*
1,1,.001,.000167,.005*
20,1,.001,.000167,.005,-.001334,.0045,0.0*
1,1,.001,-.001334,.0045*
20,1,.001,-.001334,.0045,-.0025,.003667,0.0*
1,1,.001,-.0025,.003667*
20,1,.001,-.0025,.003667,-.003333,.002667,0.0*
1,1,.001,-.003333,.002667*
20,1,.001,-.003333,.002667,-.004,.001,0.0*
1,1,.001,-.004,.001*
20,1,.001,-.004,.001,-.004167,-.0005,0.0*
1,1,.001,-.004167,-.0005*
20,1,.001,-.004167,-.0005,-.003833,-.002,0.0*
1,1,.001,-.003833,-.002*
20,1,.001,-.003833,-.002,-.003333,-.003,0.0*
1,1,.001,-.003333,-.003*
20,1,.001,-.003333,-.003,-.002333,-.004,0.0*
1,1,.001,-.002333,-.004*
20,1,.001,-.002333,-.004,-.001167,-.004667,0.0*
1,1,.001,-.001167,-.004667*
20,1,.001,-.001167,-.004667,0.0,-.005,0.0*
1,1,.001,0.0,-.005*
20,1,.001,0.0,-.005,.001167,-.005,0.0*
1,1,.001,.001167,-.005*
20,1,.001,.001167,-.005,.002333,-.004667,0.0*
1,1,.001,.002333,-.004667*
20,1,.001,.002333,-.004667,.003333,-.004167,0.0*
1,1,.001,.003333,-.004167*
20,1,.001,.003333,-.004167,.004167,-.0035,0.0*
1,1,.001,.004167,-.0035*
%
%ADD10MACRO10*%
%ADD12C,.005*%
%ADD13C,.001*%
G75*
%LPD*%
G75*
G54D10*
X10000Y-38000D03*
X20000D03*
X30000D03*
X36000Y22000D03*
X50000Y-38000D03*
X40000D03*
X39000Y-10000D03*
X42000Y-12850D03*
X50000Y16900D03*
X38500Y39000D03*
X43000D03*
X82900Y-7300D03*
X79600Y11500D03*
X81400Y9600D03*
X101400Y-34300D03*
X104150Y-34250D03*
X96300Y-8500D03*
X101500Y-13500D03*
X105000Y-3000D03*
Y2000D03*
X95200Y1900D03*
Y-3000D03*
X99390Y7100D03*
X100000Y24000D03*
X104000Y36000D03*
X118543Y-14600D03*
X115300Y-10100D03*
X110000Y-3000D03*
Y2000D03*
X118900Y-7400D03*
X114000Y36000D03*
X120850Y-23150D03*
X126500Y-33900D03*
Y-17000D03*
X130050Y-17150D03*
X121100Y1400D03*
X119070Y3024D03*
X121800Y15300D03*
X129300Y6063D03*
X127000Y42000D03*
X122500D03*
X142976Y-39906D03*
Y-28094D03*
X136600Y-5200D03*
Y3000D03*
X137300Y17000D03*
X144000Y36000D03*
X150000Y-3000D03*
X147500Y0D03*
X147200Y7000D03*
X154000Y36000D03*
X165024Y-39906D03*
Y-28094D03*
X164000Y36000D03*
X241950Y29500D03*
Y54500D03*
Y79500D03*
G54D11*
X17195Y-8662D03*
Y8662D03*
X241950Y4500D03*
G54D12*
G01X178500Y-35500D02*
X170000D01*
Y35500D01*
X179000D01*
Y41000D01*
G03X174000Y46000I-5000J0D01*
G01X10000D01*
G03X0Y36000I0J-10000D01*
G01Y-36000D01*
G03X10000Y-46000I10000J0D01*
G01X173500D01*
G03X178500Y-41000I0J5000D01*
G01Y-35500D01*
G54D13*
G01X197000Y-8000D02*
Y167000D01*
X693000D01*
Y-8000D01*
X197000D01*
G01Y17000D02*
X693000D01*
G01X197000Y42000D02*
X693000D01*
G01X197000Y67000D02*
X693000D01*
G01X197000Y92000D02*
X693000D01*
G01X197000Y117000D02*
X693000D01*
G01X197000Y142000D02*
X693000D01*
G01X208005Y98250D02*
Y110750D01*
X213895D01*
G01X211725Y104708D02*
X208005D01*
G01X221490Y110750D02*
X225210D01*
G01X223350D02*
Y98250D01*
G01X221490D02*
X225210D01*
G01X236680Y104500D02*
X239780D01*
Y100750D01*
X238850Y99500D01*
X237765Y98667D01*
X236215Y98250D01*
X234665Y98667D01*
X233580Y99500D01*
X232650Y100750D01*
X232030Y102208D01*
X231720Y103875D01*
Y105333D01*
X232030Y106583D01*
X232650Y108042D01*
X233580Y109292D01*
X234510Y110125D01*
X235750Y110750D01*
X236835D01*
X238075Y110333D01*
X239005Y109500D01*
G01X244740Y110750D02*
Y101792D01*
X245360Y99916D01*
X246600Y98667D01*
X248150Y98250D01*
X249700Y98667D01*
X250940Y99916D01*
X251560Y101792D01*
Y110750D01*
G01X257450Y98250D02*
Y110750D01*
X261325D01*
X262565Y110125D01*
X263340Y109292D01*
X263650Y107625D01*
X263340Y105958D01*
X262410Y104917D01*
X261325Y104292D01*
X257450D01*
G01X261325D02*
X263650Y98250D01*
G01X276050D02*
X269850D01*
Y110750D01*
X276050D01*
G01X273570Y104708D02*
X269850D01*
G01X286900Y117000D02*
Y-8000D01*
G01X286590Y148250D02*
Y160750D01*
X289690D01*
X290930Y160125D01*
X291860Y159292D01*
X292635Y158042D01*
X293255Y156583D01*
X293410Y154500D01*
X293255Y152416D01*
X292635Y150958D01*
X291860Y149708D01*
X290930Y148875D01*
X289690Y148250D01*
X286590D01*
G01X299300D02*
Y160750D01*
X303175D01*
X304415Y160125D01*
X305190Y159292D01*
X305500Y157625D01*
X305190Y155958D01*
X304260Y154917D01*
X303175Y154292D01*
X299300D01*
G01X303175D02*
X305500Y148250D01*
G01X312940Y160750D02*
X316660D01*
G01X314800D02*
Y148250D01*
G01X312940D02*
X316660D01*
G01X324100Y160750D02*
Y148250D01*
X330300D01*
G01X336500Y160750D02*
Y148250D01*
X342700D01*
G01X367810Y159708D02*
X366880Y160333D01*
X365795Y160750D01*
X364555D01*
X363160Y160125D01*
X362075Y159083D01*
X361300Y157833D01*
X360680Y155750D01*
X360525Y153875D01*
X360835Y152000D01*
X361300Y150750D01*
X362230Y149500D01*
X363315Y148667D01*
X364400Y148250D01*
X365485D01*
X366570Y148667D01*
X367500Y149291D01*
X368275Y150125D01*
G01X373545Y148250D02*
Y160750D01*
G01X380055D02*
Y148250D01*
G01Y154500D02*
X373545D01*
G01X385325Y148250D02*
X389200Y160750D01*
X393075Y148250D01*
G01X391680Y152625D02*
X386720D01*
G01X398500Y148250D02*
Y160750D01*
X402375D01*
X403615Y160125D01*
X404390Y159292D01*
X404700Y157625D01*
X404390Y155958D01*
X403460Y154917D01*
X402375Y154292D01*
X398500D01*
G01X402375D02*
X404700Y148250D01*
G01X414000Y160750D02*
Y148250D01*
G01X410435Y160750D02*
X417565D01*
G01X426400Y147833D02*
X426090Y148042D01*
Y148458D01*
X426400Y148667D01*
X426710Y148458D01*
Y148042D01*
X426400Y147833D01*
G01Y153458D02*
X426090Y153667D01*
Y154083D01*
X426400Y154292D01*
X426710Y154083D01*
Y153667D01*
X426400Y153458D01*
G01X451200Y160750D02*
Y148250D01*
G01X447635Y160750D02*
X454765D01*
G01X463600Y148250D02*
X462360Y148458D01*
X461275Y149291D01*
X460345Y150542D01*
X459725Y152000D01*
X459415Y153667D01*
Y155333D01*
X459725Y157000D01*
X460345Y158458D01*
X461275Y159708D01*
X462360Y160542D01*
X463600Y160750D01*
X464840Y160542D01*
X465925Y159708D01*
X466855Y158458D01*
X467475Y157000D01*
X467785Y155333D01*
Y153667D01*
X467475Y152000D01*
X466855Y150542D01*
X465925Y149291D01*
X464840Y148458D01*
X463600Y148250D01*
G01X472900D02*
Y160750D01*
X476620D01*
X477860Y160125D01*
X478790Y158667D01*
X479100Y157000D01*
X478790Y155333D01*
X478015Y154083D01*
X476620Y153458D01*
X472900D01*
G01X500800Y160750D02*
Y148250D01*
G01X498630Y156583D02*
X502970D01*
G01X513200Y148250D02*
X512270Y148458D01*
X511340Y149291D01*
X510720Y150750D01*
X510410Y152416D01*
X510720Y154083D01*
X511340Y155542D01*
X512270Y156375D01*
X513200Y156583D01*
X514130Y156375D01*
X515060Y155542D01*
X515680Y154083D01*
X515835Y152416D01*
X515680Y150750D01*
X515060Y149291D01*
X514130Y148458D01*
X513200Y148250D01*
G01X539240Y154917D02*
X539860Y155542D01*
X540325Y156583D01*
X540635Y158042D01*
X540325Y159292D01*
X539705Y160125D01*
X538620Y160750D01*
X534435D01*
Y148250D01*
X539550D01*
X540635Y149083D01*
X541255Y150333D01*
X541565Y151792D01*
X541255Y153250D01*
X540325Y154500D01*
X539240Y154917D01*
X534435D01*
G01X550400Y148250D02*
X549160Y148458D01*
X548075Y149291D01*
X547145Y150542D01*
X546525Y152000D01*
X546215Y153667D01*
Y155333D01*
X546525Y157000D01*
X547145Y158458D01*
X548075Y159708D01*
X549160Y160542D01*
X550400Y160750D01*
X551640Y160542D01*
X552725Y159708D01*
X553655Y158458D01*
X554275Y157000D01*
X554585Y155333D01*
Y153667D01*
X554275Y152000D01*
X553655Y150542D01*
X552725Y149291D01*
X551640Y148458D01*
X550400Y148250D01*
G01X562800Y160750D02*
Y148250D01*
G01X559235Y160750D02*
X566365D01*
G01X575200D02*
Y148250D01*
G01X571635Y160750D02*
X578765D01*
G01X587600Y148250D02*
X586360Y148458D01*
X585275Y149291D01*
X584345Y150542D01*
X583725Y152000D01*
X583415Y153667D01*
Y155333D01*
X583725Y157000D01*
X584345Y158458D01*
X585275Y159708D01*
X586360Y160542D01*
X587600Y160750D01*
X588840Y160542D01*
X589925Y159708D01*
X590855Y158458D01*
X591475Y157000D01*
X591785Y155333D01*
Y153667D01*
X591475Y152000D01*
X590855Y150542D01*
X589925Y149291D01*
X588840Y148458D01*
X587600Y148250D01*
G01X595970D02*
Y160750D01*
X600000Y150333D01*
X604030Y160750D01*
Y148250D01*
G01X310305Y98250D02*
Y110750D01*
X316195D01*
G01X314025Y104708D02*
X310305D01*
G01X323790Y110750D02*
X327510D01*
G01X325650D02*
Y98250D01*
G01X323790D02*
X327510D01*
G01X334485D02*
Y110750D01*
X341615Y98250D01*
Y110750D01*
G01X348590D02*
X352310D01*
G01X350450D02*
Y98250D01*
G01X348590D02*
X352310D01*
G01X359595Y99916D02*
X360835Y98875D01*
X362230Y98250D01*
X363470D01*
X364710Y98875D01*
X365640Y99916D01*
X366105Y101375D01*
X365795Y102833D01*
X365020Y104083D01*
X363625Y104917D01*
X361765Y105333D01*
X360680Y106167D01*
X360215Y107625D01*
X360525Y109083D01*
X361300Y110125D01*
X362385Y110750D01*
X363470D01*
X364555Y110333D01*
X365485Y109292D01*
G01X371995Y98250D02*
Y110750D01*
G01X378505D02*
Y98250D01*
G01Y104500D02*
X371995D01*
G01X390750Y98250D02*
X384550D01*
Y110750D01*
X390750D01*
G01X388270Y104708D02*
X384550D01*
G01X396640Y98250D02*
Y110750D01*
X399740D01*
X400980Y110125D01*
X401910Y109292D01*
X402685Y108042D01*
X403305Y106583D01*
X403460Y104500D01*
X403305Y102416D01*
X402685Y100958D01*
X401910Y99708D01*
X400980Y98875D01*
X399740Y98250D01*
X396640D01*
G01X407800Y94084D02*
X417100D01*
G01X421595Y99916D02*
X422835Y98875D01*
X424230Y98250D01*
X425470D01*
X426710Y98875D01*
X427640Y99916D01*
X428105Y101375D01*
X427795Y102833D01*
X427020Y104083D01*
X425625Y104917D01*
X423765Y105333D01*
X422680Y106167D01*
X422215Y107625D01*
X422525Y109083D01*
X423300Y110125D01*
X424385Y110750D01*
X425470D01*
X426555Y110333D01*
X427485Y109292D01*
G01X435390Y110750D02*
X439110D01*
G01X437250D02*
Y98250D01*
G01X435390D02*
X439110D01*
G01X446705Y110750D02*
X452595D01*
X446705Y98250D01*
X452595D01*
G01X465150D02*
X458950D01*
Y110750D01*
X465150D01*
G01X462670Y104708D02*
X458950D01*
G01X317125Y123250D02*
X321000Y135750D01*
X324875Y123250D01*
G01X323480Y127625D02*
X318520D01*
G01X330300Y135750D02*
Y123250D01*
X336500D01*
G01X342700Y135750D02*
Y123250D01*
X348900D01*
G01X367190Y135750D02*
Y126792D01*
X367810Y124916D01*
X369050Y123667D01*
X370600Y123250D01*
X372150Y123667D01*
X373390Y124916D01*
X374010Y126792D01*
Y135750D01*
G01X379435Y123250D02*
Y135750D01*
X386565Y123250D01*
Y135750D01*
G01X393540D02*
X397260D01*
G01X395400D02*
Y123250D01*
G01X393540D02*
X397260D01*
G01X407800Y135750D02*
Y123250D01*
G01X404235Y135750D02*
X411365D01*
G01X416945Y124916D02*
X418185Y123875D01*
X419580Y123250D01*
X420820D01*
X422060Y123875D01*
X422990Y124916D01*
X423455Y126375D01*
X423145Y127833D01*
X422370Y129083D01*
X420975Y129917D01*
X419115Y130333D01*
X418030Y131166D01*
X417565Y132625D01*
X417875Y134083D01*
X418650Y135125D01*
X419735Y135750D01*
X420820D01*
X421905Y135333D01*
X422835Y134292D01*
G01X441125Y123250D02*
X445000Y135750D01*
X448875Y123250D01*
G01X447480Y127625D02*
X442520D01*
G01X454300Y123250D02*
Y135750D01*
X458175D01*
X459415Y135125D01*
X460190Y134292D01*
X460500Y132625D01*
X460190Y130958D01*
X459260Y129917D01*
X458175Y129292D01*
X454300D01*
G01X458175D02*
X460500Y123250D01*
G01X472900D02*
X466700D01*
Y135750D01*
X472900D01*
G01X470420Y129708D02*
X466700D01*
G01X492740Y135750D02*
X496460D01*
G01X494600D02*
Y123250D01*
G01X492740D02*
X496460D01*
G01X503435D02*
Y135750D01*
X510565Y123250D01*
Y135750D01*
G01X527770Y123250D02*
Y135750D01*
X531800Y125333D01*
X535830Y135750D01*
Y123250D01*
G01X542340Y135750D02*
X546060D01*
G01X544200D02*
Y123250D01*
G01X542340D02*
X546060D01*
G01X553500Y135750D02*
Y123250D01*
X559700D01*
G01X565745Y124916D02*
X566985Y123875D01*
X568380Y123250D01*
X569620D01*
X570860Y123875D01*
X571790Y124916D01*
X572255Y126375D01*
X571945Y127833D01*
X571170Y129083D01*
X569775Y129917D01*
X567915Y130333D01*
X566830Y131166D01*
X566365Y132625D01*
X566675Y134083D01*
X567450Y135125D01*
X568535Y135750D01*
X569620D01*
X570705Y135333D01*
X571635Y134292D01*
G01X358510Y23250D02*
Y35750D01*
X352775Y26792D01*
X360525D01*
G01X368740Y23250D02*
X369050Y25958D01*
X369515Y28250D01*
X370135Y30333D01*
X370910Y32625D01*
X372150Y35750D01*
X365950D01*
G01X381450Y22833D02*
X381140Y23042D01*
Y23458D01*
X381450Y23667D01*
X381760Y23458D01*
Y23042D01*
X381450Y22833D01*
G01X390905Y33667D02*
X391835Y34916D01*
X392920Y35542D01*
X394160Y35750D01*
X395710Y35333D01*
X396795Y34292D01*
X397105Y33042D01*
X396950Y31791D01*
X396330Y30750D01*
X393230Y28667D01*
X391835Y27208D01*
X390905Y25125D01*
X390595Y23250D01*
X397105D01*
G01X408110D02*
Y35750D01*
X402375Y26792D01*
X410125D01*
G01X420510Y23250D02*
Y35750D01*
X414775Y26792D01*
X422525D01*
G01X359440Y50750D02*
X360370Y49291D01*
X361610Y48458D01*
X363005Y48250D01*
X364245Y48458D01*
X365485Y49500D01*
X366260Y50750D01*
X366415Y52000D01*
X366105Y53458D01*
X365020Y54500D01*
X363935Y54917D01*
X362540D01*
G01X363935D02*
X364865Y55542D01*
X365640Y56583D01*
X365950Y57833D01*
X365640Y59083D01*
X364865Y60125D01*
X363470Y60750D01*
X362075Y60542D01*
X360680Y59708D01*
G01X372615Y49708D02*
X373700Y48667D01*
X374940Y48250D01*
X376180Y48667D01*
X377265Y49916D01*
X378040Y51792D01*
X378350Y53667D01*
Y55958D01*
X378040Y57833D01*
X377265Y59500D01*
X376335Y60333D01*
X375250Y60750D01*
X374010Y60333D01*
X373080Y59500D01*
X372460Y58250D01*
X372150Y56583D01*
X372460Y55125D01*
X373235Y53667D01*
X374165Y52833D01*
X375250Y52625D01*
X376490Y53041D01*
X377420Y54083D01*
X378350Y55958D01*
G01X387650Y47833D02*
X387340Y48042D01*
Y48458D01*
X387650Y48667D01*
X387960Y48458D01*
Y48042D01*
X387650Y47833D01*
G01X396640Y50750D02*
X397570Y49291D01*
X398810Y48458D01*
X400205Y48250D01*
X401445Y48458D01*
X402685Y49500D01*
X403460Y50750D01*
X403615Y52000D01*
X403305Y53458D01*
X402220Y54500D01*
X401135Y54917D01*
X399740D01*
G01X401135D02*
X402065Y55542D01*
X402840Y56583D01*
X403150Y57833D01*
X402840Y59083D01*
X402065Y60125D01*
X400670Y60750D01*
X399275Y60542D01*
X397880Y59708D01*
G01X412140Y48250D02*
X412450Y50958D01*
X412915Y53250D01*
X413535Y55333D01*
X414310Y57625D01*
X415550Y60750D01*
X409350D01*
G01X365640Y125D02*
X366570Y-917D01*
X367655Y-1542D01*
X369050Y-1750D01*
X370445Y-1333D01*
X371530Y-500D01*
X372305Y958D01*
X372460Y2625D01*
X372150Y4292D01*
X371375Y5333D01*
X370290Y6166D01*
X369205Y6375D01*
X368120Y6166D01*
X366725Y5333D01*
X367190Y10750D01*
X371375D01*
G01X378505Y8667D02*
X379435Y9916D01*
X380520Y10542D01*
X381760Y10750D01*
X383310Y10333D01*
X384395Y9292D01*
X384705Y8042D01*
X384550Y6791D01*
X383930Y5750D01*
X380830Y3667D01*
X379435Y2208D01*
X378505Y125D01*
X378195Y-1750D01*
X384705D01*
G01X393850Y-2167D02*
X393540Y-1958D01*
Y-1542D01*
X393850Y-1333D01*
X394160Y-1542D01*
Y-1958D01*
X393850Y-2167D01*
G01X406250Y10750D02*
X405010Y10333D01*
X404080Y9292D01*
X403460Y8042D01*
X402995Y6375D01*
X402840Y4500D01*
X402995Y2625D01*
X403460Y958D01*
X404080Y-292D01*
X405010Y-1333D01*
X406250Y-1750D01*
X407490Y-1333D01*
X408420Y-292D01*
X409040Y958D01*
X409505Y2625D01*
X409660Y4500D01*
X409505Y6375D01*
X409040Y8042D01*
X408420Y9292D01*
X407490Y10333D01*
X406250Y10750D01*
G01X369050Y73250D02*
Y85750D01*
X367190Y83250D01*
G01Y73250D02*
X370910D01*
G01X378505Y83667D02*
X379435Y84916D01*
X380520Y85542D01*
X381760Y85750D01*
X383310Y85333D01*
X384395Y84292D01*
X384705Y83042D01*
X384550Y81791D01*
X383930Y80750D01*
X380830Y78667D01*
X379435Y77208D01*
X378505Y75125D01*
X378195Y73250D01*
X384705D01*
G01X393850Y72833D02*
X393540Y73042D01*
Y73458D01*
X393850Y73667D01*
X394160Y73458D01*
Y73042D01*
X393850Y72833D01*
G01X406250Y85750D02*
X405010Y85333D01*
X404080Y84292D01*
X403460Y83042D01*
X402995Y81375D01*
X402840Y79500D01*
X402995Y77625D01*
X403460Y75958D01*
X404080Y74708D01*
X405010Y73667D01*
X406250Y73250D01*
X407490Y73667D01*
X408420Y74708D01*
X409040Y75958D01*
X409505Y77625D01*
X409660Y79500D01*
X409505Y81375D01*
X409040Y83042D01*
X408420Y84292D01*
X407490Y85333D01*
X406250Y85750D01*
G01X461950Y-14250D02*
Y-26750D01*
G01X458385Y-14250D02*
X465515D01*
G01X474350Y-26750D02*
X473110Y-26542D01*
X472025Y-25709D01*
X471095Y-24458D01*
X470475Y-23000D01*
X470165Y-21333D01*
Y-19667D01*
X470475Y-18000D01*
X471095Y-16542D01*
X472025Y-15292D01*
X473110Y-14458D01*
X474350Y-14250D01*
X475590Y-14458D01*
X476675Y-15292D01*
X477605Y-16542D01*
X478225Y-18000D01*
X478535Y-19667D01*
Y-21333D01*
X478225Y-23000D01*
X477605Y-24458D01*
X476675Y-25709D01*
X475590Y-26542D01*
X474350Y-26750D01*
G01X486750Y-14250D02*
Y-26750D01*
G01X483185Y-14250D02*
X490315D01*
G01X495275Y-26750D02*
X499150Y-14250D01*
X503025Y-26750D01*
G01X501630Y-22375D02*
X496670D01*
G01X508450Y-14250D02*
Y-26750D01*
X514650D01*
G01X533095D02*
Y-14250D01*
G01X539605D02*
Y-26750D01*
G01Y-20500D02*
X533095D01*
G01X548750Y-26750D02*
X547510Y-26542D01*
X546425Y-25709D01*
X545495Y-24458D01*
X544875Y-23000D01*
X544565Y-21333D01*
Y-19667D01*
X544875Y-18000D01*
X545495Y-16542D01*
X546425Y-15292D01*
X547510Y-14458D01*
X548750Y-14250D01*
X549990Y-14458D01*
X551075Y-15292D01*
X552005Y-16542D01*
X552625Y-18000D01*
X552935Y-19667D01*
Y-21333D01*
X552625Y-23000D01*
X552005Y-24458D01*
X551075Y-25709D01*
X549990Y-26542D01*
X548750Y-26750D01*
G01X558050Y-14250D02*
Y-26750D01*
X564250D01*
G01X576650D02*
X570450D01*
Y-14250D01*
X576650D01*
G01X574170Y-20292D02*
X570450D01*
G01X582695Y-25084D02*
X583935Y-26125D01*
X585330Y-26750D01*
X586570D01*
X587810Y-26125D01*
X588740Y-25084D01*
X589205Y-23625D01*
X588895Y-22167D01*
X588120Y-20917D01*
X586725Y-20083D01*
X584865Y-19667D01*
X583780Y-18834D01*
X583315Y-17375D01*
X583625Y-15917D01*
X584400Y-14875D01*
X585485Y-14250D01*
X586570D01*
X587655Y-14667D01*
X588585Y-15708D01*
G01X598350Y-27167D02*
X598040Y-26958D01*
Y-26542D01*
X598350Y-26333D01*
X598660Y-26542D01*
Y-26958D01*
X598350Y-27167D01*
G01Y-21542D02*
X598040Y-21333D01*
Y-20917D01*
X598350Y-20709D01*
X598660Y-20917D01*
Y-21333D01*
X598350Y-21542D01*
G01X492585Y-1750D02*
Y10750D01*
X499715Y-1750D01*
Y10750D01*
G01X508550Y-1750D02*
X507310Y-1542D01*
X506225Y-709D01*
X505295Y542D01*
X504675Y2000D01*
X504365Y3667D01*
Y5333D01*
X504675Y7000D01*
X505295Y8458D01*
X506225Y9708D01*
X507310Y10542D01*
X508550Y10750D01*
X509790Y10542D01*
X510875Y9708D01*
X511805Y8458D01*
X512425Y7000D01*
X512735Y5333D01*
Y3667D01*
X512425Y2000D01*
X511805Y542D01*
X510875Y-709D01*
X509790Y-1542D01*
X508550Y-1750D01*
G01X517385D02*
Y10750D01*
X524515Y-1750D01*
Y10750D01*
G01X531335Y2416D02*
X535365D01*
G01X542650Y-1750D02*
Y10750D01*
X546370D01*
X547610Y10125D01*
X548540Y8667D01*
X548850Y7000D01*
X548540Y5333D01*
X547765Y4083D01*
X546370Y3458D01*
X542650D01*
G01X555050Y10750D02*
Y-1750D01*
X561250D01*
G01X566675D02*
X570550Y10750D01*
X574425Y-1750D01*
G01X573030Y2625D02*
X568070D01*
G01X582950Y10750D02*
Y-1750D01*
G01X579385Y10750D02*
X586515D01*
G01X598450Y-1750D02*
X592250D01*
Y10750D01*
X598450D01*
G01X595970Y4708D02*
X592250D01*
G01X604340Y-1750D02*
Y10750D01*
X607440D01*
X608680Y10125D01*
X609610Y9292D01*
X610385Y8042D01*
X611005Y6583D01*
X611160Y4500D01*
X611005Y2416D01*
X610385Y958D01*
X609610Y-292D01*
X608680Y-1125D01*
X607440Y-1750D01*
X604340D01*
G01X488400Y117000D02*
Y-8000D01*
G01X517850Y23250D02*
Y35750D01*
X521570D01*
X522810Y35125D01*
X523740Y33667D01*
X524050Y32000D01*
X523740Y30333D01*
X522965Y29083D01*
X521570Y28458D01*
X517850D01*
G01X530250Y35750D02*
Y23250D01*
X536450D01*
G01X541875D02*
X545750Y35750D01*
X549625Y23250D01*
G01X548230Y27625D02*
X543270D01*
G01X558150Y35750D02*
Y23250D01*
G01X554585Y35750D02*
X561715D01*
G01X573650Y23250D02*
X567450D01*
Y35750D01*
X573650D01*
G01X571170Y29708D02*
X567450D01*
G01X579540Y23250D02*
Y35750D01*
X582640D01*
X583880Y35125D01*
X584810Y34292D01*
X585585Y33042D01*
X586205Y31583D01*
X586360Y29500D01*
X586205Y27417D01*
X585585Y25958D01*
X584810Y24708D01*
X583880Y23875D01*
X582640Y23250D01*
X579540D01*
G01X517850Y48250D02*
Y60750D01*
X521570D01*
X522810Y60125D01*
X523740Y58667D01*
X524050Y57000D01*
X523740Y55333D01*
X522965Y54083D01*
X521570Y53458D01*
X517850D01*
G01X530250Y60750D02*
Y48250D01*
X536450D01*
G01X541875D02*
X545750Y60750D01*
X549625Y48250D01*
G01X548230Y52625D02*
X543270D01*
G01X558150Y60750D02*
Y48250D01*
G01X554585Y60750D02*
X561715D01*
G01X573650Y48250D02*
X567450D01*
Y60750D01*
X573650D01*
G01X571170Y54709D02*
X567450D01*
G01X579540Y48250D02*
Y60750D01*
X582640D01*
X583880Y60125D01*
X584810Y59292D01*
X585585Y58042D01*
X586205Y56583D01*
X586360Y54500D01*
X586205Y52416D01*
X585585Y50958D01*
X584810Y49708D01*
X583880Y48875D01*
X582640Y48250D01*
X579540D01*
G01X517850Y73250D02*
Y85750D01*
X521570D01*
X522810Y85125D01*
X523740Y83667D01*
X524050Y82000D01*
X523740Y80333D01*
X522965Y79083D01*
X521570Y78458D01*
X517850D01*
G01X530250Y85750D02*
Y73250D01*
X536450D01*
G01X541875D02*
X545750Y85750D01*
X549625Y73250D01*
G01X548230Y77625D02*
X543270D01*
G01X558150Y85750D02*
Y73250D01*
G01X554585Y85750D02*
X561715D01*
G01X573650Y73250D02*
X567450D01*
Y85750D01*
X573650D01*
G01X571170Y79708D02*
X567450D01*
G01X579540Y73250D02*
Y85750D01*
X582640D01*
X583880Y85125D01*
X584810Y84292D01*
X585585Y83042D01*
X586205Y81583D01*
X586360Y79500D01*
X586205Y77416D01*
X585585Y75958D01*
X584810Y74708D01*
X583880Y73875D01*
X582640Y73250D01*
X579540D01*
G01X517850Y98250D02*
Y110750D01*
X521570D01*
X522810Y110125D01*
X523740Y108667D01*
X524050Y107000D01*
X523740Y105333D01*
X522965Y104083D01*
X521570Y103458D01*
X517850D01*
G01X530250Y110750D02*
Y98250D01*
X536450D01*
G01X541875D02*
X545750Y110750D01*
X549625Y98250D01*
G01X548230Y102625D02*
X543270D01*
G01X558150Y110750D02*
Y98250D01*
G01X554585Y110750D02*
X561715D01*
G01X573650Y98250D02*
X567450D01*
Y110750D01*
X573650D01*
G01X571170Y104708D02*
X567450D01*
G01X579540Y98250D02*
Y110750D01*
X582640D01*
X583880Y110125D01*
X584810Y109292D01*
X585585Y108042D01*
X586205Y106583D01*
X586360Y104500D01*
X586205Y102416D01*
X585585Y100958D01*
X584810Y99708D01*
X583880Y98875D01*
X582640Y98250D01*
X579540D01*
G01X615500Y117000D02*
Y-8000D01*
G01X644640Y-24875D02*
X645570Y-25917D01*
X646655Y-26542D01*
X648050Y-26750D01*
X649445Y-26333D01*
X650530Y-25500D01*
X651305Y-24042D01*
X651460Y-22375D01*
X651150Y-20709D01*
X650375Y-19667D01*
X649290Y-18834D01*
X648205Y-18625D01*
X647120Y-18834D01*
X645725Y-19667D01*
X646190Y-14250D01*
X650375D01*
G01X657505Y-21542D02*
X658590Y-20083D01*
X659520Y-19250D01*
X660760Y-18834D01*
X661845Y-19250D01*
X662620Y-20083D01*
X663240Y-21333D01*
X663395Y-22792D01*
X663240Y-24042D01*
X662620Y-25292D01*
X661690Y-26333D01*
X660605Y-26750D01*
X659365Y-26333D01*
X658280Y-25084D01*
X657660Y-23208D01*
X657505Y-21125D01*
X657815Y-18417D01*
X658280Y-16958D01*
X659055Y-15500D01*
X660140Y-14458D01*
X661225Y-14250D01*
X662310Y-14667D01*
X663085Y-15708D01*
G01X648050Y48250D02*
Y60750D01*
X646190Y58250D01*
G01Y48250D02*
X649910D01*
G01X660450Y60750D02*
X659210Y60333D01*
X658280Y59292D01*
X657660Y58042D01*
X657195Y56375D01*
X657040Y54500D01*
X657195Y52625D01*
X657660Y50958D01*
X658280Y49708D01*
X659210Y48667D01*
X660450Y48250D01*
X661690Y48667D01*
X662620Y49708D01*
X663240Y50958D01*
X663705Y52625D01*
X663860Y54500D01*
X663705Y56375D01*
X663240Y58042D01*
X662620Y59292D01*
X661690Y60333D01*
X660450Y60750D01*
G01X649910Y73250D02*
Y85750D01*
X644175Y76792D01*
X651925D01*
G01X660450Y85750D02*
X659210Y85333D01*
X658280Y84292D01*
X657660Y83042D01*
X657195Y81375D01*
X657040Y79500D01*
X657195Y77625D01*
X657660Y75958D01*
X658280Y74708D01*
X659210Y73667D01*
X660450Y73250D01*
X661690Y73667D01*
X662620Y74708D01*
X663240Y75958D01*
X663705Y77625D01*
X663860Y79500D01*
X663705Y81375D01*
X663240Y83042D01*
X662620Y84292D01*
X661690Y85333D01*
X660450Y85750D01*
G01X641850Y98250D02*
X640610Y98458D01*
X639525Y99291D01*
X638595Y100542D01*
X637975Y102000D01*
X637665Y103667D01*
Y105333D01*
X637975Y107000D01*
X638595Y108458D01*
X639525Y109708D01*
X640610Y110542D01*
X641850Y110750D01*
X643090Y110542D01*
X644175Y109708D01*
X645105Y108458D01*
X645725Y107000D01*
X646035Y105333D01*
Y103667D01*
X645725Y102000D01*
X645105Y100542D01*
X644175Y99291D01*
X643090Y98458D01*
X641850Y98250D01*
G01X643090Y101583D02*
X644950Y98250D01*
G01X654250Y110750D02*
Y98250D01*
G01X650685Y110750D02*
X657815D01*
G01X666650Y98250D02*
Y103875D01*
X663550Y110750D01*
G01X669750D02*
X666650Y103875D01*
G01X651305Y8667D02*
X652235Y9916D01*
X653320Y10542D01*
X654560Y10750D01*
X656110Y10333D01*
X657195Y9292D01*
X657505Y8042D01*
X657350Y6791D01*
X656730Y5750D01*
X653630Y3667D01*
X652235Y2208D01*
X651305Y125D01*
X650995Y-1750D01*
X657505D01*
G01X656110Y23250D02*
Y35750D01*
X650375Y26792D01*
X658125D01*
M02*
