G04 ================== begin FILE IDENTIFICATION RECORD ==================*
G04 Layout Name:  D:/projects/vllogic_hardware/vllink_lite/pcb.brd*
G04 Film Name:    SILKSCREEN_TOP*
G04 File Format:  Gerber RS274X*
G04 File Origin:  Cadence Allegro 17.2-P019*
G04 Origin Date:  Fri Nov 02 12:37:59 2018*
G04 *
G04 Layer:  PACKAGE GEOMETRY/SILKSCREEN_TOP*
G04 Layer:  MANUFACTURING/AUTOSILK_TOP*
G04 Layer:  BOARD GEOMETRY/SILKSCREEN_TOP*
G04 *
G04 Offset:    (0.000 0.000)*
G04 Mirror:    No*
G04 Mode:      Positive*
G04 Rotation:  0*
G04 FullContactRelief:  No*
G04 UndefLineWidth:     6.000*
G04 ================== end FILE IDENTIFICATION RECORD ====================*
%FSLAX55Y55*MOIN*%
%IR0*IPPOS*OFA0.00000B0.00000*MIA0B0*SFA1.00000B1.00000*%
%ADD10C,.004*%
%ADD11C,.005*%
%ADD12C,.005118*%
%ADD13C,.005906*%
%ADD14C,.01*%
%ADD15C,.015*%
%ADD16C,.006*%
%ADD17C,.011811*%
%ADD18C,.023622*%
G75*
%LPD*%
G75*
G54D10*
G01X5383Y-30380D02*
X5575Y-30690D01*
X5805Y-30897D01*
X6073Y-31000D01*
X6380Y-30897D01*
X6610Y-30690D01*
X6840Y-30380D01*
X6917Y-29967D01*
Y-27900D01*
G01X8598Y-30638D02*
X8867Y-30897D01*
X9173Y-31000D01*
X9480Y-30897D01*
X9748Y-30587D01*
X9940Y-30122D01*
X10017Y-29657D01*
Y-29088D01*
X9940Y-28623D01*
X9748Y-28210D01*
X9518Y-28003D01*
X9250Y-27900D01*
X8943Y-28003D01*
X8713Y-28210D01*
X8560Y-28520D01*
X8483Y-28933D01*
X8560Y-29295D01*
X8752Y-29657D01*
X8982Y-29863D01*
X9250Y-29915D01*
X9557Y-29812D01*
X9787Y-29553D01*
X10017Y-29088D01*
G01X4993Y24842D02*
X4763Y24997D01*
X4495Y25100D01*
X4188D01*
X3843Y24945D01*
X3575Y24687D01*
X3383Y24377D01*
X3230Y23860D01*
X3192Y23395D01*
X3268Y22930D01*
X3383Y22620D01*
X3613Y22310D01*
X3882Y22103D01*
X4150Y22000D01*
X4418D01*
X4687Y22103D01*
X4917Y22258D01*
X5108Y22465D01*
G01X7250Y22000D02*
X6943Y22052D01*
X6675Y22258D01*
X6445Y22568D01*
X6292Y22930D01*
X6215Y23343D01*
Y23757D01*
X6292Y24170D01*
X6445Y24532D01*
X6675Y24842D01*
X6943Y25048D01*
X7250Y25100D01*
X7557Y25048D01*
X7825Y24842D01*
X8055Y24532D01*
X8208Y24170D01*
X8285Y23757D01*
Y23343D01*
X8208Y22930D01*
X8055Y22568D01*
X7825Y22258D01*
X7557Y22052D01*
X7250Y22000D01*
G01X9353D02*
Y25100D01*
X10350Y22517D01*
X11347Y25100D01*
Y22000D01*
G01X13450D02*
Y25100D01*
X12990Y24480D01*
G01Y22000D02*
X13910D01*
G01X36900Y-25617D02*
X40000D01*
Y-24083D01*
G01Y-21750D02*
X36900D01*
X37520Y-22210D01*
G01X40000D02*
Y-21290D01*
G01X37383Y-6000D02*
Y-2900D01*
X38342D01*
X38648Y-3055D01*
X38840Y-3262D01*
X38917Y-3675D01*
X38840Y-4088D01*
X38610Y-4347D01*
X38342Y-4502D01*
X37383D01*
G01X38342D02*
X38917Y-6000D01*
G01X40407Y-5380D02*
X40637Y-5742D01*
X40943Y-5948D01*
X41288Y-6000D01*
X41595Y-5948D01*
X41902Y-5690D01*
X42093Y-5380D01*
X42132Y-5070D01*
X42055Y-4708D01*
X41787Y-4450D01*
X41518Y-4347D01*
X41173D01*
G01X41518D02*
X41748Y-4192D01*
X41940Y-3933D01*
X42017Y-3623D01*
X41940Y-3313D01*
X41748Y-3055D01*
X41403Y-2900D01*
X41058Y-2952D01*
X40713Y-3158D01*
G01X37383Y6000D02*
Y9100D01*
X38342D01*
X38648Y8945D01*
X38840Y8738D01*
X38917Y8325D01*
X38840Y7912D01*
X38610Y7653D01*
X38342Y7498D01*
X37383D01*
G01X38342D02*
X38917Y6000D01*
G01X41250D02*
Y9100D01*
X40790Y8480D01*
G01Y6000D02*
X41710D01*
G01X38993Y27842D02*
X38763Y27997D01*
X38495Y28100D01*
X38188D01*
X37843Y27945D01*
X37575Y27687D01*
X37383Y27377D01*
X37230Y26860D01*
X37192Y26395D01*
X37268Y25930D01*
X37383Y25620D01*
X37613Y25310D01*
X37882Y25103D01*
X38150Y25000D01*
X38418D01*
X38687Y25103D01*
X38917Y25258D01*
X39108Y25465D01*
G01X41250Y25000D02*
Y28100D01*
X40790Y27480D01*
G01Y25000D02*
X41710D01*
G01X37158Y40993D02*
X37003Y40763D01*
X36900Y40495D01*
Y40188D01*
X37055Y39843D01*
X37313Y39575D01*
X37623Y39383D01*
X38140Y39230D01*
X38605Y39192D01*
X39070Y39268D01*
X39380Y39383D01*
X39690Y39613D01*
X39897Y39882D01*
X40000Y40150D01*
Y40418D01*
X39897Y40687D01*
X39742Y40917D01*
X39535Y41108D01*
G01X37417Y42522D02*
X37107Y42752D01*
X36952Y43020D01*
X36900Y43327D01*
X37003Y43710D01*
X37262Y43978D01*
X37572Y44055D01*
X37882Y44017D01*
X38140Y43863D01*
X38657Y43097D01*
X39018Y42752D01*
X39535Y42522D01*
X40000Y42445D01*
Y44055D01*
G01X42158Y40993D02*
X42003Y40763D01*
X41900Y40495D01*
Y40188D01*
X42055Y39843D01*
X42313Y39575D01*
X42623Y39383D01*
X43140Y39230D01*
X43605Y39192D01*
X44070Y39268D01*
X44380Y39383D01*
X44690Y39613D01*
X44897Y39882D01*
X45000Y40150D01*
Y40418D01*
X44897Y40687D01*
X44742Y40917D01*
X44535Y41108D01*
G01X44380Y42407D02*
X44742Y42637D01*
X44948Y42943D01*
X45000Y43288D01*
X44948Y43595D01*
X44690Y43902D01*
X44380Y44093D01*
X44070Y44132D01*
X43708Y44055D01*
X43450Y43787D01*
X43347Y43518D01*
Y43173D01*
G01Y43518D02*
X43192Y43748D01*
X42933Y43940D01*
X42623Y44017D01*
X42313Y43940D01*
X42055Y43748D01*
X41900Y43403D01*
X41952Y43058D01*
X42158Y42713D01*
G01X75307Y43100D02*
Y40878D01*
X75460Y40413D01*
X75767Y40103D01*
X76150Y40000D01*
X76533Y40103D01*
X76840Y40413D01*
X76993Y40878D01*
Y43100D01*
G01X79250Y40000D02*
Y43100D01*
X78790Y42480D01*
G01Y40000D02*
X79710D01*
G01X85000Y-26617D02*
X81900D01*
Y-25658D01*
X82055Y-25352D01*
X82262Y-25160D01*
X82675Y-25083D01*
X83088Y-25160D01*
X83347Y-25390D01*
X83502Y-25658D01*
Y-26617D01*
G01Y-25658D02*
X85000Y-25083D01*
G01Y-22750D02*
X81900D01*
X82520Y-23210D01*
G01X85000D02*
Y-22290D01*
G01X84380Y-20493D02*
X84742Y-20263D01*
X84948Y-19957D01*
X85000Y-19612D01*
X84948Y-19305D01*
X84690Y-18998D01*
X84380Y-18807D01*
X84070Y-18768D01*
X83708Y-18845D01*
X83450Y-19113D01*
X83347Y-19382D01*
Y-19727D01*
G01Y-19382D02*
X83192Y-19152D01*
X82933Y-18960D01*
X82623Y-18883D01*
X82313Y-18960D01*
X82055Y-19152D01*
X81900Y-19497D01*
X81952Y-19842D01*
X82158Y-20187D01*
G01Y4993D02*
X82003Y4763D01*
X81900Y4495D01*
Y4188D01*
X82055Y3843D01*
X82313Y3575D01*
X82623Y3383D01*
X83140Y3230D01*
X83605Y3192D01*
X84070Y3268D01*
X84380Y3383D01*
X84690Y3613D01*
X84897Y3882D01*
X85000Y4150D01*
Y4418D01*
X84897Y4687D01*
X84742Y4917D01*
X84535Y5108D01*
G01X83708Y6522D02*
X83347Y6790D01*
X83140Y7020D01*
X83037Y7327D01*
X83140Y7595D01*
X83347Y7787D01*
X83657Y7940D01*
X84018Y7978D01*
X84328Y7940D01*
X84638Y7787D01*
X84897Y7557D01*
X85000Y7288D01*
X84897Y6982D01*
X84587Y6713D01*
X84122Y6560D01*
X83605Y6522D01*
X82933Y6598D01*
X82572Y6713D01*
X82210Y6905D01*
X81952Y7173D01*
X81900Y7442D01*
X82003Y7710D01*
X82262Y7902D01*
G01X89383Y37620D02*
X89575Y37310D01*
X89805Y37103D01*
X90073Y37000D01*
X90380Y37103D01*
X90610Y37310D01*
X90840Y37620D01*
X90917Y38033D01*
Y40100D01*
G01X93250Y37000D02*
Y40100D01*
X92790Y39480D01*
G01Y37000D02*
X93710D01*
G01X96350Y40100D02*
X96043Y39997D01*
X95813Y39738D01*
X95660Y39428D01*
X95545Y39015D01*
X95507Y38550D01*
X95545Y38085D01*
X95660Y37672D01*
X95813Y37362D01*
X96043Y37103D01*
X96350Y37000D01*
X96657Y37103D01*
X96887Y37362D01*
X97040Y37672D01*
X97155Y38085D01*
X97193Y38550D01*
X97155Y39015D01*
X97040Y39428D01*
X96887Y39738D01*
X96657Y39997D01*
X96350Y40100D01*
G01X95000Y-32617D02*
X91900D01*
Y-31658D01*
X92055Y-31352D01*
X92262Y-31160D01*
X92675Y-31083D01*
X93088Y-31160D01*
X93347Y-31390D01*
X93502Y-31658D01*
Y-32617D01*
G01Y-31658D02*
X95000Y-31083D01*
G01Y-28750D02*
X91900D01*
X92520Y-29210D01*
G01X95000D02*
Y-28290D01*
G01X94535Y-26493D02*
X94793Y-26263D01*
X94948Y-25995D01*
X95000Y-25650D01*
X94897Y-25305D01*
X94690Y-25037D01*
X94328Y-24845D01*
X93915Y-24807D01*
X93502Y-24883D01*
X93243Y-25075D01*
X93037Y-25343D01*
X92985Y-25612D01*
X93037Y-25880D01*
X93243Y-26225D01*
X91900Y-26110D01*
Y-25075D01*
G01X93993Y29842D02*
X93763Y29997D01*
X93495Y30100D01*
X93188D01*
X92843Y29945D01*
X92575Y29687D01*
X92383Y29377D01*
X92230Y28860D01*
X92192Y28395D01*
X92268Y27930D01*
X92383Y27620D01*
X92613Y27310D01*
X92882Y27103D01*
X93150Y27000D01*
X93418D01*
X93687Y27103D01*
X93917Y27258D01*
X94108Y27465D01*
G01X95407D02*
X95637Y27207D01*
X95905Y27052D01*
X96250Y27000D01*
X96595Y27103D01*
X96863Y27310D01*
X97055Y27672D01*
X97093Y28085D01*
X97017Y28498D01*
X96825Y28757D01*
X96557Y28963D01*
X96288Y29015D01*
X96020Y28963D01*
X95675Y28757D01*
X95790Y30100D01*
X96825D01*
G01X100383Y27000D02*
Y30100D01*
X101342D01*
X101648Y29945D01*
X101840Y29738D01*
X101917Y29325D01*
X101840Y28912D01*
X101610Y28653D01*
X101342Y28498D01*
X100383D01*
G01X101342D02*
X101917Y27000D01*
G01X104250D02*
Y30100D01*
X103790Y29480D01*
G01Y27000D02*
X104710D01*
G01X107810D02*
Y30100D01*
X106392Y27878D01*
X108308D01*
G01X116307Y10100D02*
Y7878D01*
X116460Y7413D01*
X116767Y7103D01*
X117150Y7000D01*
X117533Y7103D01*
X117840Y7413D01*
X117993Y7878D01*
Y10100D01*
G01X119407Y7620D02*
X119637Y7258D01*
X119943Y7052D01*
X120288Y7000D01*
X120595Y7052D01*
X120902Y7310D01*
X121093Y7620D01*
X121132Y7930D01*
X121055Y8292D01*
X120787Y8550D01*
X120518Y8653D01*
X120173D01*
G01X120518D02*
X120748Y8808D01*
X120940Y9067D01*
X121017Y9377D01*
X120940Y9687D01*
X120748Y9945D01*
X120403Y10100D01*
X120058Y10048D01*
X119713Y9842D01*
G01X131345Y-44587D02*
X131652Y-44845D01*
X131997Y-45000D01*
X132303D01*
X132610Y-44845D01*
X132840Y-44587D01*
X132955Y-44225D01*
X132878Y-43863D01*
X132687Y-43553D01*
X132342Y-43347D01*
X131882Y-43243D01*
X131613Y-43037D01*
X131498Y-42675D01*
X131575Y-42313D01*
X131767Y-42055D01*
X132035Y-41900D01*
X132303D01*
X132572Y-42003D01*
X132802Y-42262D01*
G01X134100Y-41900D02*
X134637Y-45000D01*
X135250Y-41900D01*
X135863Y-45000D01*
X136400Y-41900D01*
G01X138350Y-45000D02*
Y-41900D01*
X137890Y-42520D01*
G01Y-45000D02*
X138810D01*
G01X120993Y-29158D02*
X120763Y-29003D01*
X120495Y-28900D01*
X120188D01*
X119843Y-29055D01*
X119575Y-29313D01*
X119383Y-29623D01*
X119230Y-30140D01*
X119192Y-30605D01*
X119268Y-31070D01*
X119383Y-31380D01*
X119613Y-31690D01*
X119882Y-31897D01*
X120150Y-32000D01*
X120418D01*
X120687Y-31897D01*
X120917Y-31742D01*
X121108Y-31535D01*
G01X123710Y-32000D02*
Y-28900D01*
X122292Y-31122D01*
X124208D01*
G01X129383Y-9000D02*
Y-5900D01*
X130342D01*
X130648Y-6055D01*
X130840Y-6262D01*
X130917Y-6675D01*
X130840Y-7088D01*
X130610Y-7347D01*
X130342Y-7502D01*
X129383D01*
G01X130342D02*
X130917Y-9000D01*
G01X133173D02*
X133250Y-8328D01*
X133365Y-7760D01*
X133518Y-7243D01*
X133710Y-6675D01*
X134017Y-5900D01*
X132483D01*
G01X129383Y-14000D02*
Y-10900D01*
X130342D01*
X130648Y-11055D01*
X130840Y-11262D01*
X130917Y-11675D01*
X130840Y-12088D01*
X130610Y-12347D01*
X130342Y-12502D01*
X129383D01*
G01X130342D02*
X130917Y-14000D01*
G01X132598Y-13638D02*
X132867Y-13897D01*
X133173Y-14000D01*
X133480Y-13897D01*
X133748Y-13587D01*
X133940Y-13122D01*
X134017Y-12657D01*
Y-12088D01*
X133940Y-11623D01*
X133748Y-11210D01*
X133518Y-11003D01*
X133250Y-10900D01*
X132943Y-11003D01*
X132713Y-11210D01*
X132560Y-11520D01*
X132483Y-11933D01*
X132560Y-12295D01*
X132752Y-12657D01*
X132982Y-12863D01*
X133250Y-12915D01*
X133557Y-12812D01*
X133787Y-12553D01*
X134017Y-12088D01*
G01X129383Y-19000D02*
Y-15900D01*
X130342D01*
X130648Y-16055D01*
X130840Y-16262D01*
X130917Y-16675D01*
X130840Y-17088D01*
X130610Y-17347D01*
X130342Y-17502D01*
X129383D01*
G01X130342D02*
X130917Y-19000D01*
G01X133250D02*
Y-15900D01*
X132790Y-16520D01*
G01Y-19000D02*
X133710D01*
G01X136350D02*
Y-15900D01*
X135890Y-16520D01*
G01Y-19000D02*
X136810D01*
G01X129383Y-4000D02*
Y-900D01*
X130342D01*
X130648Y-1055D01*
X130840Y-1262D01*
X130917Y-1675D01*
X130840Y-2088D01*
X130610Y-2347D01*
X130342Y-2502D01*
X129383D01*
G01X130342D02*
X130917Y-4000D01*
G01X133250D02*
Y-900D01*
X132790Y-1520D01*
G01Y-4000D02*
X133710D01*
G01X136350Y-900D02*
X136043Y-1003D01*
X135813Y-1262D01*
X135660Y-1572D01*
X135545Y-1985D01*
X135507Y-2450D01*
X135545Y-2915D01*
X135660Y-3328D01*
X135813Y-3638D01*
X136043Y-3897D01*
X136350Y-4000D01*
X136657Y-3897D01*
X136887Y-3638D01*
X137040Y-3328D01*
X137155Y-2915D01*
X137193Y-2450D01*
X137155Y-1985D01*
X137040Y-1572D01*
X136887Y-1262D01*
X136657Y-1003D01*
X136350Y-900D01*
G01X129383Y1000D02*
Y4100D01*
X130342D01*
X130648Y3945D01*
X130840Y3738D01*
X130917Y3325D01*
X130840Y2912D01*
X130610Y2653D01*
X130342Y2498D01*
X129383D01*
G01X130342D02*
X130917Y1000D01*
G01X133250D02*
Y4100D01*
X132790Y3480D01*
G01Y1000D02*
X133710D01*
G01X135622Y3583D02*
X135852Y3893D01*
X136120Y4048D01*
X136427Y4100D01*
X136810Y3997D01*
X137078Y3738D01*
X137155Y3428D01*
X137117Y3118D01*
X136963Y2860D01*
X136197Y2343D01*
X135852Y1982D01*
X135622Y1465D01*
X135545Y1000D01*
X137155D01*
G01X122307Y16100D02*
Y13878D01*
X122460Y13413D01*
X122767Y13103D01*
X123150Y13000D01*
X123533Y13103D01*
X123840Y13413D01*
X123993Y13878D01*
Y16100D01*
G01X125522Y15583D02*
X125752Y15893D01*
X126020Y16048D01*
X126327Y16100D01*
X126710Y15997D01*
X126978Y15738D01*
X127055Y15428D01*
X127017Y15118D01*
X126863Y14860D01*
X126097Y14343D01*
X125752Y13982D01*
X125522Y13465D01*
X125445Y13000D01*
X127055D01*
G01X129383Y16000D02*
Y19100D01*
X130342D01*
X130648Y18945D01*
X130840Y18738D01*
X130917Y18325D01*
X130840Y17912D01*
X130610Y17653D01*
X130342Y17498D01*
X129383D01*
G01X130342D02*
X130917Y16000D01*
G01X132407Y16465D02*
X132637Y16207D01*
X132905Y16052D01*
X133250Y16000D01*
X133595Y16103D01*
X133863Y16310D01*
X134055Y16672D01*
X134093Y17085D01*
X134017Y17498D01*
X133825Y17757D01*
X133557Y17963D01*
X133288Y18015D01*
X133020Y17963D01*
X132675Y17757D01*
X132790Y19100D01*
X133825D01*
G01X129383Y11000D02*
Y14100D01*
X130342D01*
X130648Y13945D01*
X130840Y13738D01*
X130917Y13325D01*
X130840Y12912D01*
X130610Y12653D01*
X130342Y12498D01*
X129383D01*
G01X130342D02*
X130917Y11000D01*
G01X132522Y12292D02*
X132790Y12653D01*
X133020Y12860D01*
X133327Y12963D01*
X133595Y12860D01*
X133787Y12653D01*
X133940Y12343D01*
X133978Y11982D01*
X133940Y11672D01*
X133787Y11362D01*
X133557Y11103D01*
X133288Y11000D01*
X132982Y11103D01*
X132713Y11413D01*
X132560Y11878D01*
X132522Y12395D01*
X132598Y13067D01*
X132713Y13428D01*
X132905Y13790D01*
X133173Y14048D01*
X133442Y14100D01*
X133710Y13997D01*
X133902Y13738D01*
G01X129383Y6000D02*
Y9100D01*
X130342D01*
X130648Y8945D01*
X130840Y8738D01*
X130917Y8325D01*
X130840Y7912D01*
X130610Y7653D01*
X130342Y7498D01*
X129383D01*
G01X130342D02*
X130917Y6000D01*
G01X133250D02*
X133518Y6052D01*
X133825Y6207D01*
X134017Y6465D01*
X134093Y6827D01*
X134017Y7188D01*
X133787Y7498D01*
X133442Y7653D01*
X133058D01*
X132828Y7757D01*
X132637Y8015D01*
X132560Y8377D01*
X132675Y8738D01*
X132943Y8997D01*
X133250Y9100D01*
X133557Y8997D01*
X133825Y8738D01*
X133940Y8377D01*
X133863Y8015D01*
X133672Y7757D01*
X133442Y7653D01*
X133058D01*
X132713Y7498D01*
X132483Y7188D01*
X132407Y6827D01*
X132483Y6465D01*
X132675Y6207D01*
X132982Y6052D01*
X133250Y6000D01*
G01X120383Y33000D02*
Y36100D01*
X121342D01*
X121648Y35945D01*
X121840Y35738D01*
X121917Y35325D01*
X121840Y34912D01*
X121610Y34653D01*
X121342Y34498D01*
X120383D01*
G01X121342D02*
X121917Y33000D01*
G01X123522Y35583D02*
X123752Y35893D01*
X124020Y36048D01*
X124327Y36100D01*
X124710Y35997D01*
X124978Y35738D01*
X125055Y35428D01*
X125017Y35118D01*
X124863Y34860D01*
X124097Y34343D01*
X123752Y33982D01*
X123522Y33465D01*
X123445Y33000D01*
X125055D01*
G01X120383Y37000D02*
Y40100D01*
X121342D01*
X121648Y39945D01*
X121840Y39738D01*
X121917Y39325D01*
X121840Y38912D01*
X121610Y38653D01*
X121342Y38498D01*
X120383D01*
G01X121342D02*
X121917Y37000D01*
G01X124710D02*
Y40100D01*
X123292Y37878D01*
X125208D01*
G01X138383Y29100D02*
Y26000D01*
X139917D01*
G01X143017D02*
X141483D01*
Y29100D01*
X143017D01*
G01X142403Y27602D02*
X141483D01*
G01X144507Y26000D02*
Y29100D01*
X145273D01*
X145580Y28945D01*
X145810Y28738D01*
X146002Y28428D01*
X146155Y28067D01*
X146193Y27550D01*
X146155Y27033D01*
X146002Y26672D01*
X145810Y26362D01*
X145580Y26155D01*
X145273Y26000D01*
X144507D01*
G01X148450D02*
Y29100D01*
X147990Y28480D01*
G01Y26000D02*
X148910D01*
G01X153100Y4310D02*
Y3390D01*
G01Y3850D02*
X150000D01*
G01Y4310D02*
Y3390D01*
G01Y750D02*
X150052Y1057D01*
X150258Y1325D01*
X150568Y1555D01*
X150930Y1708D01*
X151343Y1785D01*
X151757D01*
X152170Y1708D01*
X152532Y1555D01*
X152842Y1325D01*
X153048Y1057D01*
X153100Y750D01*
X153048Y443D01*
X152842Y175D01*
X152532Y-55D01*
X152170Y-208D01*
X151757Y-285D01*
X151343D01*
X150930Y-208D01*
X150568Y-55D01*
X150258Y175D01*
X150052Y443D01*
X150000Y750D01*
G01X148967Y-1200D02*
Y-3500D01*
G01X150000Y-4492D02*
X153100Y-5450D01*
X150000Y-6408D01*
G01X151085Y-6063D02*
Y-4837D01*
G01X150000Y-8550D02*
X153100D01*
X152480Y-8090D01*
G01X150000D02*
Y-9010D01*
G54D11*
G01X29500Y20000D02*
X-8000D01*
Y-20000D01*
X29500D01*
G54D12*
G01X37425Y-18968D02*
Y-11094D01*
X40575D01*
Y-18968D01*
X37425D01*
G01X37032Y5075D02*
X44906D01*
Y1925D01*
X37032D01*
Y5075D01*
G01Y1075D02*
X44906D01*
Y-2075D01*
X37032D01*
Y1075D01*
G01X36988Y20425D02*
G02Y23575I2756J1575D01*
G01X44075D02*
G02Y20425I-2756J-1575D01*
G01Y23575D02*
X36988D01*
G01X44075Y20425D02*
X36988D01*
G01X40075Y29925D02*
G02X36925I-1575J2756D01*
G01X40075D02*
Y37012D01*
G01X36925Y29925D02*
Y37012D01*
G01X44575Y29988D02*
G02X41425I-1575J2756D01*
G01Y37075D02*
Y29988D01*
G01X44575Y37075D02*
Y29988D01*
G01X36925Y37012D02*
G02X40075I1575J-2756D01*
G01X41425Y37075D02*
G02X44575I1575J-2756D01*
G01X81325Y-16768D02*
Y-8894D01*
X84475D01*
Y-16768D01*
X81325D01*
G01X84475Y-6312D02*
G02X81325I-1575J2756D01*
G01Y775D02*
G02X84475I1575J-2756D01*
G01X81325D02*
Y-6312D01*
G01X84475Y775D02*
Y-6312D01*
G01X99575Y-25032D02*
Y-32906D01*
X96425D01*
Y-25032D01*
X99575D01*
G01X95906Y10787D02*
Y9606D01*
X97087D01*
Y10787D01*
X95906D01*
X96693Y10000D01*
X97087D01*
Y10394D01*
X96693Y10787D01*
Y10000D01*
X95906D01*
G01X99012Y25575D02*
G02Y22425I-2756J-1575D01*
G01X91925D02*
G02Y25575I2756J1575D01*
G01Y22425D02*
X99012D01*
G01X91925Y25575D02*
X99012D01*
G01X107968Y22425D02*
X100094D01*
Y25575D01*
X107968D01*
Y22425D01*
G01X119488Y-27075D02*
G02Y-23925I2756J1575D01*
G01X126575D02*
G02Y-27075I-2756J-1575D01*
G01Y-23925D02*
X119488D01*
G01X126575Y-27075D02*
X119488D01*
G01X133968Y32425D02*
X126094D01*
Y35575D01*
X133968D01*
Y32425D01*
G01Y36425D02*
X126094D01*
Y39575D01*
X133968D01*
Y36425D01*
G01X138032Y-6425D02*
X145906D01*
Y-9575D01*
X138032D01*
Y-6425D01*
G01Y-11425D02*
X145906D01*
Y-14575D01*
X138032D01*
Y-11425D01*
G01Y-16425D02*
X145906D01*
Y-19575D01*
X138032D01*
Y-16425D01*
G01X145968Y-4575D02*
X138094D01*
Y-1425D01*
X145968D01*
Y-4575D01*
G01Y425D02*
X138094D01*
Y3575D01*
X145968D01*
Y425D01*
G01X138032Y18575D02*
X145906D01*
Y15425D01*
X138032D01*
Y18575D01*
G01Y13575D02*
X145906D01*
Y10425D01*
X138032D01*
Y13575D01*
G01X145968Y5425D02*
X138094D01*
Y8575D01*
X145968D01*
Y5425D01*
G54D13*
G01X144158Y-24158D02*
X163842D01*
Y-43842D01*
X144158D01*
Y-24158D01*
G54D14*
G01X5000Y-33000D02*
X55000D01*
Y-43000D01*
X5000D01*
Y-33000D01*
G01X119000Y31000D02*
X99000D01*
Y41000D01*
X119000D01*
Y31000D01*
G01X139000Y41000D02*
X169000D01*
Y31000D01*
X139000D01*
Y41000D01*
G54D15*
G01X150000Y40000D02*
X170000D01*
Y-40000D01*
X150000D01*
Y40000D01*
G54D16*
G01X93937Y-14606D02*
X121496D01*
Y12953D01*
X93937D01*
Y-14606D01*
G01X99626Y-8374D02*
X115374D01*
Y7374D01*
X99626D01*
Y-8374D01*
G54D17*
G01X71004Y16614D02*
X58012D01*
Y43386D01*
X71004D01*
Y16614D01*
G54D18*
G01X98445Y7374D02*
X100807D01*
M02*
