G04 ================== begin FILE IDENTIFICATION RECORD ==================*
G04 Layout Name:  D:/projects/vllogic_hardware/vllink_lite/pcb.brd*
G04 Film Name:    SOLDERMASK_TOP*
G04 File Format:  Gerber RS274X*
G04 File Origin:  Cadence Allegro 17.2-P019*
G04 Origin Date:  Fri Nov 02 12:37:59 2018*
G04 *
G04 Layer:  VIA CLASS/SOLDERMASK_TOP*
G04 Layer:  PIN/SOLDERMASK_TOP*
G04 Layer:  PACKAGE GEOMETRY/SOLDERMASK_TOP*
G04 Layer:  BOARD GEOMETRY/SOLDERMASK_TOP*
G04 *
G04 Offset:    (0.000 0.000)*
G04 Mirror:    No*
G04 Mode:      Positive*
G04 Rotation:  0*
G04 FullContactRelief:  No*
G04 UndefLineWidth:     1.000*
G04 ================== end FILE IDENTIFICATION RECORD ====================*
%FSLAX55Y55*MOIN*%
%IR0*IPPOS*OFA0.00000B0.00000*MIA0B0*SFA1.00000B1.00000*%
%ADD17R,.106299X.047244*%
%ADD25R,.125984X.066929*%
%ADD15R,.028X.031*%
%ADD16R,.031X.028*%
%ADD14O,.079X.016*%
%ADD13C,.072*%
%AMMACRO22*
4,1,5,-.05315,-.05315,
.05315,-.05315,
.05315,.05315,
-.035433,.05315,
-.05315,.035433,
-.05315,-.05315,
0.0*
%
%ADD22MACRO22*%
%ADD11R,.088X.08*%
%ADD21R,.011811X.03937*%
%ADD23R,.03937X.011811*%
%ADD24C,.07874*%
%ADD12C,.070866*%
%ADD20R,.015748X.055118*%
%ADD19R,.055118X.015748*%
%ADD10R,.070866X.070866*%
%ADD18R,.106299X.145669*%
G75*
%LPD*%
G75*
G36*
G01X77000Y-31000D02*
X46000D01*
X44000Y-29000D01*
Y-4000D01*
X46000Y-2000D01*
X77000D01*
X79000Y-4000D01*
Y-29000D01*
X77000Y-31000D01*
G37*
G54D10*
X10000Y-38000D03*
X114000Y36000D03*
X144000D03*
G54D20*
X104764Y-18543D03*
X102795D03*
X100827D03*
X98858D03*
X96890D03*
Y16890D03*
X98858D03*
X100827D03*
X102795D03*
X104764D03*
X118543Y-18543D03*
X116575D03*
X114606D03*
X112638D03*
X110669D03*
X108701D03*
X106732D03*
Y16890D03*
X108701D03*
X110669D03*
X112638D03*
X114606D03*
X116575D03*
X118543D03*
G54D11*
X5438Y-15650D03*
Y15650D03*
X26702Y-15650D03*
Y15650D03*
G54D12*
X20000Y-38000D03*
X30000D03*
X50000D03*
X40000D03*
X104000Y36000D03*
X154000D03*
X164000D03*
G54D21*
X104350Y-8374D03*
X102776D03*
Y7610D03*
X104350Y7374D03*
X112224Y-8374D03*
X110650D03*
X109075D03*
X107500D03*
X105925D03*
Y7374D03*
X107500D03*
X109075D03*
X110650D03*
X112224D03*
G54D22*
X107500Y-500D03*
G54D13*
X17195Y-8662D03*
Y8662D03*
G54D23*
X99626Y-5224D03*
Y-3650D03*
Y-2075D03*
Y-500D03*
Y1075D03*
Y2650D03*
X99390Y4224D03*
X115374D03*
Y2650D03*
Y1075D03*
Y-500D03*
Y-2075D03*
Y-3650D03*
Y-5224D03*
G54D14*
X27237Y0D03*
Y3150D03*
Y-3150D03*
Y-6300D03*
Y6300D03*
G54D24*
X142976Y-39906D03*
Y-28094D03*
X165024Y-39906D03*
Y-28094D03*
G54D15*
X39000Y-12850D03*
Y-17150D03*
X38500Y31350D03*
X43000D03*
X38500Y35650D03*
X43000D03*
X82900Y-10650D03*
Y-14950D03*
Y-4950D03*
Y-650D03*
X98000Y-31150D03*
Y-26850D03*
G54D16*
X43150Y3500D03*
X38850D03*
X43150Y-500D03*
X38850D03*
X38350Y22000D03*
X42650D03*
X97650Y24000D03*
X93350D03*
X101850D03*
X106150D03*
X120850Y-25500D03*
X125150D03*
X127850Y34000D03*
X132150D03*
X127850Y38000D03*
X132150D03*
X144150Y-8000D03*
X139850D03*
X144150Y-13000D03*
X139850D03*
X144150Y-18000D03*
X139850D03*
Y-3000D03*
X144150D03*
X139850Y2000D03*
X144150D03*
Y17000D03*
X139850D03*
X144150Y12000D03*
X139850D03*
Y7000D03*
X144150D03*
G54D25*
X160000Y-20000D03*
Y-10000D03*
Y0D03*
Y10000D03*
Y20000D03*
G54D17*
X52500Y20984D03*
Y30000D03*
Y39016D03*
G54D18*
X76122Y30000D03*
G54D19*
X90000Y-11654D03*
Y-9685D03*
Y-7717D03*
Y-5748D03*
Y-3780D03*
Y-1811D03*
Y158D03*
Y2126D03*
Y4094D03*
Y6063D03*
Y8032D03*
Y10000D03*
X125433Y-9685D03*
Y-11654D03*
Y4094D03*
Y2126D03*
Y158D03*
Y-1811D03*
Y-3780D03*
Y-5748D03*
Y-7717D03*
Y10000D03*
Y8032D03*
Y6063D03*
M02*
