M48
; DRILL file {KiCad (5.1.4)-1} date 2019/11/22 21:00:26
; FORMAT={-:-/ absolute / inch / decimal}
; #@! TF.CreationDate,2019-11-22T21:00:26+08:00
; #@! TF.GenerationSoftware,Kicad,Pcbnew,(5.1.4)-1
; #@! TF.FileFunction,Plated,1,2,PTH
FMAT,2
INCH
T1C0.0080
T2C0.0354
T3C0.0394
T4C0.0433
%
G90
G05
T1
X3.722Y-4.09
X3.785Y-3.959
X3.867Y-3.959
X3.91Y-4.444
X4.0Y-4.16
X4.284Y-4.26
X4.3Y-4.768
X4.304Y-4.742
X4.32Y-4.356
X4.32Y-4.6
X4.333Y-4.313
X4.347Y-4.328
X4.352Y-4.42
X4.358Y-4.512
X4.37Y-4.75
X4.441Y-4.5689
X4.443Y-4.546
X4.4567Y-4.6933
X4.476Y-4.268
X4.4798Y-4.4142
X4.481Y-4.5728
X4.495Y-4.734
X4.4998Y-4.5552
X4.512Y-3.99
X4.5158Y-4.6918
X4.517Y-4.139
X4.52Y-4.44
X4.56Y-4.236
X4.59Y-4.5
X4.613Y-4.362
X4.62Y-4.55
X4.624Y-4.18
X4.6281Y-4.3948
X4.6402Y-4.5338
X4.644Y-4.164
X4.656Y-4.694
X4.6564Y-4.4116
X4.663Y-3.945
X4.673Y-4.267
X4.6767Y-4.4313
X4.6835Y-4.4555
X4.696Y-3.945
X4.698Y-4.267
X4.722Y-4.698
X4.819Y-4.44
X4.819Y-4.47
X4.836Y-4.124
X4.839Y-4.26
X4.868Y-4.35
X4.868Y-4.41
X4.868Y-4.44
X4.868Y-4.47
X4.936Y-4.094
X4.98Y-4.35
X4.98Y-4.47
X4.98Y-4.59
T2
X4.9272Y-4.0163
X5.0272Y-4.0163
X5.1272Y-4.0163
T3
X4.14Y-4.74
X4.24Y-4.74
X3.6Y-4.74
X3.7Y-4.74
X3.8Y-4.74
X3.9Y-4.74
X4.0Y-4.74
T4
X4.919Y-4.6698
X4.919Y-4.788
X5.1355Y-4.6698
X5.1355Y-4.788
T0
M30
