G04 #@! TF.GenerationSoftware,KiCad,Pcbnew,(5.1.4)-1*
G04 #@! TF.CreationDate,2019-11-22T21:00:23+08:00*
G04 #@! TF.ProjectId,vllink_lite.r3,766c6c69-6e6b-45f6-9c69-74652e72332e,rev?*
G04 #@! TF.SameCoordinates,Original*
G04 #@! TF.FileFunction,Copper,L2,Bot*
G04 #@! TF.FilePolarity,Positive*
%FSLAX46Y46*%
G04 Gerber Fmt 4.6, Leading zero omitted, Abs format (unit mm)*
G04 Created by KiCad (PCBNEW (5.1.4)-1) date 2019-11-22 21:00:23*
%MOMM*%
%LPD*%
G04 APERTURE LIST*
%ADD10C,0.150000*%
%ADD11C,0.010000*%
%ADD12O,1.700000X1.700000*%
%ADD13R,1.700000X1.700000*%
%ADD14C,1.700000*%
%ADD15C,1.000000*%
%ADD16C,1.800000*%
%ADD17R,1.800000X1.800000*%
%ADD18R,3.800000X1.400000*%
%ADD19C,0.406400*%
%ADD20C,0.304800*%
%ADD21C,0.203200*%
%ADD22C,0.508000*%
%ADD23C,0.152400*%
%ADD24C,0.101600*%
G04 APERTURE END LIST*
D10*
X105784333Y-115126333D02*
X105751000Y-115093000D01*
X105684333Y-115059666D01*
X105517666Y-115059666D01*
X105451000Y-115093000D01*
X105417666Y-115126333D01*
X105384333Y-115193000D01*
X105384333Y-115259666D01*
X105417666Y-115359666D01*
X105817666Y-115759666D01*
X105384333Y-115759666D01*
X104951000Y-115059666D02*
X104884333Y-115059666D01*
X104817666Y-115093000D01*
X104784333Y-115126333D01*
X104751000Y-115193000D01*
X104717666Y-115326333D01*
X104717666Y-115493000D01*
X104751000Y-115626333D01*
X104784333Y-115693000D01*
X104817666Y-115726333D01*
X104884333Y-115759666D01*
X104951000Y-115759666D01*
X105017666Y-115726333D01*
X105051000Y-115693000D01*
X105084333Y-115626333D01*
X105117666Y-115493000D01*
X105117666Y-115326333D01*
X105084333Y-115193000D01*
X105051000Y-115126333D01*
X105017666Y-115093000D01*
X104951000Y-115059666D01*
X104051000Y-115759666D02*
X104451000Y-115759666D01*
X104251000Y-115759666D02*
X104251000Y-115059666D01*
X104317666Y-115159666D01*
X104384333Y-115226333D01*
X104451000Y-115259666D01*
X103717666Y-115759666D02*
X103584333Y-115759666D01*
X103517666Y-115726333D01*
X103484333Y-115693000D01*
X103417666Y-115593000D01*
X103384333Y-115459666D01*
X103384333Y-115193000D01*
X103417666Y-115126333D01*
X103451000Y-115093000D01*
X103517666Y-115059666D01*
X103651000Y-115059666D01*
X103717666Y-115093000D01*
X103751000Y-115126333D01*
X103784333Y-115193000D01*
X103784333Y-115359666D01*
X103751000Y-115426333D01*
X103717666Y-115459666D01*
X103651000Y-115493000D01*
X103517666Y-115493000D01*
X103451000Y-115459666D01*
X103417666Y-115426333D01*
X103384333Y-115359666D01*
X102717666Y-115759666D02*
X103117666Y-115759666D01*
X102917666Y-115759666D02*
X102917666Y-115059666D01*
X102984333Y-115159666D01*
X103051000Y-115226333D01*
X103117666Y-115259666D01*
X102284333Y-115059666D02*
X102217666Y-115059666D01*
X102151000Y-115093000D01*
X102117666Y-115126333D01*
X102084333Y-115193000D01*
X102051000Y-115326333D01*
X102051000Y-115493000D01*
X102084333Y-115626333D01*
X102117666Y-115693000D01*
X102151000Y-115726333D01*
X102217666Y-115759666D01*
X102284333Y-115759666D01*
X102351000Y-115726333D01*
X102384333Y-115693000D01*
X102417666Y-115626333D01*
X102451000Y-115493000D01*
X102451000Y-115326333D01*
X102417666Y-115193000D01*
X102384333Y-115126333D01*
X102351000Y-115093000D01*
X102284333Y-115059666D01*
X101784333Y-115126333D02*
X101751000Y-115093000D01*
X101684333Y-115059666D01*
X101517666Y-115059666D01*
X101451000Y-115093000D01*
X101417666Y-115126333D01*
X101384333Y-115193000D01*
X101384333Y-115259666D01*
X101417666Y-115359666D01*
X101817666Y-115759666D01*
X101384333Y-115759666D01*
X100951000Y-115059666D02*
X100884333Y-115059666D01*
X100817666Y-115093000D01*
X100784333Y-115126333D01*
X100751000Y-115193000D01*
X100717666Y-115326333D01*
X100717666Y-115493000D01*
X100751000Y-115626333D01*
X100784333Y-115693000D01*
X100817666Y-115726333D01*
X100884333Y-115759666D01*
X100951000Y-115759666D01*
X101017666Y-115726333D01*
X101051000Y-115693000D01*
X101084333Y-115626333D01*
X101117666Y-115493000D01*
X101117666Y-115326333D01*
X101084333Y-115193000D01*
X101051000Y-115126333D01*
X101017666Y-115093000D01*
X100951000Y-115059666D01*
D11*
G36*
X106364772Y-111946469D02*
G01*
X106358255Y-111953983D01*
X106349903Y-112006523D01*
X106439245Y-112047270D01*
X106648320Y-112081122D01*
X106999168Y-112112972D01*
X107110778Y-112121137D01*
X107952501Y-112180812D01*
X108003319Y-112488073D01*
X108044320Y-112771560D01*
X108029650Y-112926726D01*
X107931685Y-112992246D01*
X107722802Y-113006794D01*
X107632667Y-113007000D01*
X107209333Y-113007000D01*
X107209333Y-112661278D01*
X107189431Y-112426620D01*
X107127533Y-112347085D01*
X107104382Y-112350540D01*
X107035071Y-112457476D01*
X107025714Y-112690450D01*
X107026202Y-112696262D01*
X107052974Y-113007000D01*
X106682420Y-113007000D01*
X106434833Y-112988069D01*
X106257018Y-112940590D01*
X106223612Y-112918745D01*
X106111545Y-112889184D01*
X106026978Y-112961079D01*
X105987517Y-113030665D01*
X106033090Y-113070157D01*
X106192106Y-113087755D01*
X106479300Y-113091667D01*
X107040000Y-113091667D01*
X107040000Y-113758633D01*
X107052526Y-114154704D01*
X107092268Y-114403945D01*
X107159462Y-114524744D01*
X107279571Y-114578886D01*
X107337460Y-114529178D01*
X107458082Y-114423462D01*
X107577831Y-114361100D01*
X107679655Y-114311472D01*
X107640110Y-114289238D01*
X107484500Y-114282367D01*
X107209333Y-114277000D01*
X107209333Y-113079689D01*
X107696167Y-113099558D01*
X107963272Y-113101210D01*
X108151229Y-113084953D01*
X108210165Y-113062464D01*
X108215439Y-112953102D01*
X108200245Y-112731840D01*
X108179243Y-112540584D01*
X108121156Y-112075667D01*
X107726029Y-112075667D01*
X107398062Y-112052365D01*
X107030644Y-111993562D01*
X106889179Y-111961085D01*
X106615465Y-111899855D01*
X106455782Y-111895185D01*
X106364772Y-111946469D01*
X106364772Y-111946469D01*
G37*
X106364772Y-111946469D02*
X106358255Y-111953983D01*
X106349903Y-112006523D01*
X106439245Y-112047270D01*
X106648320Y-112081122D01*
X106999168Y-112112972D01*
X107110778Y-112121137D01*
X107952501Y-112180812D01*
X108003319Y-112488073D01*
X108044320Y-112771560D01*
X108029650Y-112926726D01*
X107931685Y-112992246D01*
X107722802Y-113006794D01*
X107632667Y-113007000D01*
X107209333Y-113007000D01*
X107209333Y-112661278D01*
X107189431Y-112426620D01*
X107127533Y-112347085D01*
X107104382Y-112350540D01*
X107035071Y-112457476D01*
X107025714Y-112690450D01*
X107026202Y-112696262D01*
X107052974Y-113007000D01*
X106682420Y-113007000D01*
X106434833Y-112988069D01*
X106257018Y-112940590D01*
X106223612Y-112918745D01*
X106111545Y-112889184D01*
X106026978Y-112961079D01*
X105987517Y-113030665D01*
X106033090Y-113070157D01*
X106192106Y-113087755D01*
X106479300Y-113091667D01*
X107040000Y-113091667D01*
X107040000Y-113758633D01*
X107052526Y-114154704D01*
X107092268Y-114403945D01*
X107159462Y-114524744D01*
X107279571Y-114578886D01*
X107337460Y-114529178D01*
X107458082Y-114423462D01*
X107577831Y-114361100D01*
X107679655Y-114311472D01*
X107640110Y-114289238D01*
X107484500Y-114282367D01*
X107209333Y-114277000D01*
X107209333Y-113079689D01*
X107696167Y-113099558D01*
X107963272Y-113101210D01*
X108151229Y-113084953D01*
X108210165Y-113062464D01*
X108215439Y-112953102D01*
X108200245Y-112731840D01*
X108179243Y-112540584D01*
X108121156Y-112075667D01*
X107726029Y-112075667D01*
X107398062Y-112052365D01*
X107030644Y-111993562D01*
X106889179Y-111961085D01*
X106615465Y-111899855D01*
X106455782Y-111895185D01*
X106364772Y-111946469D01*
G36*
X100844070Y-112765865D02*
G01*
X100850047Y-113155050D01*
X100844079Y-113501555D01*
X100827558Y-113756714D01*
X100813202Y-113845549D01*
X100766814Y-113992228D01*
X100727013Y-113985909D01*
X100686250Y-113896000D01*
X100641938Y-113823184D01*
X100618806Y-113894014D01*
X100611284Y-114062310D01*
X100614029Y-114269293D01*
X100643852Y-114334461D01*
X100717871Y-114285039D01*
X100738563Y-114264723D01*
X100877013Y-114031114D01*
X100969911Y-113649415D01*
X101018412Y-113113495D01*
X101026647Y-112731834D01*
X101028667Y-111991000D01*
X101773154Y-111991000D01*
X101783711Y-112814655D01*
X101830692Y-113472573D01*
X101953188Y-113980502D01*
X102151736Y-114340281D01*
X102260260Y-114449592D01*
X102289804Y-114440600D01*
X102242803Y-114314523D01*
X102151450Y-114138944D01*
X102044579Y-113929880D01*
X101973739Y-113727835D01*
X101929624Y-113486031D01*
X101902930Y-113157688D01*
X101888394Y-112816500D01*
X101856601Y-111906334D01*
X101336801Y-111906149D01*
X100817000Y-111905965D01*
X100844070Y-112765865D01*
X100844070Y-112765865D01*
G37*
X100844070Y-112765865D02*
X100850047Y-113155050D01*
X100844079Y-113501555D01*
X100827558Y-113756714D01*
X100813202Y-113845549D01*
X100766814Y-113992228D01*
X100727013Y-113985909D01*
X100686250Y-113896000D01*
X100641938Y-113823184D01*
X100618806Y-113894014D01*
X100611284Y-114062310D01*
X100614029Y-114269293D01*
X100643852Y-114334461D01*
X100717871Y-114285039D01*
X100738563Y-114264723D01*
X100877013Y-114031114D01*
X100969911Y-113649415D01*
X101018412Y-113113495D01*
X101026647Y-112731834D01*
X101028667Y-111991000D01*
X101773154Y-111991000D01*
X101783711Y-112814655D01*
X101830692Y-113472573D01*
X101953188Y-113980502D01*
X102151736Y-114340281D01*
X102260260Y-114449592D01*
X102289804Y-114440600D01*
X102242803Y-114314523D01*
X102151450Y-114138944D01*
X102044579Y-113929880D01*
X101973739Y-113727835D01*
X101929624Y-113486031D01*
X101902930Y-113157688D01*
X101888394Y-112816500D01*
X101856601Y-111906334D01*
X101336801Y-111906149D01*
X100817000Y-111905965D01*
X100844070Y-112765865D01*
G36*
X102214053Y-113422414D02*
G01*
X102083134Y-113444161D01*
X102073660Y-113451500D01*
X102120977Y-113492733D01*
X102287397Y-113514151D01*
X102336003Y-113515000D01*
X102637333Y-113515000D01*
X102637333Y-113980667D01*
X102654322Y-114277690D01*
X102714858Y-114424066D01*
X102833300Y-114435947D01*
X102976000Y-114361667D01*
X103053835Y-114296053D01*
X102973814Y-114278570D01*
X102954833Y-114278297D01*
X102860078Y-114243063D01*
X102815978Y-114113074D01*
X102806667Y-113901111D01*
X102813827Y-113668324D01*
X102861458Y-113554784D01*
X102988786Y-113510408D01*
X103124167Y-113495738D01*
X103208696Y-113478038D01*
X103134318Y-113457401D01*
X102911383Y-113435871D01*
X102777157Y-113427127D01*
X102459885Y-113416234D01*
X102214053Y-113422414D01*
X102214053Y-113422414D01*
G37*
X102214053Y-113422414D02*
X102083134Y-113444161D01*
X102073660Y-113451500D01*
X102120977Y-113492733D01*
X102287397Y-113514151D01*
X102336003Y-113515000D01*
X102637333Y-113515000D01*
X102637333Y-113980667D01*
X102654322Y-114277690D01*
X102714858Y-114424066D01*
X102833300Y-114435947D01*
X102976000Y-114361667D01*
X103053835Y-114296053D01*
X102973814Y-114278570D01*
X102954833Y-114278297D01*
X102860078Y-114243063D01*
X102815978Y-114113074D01*
X102806667Y-113901111D01*
X102813827Y-113668324D01*
X102861458Y-113554784D01*
X102988786Y-113510408D01*
X103124167Y-113495738D01*
X103208696Y-113478038D01*
X103134318Y-113457401D01*
X102911383Y-113435871D01*
X102777157Y-113427127D01*
X102459885Y-113416234D01*
X102214053Y-113422414D01*
G36*
X107635895Y-113386005D02*
G01*
X107617699Y-113470032D01*
X107723388Y-113633659D01*
X107899913Y-113827739D01*
X108132013Y-114053711D01*
X108315454Y-114210699D01*
X108433802Y-114290372D01*
X108470621Y-114284395D01*
X108409477Y-114184435D01*
X108259903Y-114010276D01*
X108057535Y-113779824D01*
X107895396Y-113577733D01*
X107826552Y-113477212D01*
X107713197Y-113374230D01*
X107635895Y-113386005D01*
X107635895Y-113386005D01*
G37*
X107635895Y-113386005D02*
X107617699Y-113470032D01*
X107723388Y-113633659D01*
X107899913Y-113827739D01*
X108132013Y-114053711D01*
X108315454Y-114210699D01*
X108433802Y-114290372D01*
X108470621Y-114284395D01*
X108409477Y-114184435D01*
X108259903Y-114010276D01*
X108057535Y-113779824D01*
X107895396Y-113577733D01*
X107826552Y-113477212D01*
X107713197Y-113374230D01*
X107635895Y-113386005D01*
G36*
X106461925Y-113590701D02*
G01*
X106229453Y-113796857D01*
X106081388Y-114011349D01*
X106039203Y-114195619D01*
X106077945Y-114280145D01*
X106171252Y-114275990D01*
X106291198Y-114109929D01*
X106303044Y-114087348D01*
X106446202Y-113832292D01*
X106592854Y-113603450D01*
X106594296Y-113601420D01*
X106743667Y-113391507D01*
X106461925Y-113590701D01*
X106461925Y-113590701D01*
G37*
X106461925Y-113590701D02*
X106229453Y-113796857D01*
X106081388Y-114011349D01*
X106039203Y-114195619D01*
X106077945Y-114280145D01*
X106171252Y-114275990D01*
X106291198Y-114109929D01*
X106303044Y-114087348D01*
X106446202Y-113832292D01*
X106592854Y-113603450D01*
X106594296Y-113601420D01*
X106743667Y-113391507D01*
X106461925Y-113590701D01*
G36*
X102977323Y-113822118D02*
G01*
X103063932Y-113960942D01*
X103116342Y-114023000D01*
X103266152Y-114182802D01*
X103363229Y-114270962D01*
X103375782Y-114277000D01*
X103360158Y-114213580D01*
X103278945Y-114057511D01*
X103258865Y-114023000D01*
X103129138Y-113851967D01*
X103010683Y-113770183D01*
X102999426Y-113769000D01*
X102977323Y-113822118D01*
X102977323Y-113822118D01*
G37*
X102977323Y-113822118D02*
X103063932Y-113960942D01*
X103116342Y-114023000D01*
X103266152Y-114182802D01*
X103363229Y-114270962D01*
X103375782Y-114277000D01*
X103360158Y-114213580D01*
X103278945Y-114057511D01*
X103258865Y-114023000D01*
X103129138Y-113851967D01*
X103010683Y-113770183D01*
X102999426Y-113769000D01*
X102977323Y-113822118D01*
G36*
X104997076Y-112266903D02*
G01*
X104823318Y-112354157D01*
X104639077Y-112443800D01*
X104506957Y-112439181D01*
X104372354Y-112363791D01*
X104121360Y-112274654D01*
X103908512Y-112345857D01*
X103756219Y-112569136D01*
X103746961Y-112594355D01*
X103711491Y-112890329D01*
X103815174Y-113201822D01*
X104065706Y-113546114D01*
X104260872Y-113748000D01*
X104633750Y-114108000D01*
X104980320Y-113748000D01*
X105260490Y-113432983D01*
X105427239Y-113175381D01*
X105503722Y-112932510D01*
X105516000Y-112760518D01*
X105455684Y-112513492D01*
X105293776Y-112357297D01*
X105128321Y-112265107D01*
X104997076Y-112266903D01*
X104997076Y-112266903D01*
G37*
X104997076Y-112266903D02*
X104823318Y-112354157D01*
X104639077Y-112443800D01*
X104506957Y-112439181D01*
X104372354Y-112363791D01*
X104121360Y-112274654D01*
X103908512Y-112345857D01*
X103756219Y-112569136D01*
X103746961Y-112594355D01*
X103711491Y-112890329D01*
X103815174Y-113201822D01*
X104065706Y-113546114D01*
X104260872Y-113748000D01*
X104633750Y-114108000D01*
X104980320Y-113748000D01*
X105260490Y-113432983D01*
X105427239Y-113175381D01*
X105503722Y-112932510D01*
X105516000Y-112760518D01*
X105455684Y-112513492D01*
X105293776Y-112357297D01*
X105128321Y-112265107D01*
X104997076Y-112266903D01*
G36*
X102369544Y-113731095D02*
G01*
X102284290Y-113839072D01*
X102232023Y-113974860D01*
X102234143Y-114041095D01*
X102291105Y-114067495D01*
X102376007Y-113952023D01*
X102442078Y-113793392D01*
X102444592Y-113717369D01*
X102369544Y-113731095D01*
X102369544Y-113731095D01*
G37*
X102369544Y-113731095D02*
X102284290Y-113839072D01*
X102232023Y-113974860D01*
X102234143Y-114041095D01*
X102291105Y-114067495D01*
X102376007Y-113952023D01*
X102442078Y-113793392D01*
X102444592Y-113717369D01*
X102369544Y-113731095D01*
G36*
X101189075Y-112304725D02*
G01*
X101163660Y-112425919D01*
X101190661Y-112638347D01*
X101207290Y-112705183D01*
X101255430Y-113012146D01*
X101205606Y-113235784D01*
X101136310Y-113483813D01*
X101122211Y-113667151D01*
X101133717Y-113788595D01*
X101162123Y-113773073D01*
X101219894Y-113608542D01*
X101235872Y-113557334D01*
X101340655Y-113218667D01*
X101480392Y-113488465D01*
X101598450Y-113684916D01*
X101702102Y-113808062D01*
X101711634Y-113814816D01*
X101730877Y-113782481D01*
X101679751Y-113637799D01*
X101619921Y-113512231D01*
X101503151Y-113227989D01*
X101484146Y-112975111D01*
X101558613Y-112670851D01*
X101573960Y-112626000D01*
X101588247Y-112553564D01*
X101529481Y-112631214D01*
X101507743Y-112667022D01*
X101382456Y-112877378D01*
X101321953Y-112554865D01*
X101268074Y-112368569D01*
X101207037Y-112296595D01*
X101189075Y-112304725D01*
X101189075Y-112304725D01*
G37*
X101189075Y-112304725D02*
X101163660Y-112425919D01*
X101190661Y-112638347D01*
X101207290Y-112705183D01*
X101255430Y-113012146D01*
X101205606Y-113235784D01*
X101136310Y-113483813D01*
X101122211Y-113667151D01*
X101133717Y-113788595D01*
X101162123Y-113773073D01*
X101219894Y-113608542D01*
X101235872Y-113557334D01*
X101340655Y-113218667D01*
X101480392Y-113488465D01*
X101598450Y-113684916D01*
X101702102Y-113808062D01*
X101711634Y-113814816D01*
X101730877Y-113782481D01*
X101679751Y-113637799D01*
X101619921Y-113512231D01*
X101503151Y-113227989D01*
X101484146Y-112975111D01*
X101558613Y-112670851D01*
X101573960Y-112626000D01*
X101588247Y-112553564D01*
X101529481Y-112631214D01*
X101507743Y-112667022D01*
X101382456Y-112877378D01*
X101321953Y-112554865D01*
X101268074Y-112368569D01*
X101207037Y-112296595D01*
X101189075Y-112304725D01*
G36*
X102358485Y-113174728D02*
G01*
X102245989Y-113200855D01*
X102244977Y-113201801D01*
X102288653Y-113233052D01*
X102461915Y-113254505D01*
X102679667Y-113261000D01*
X102936203Y-113255659D01*
X103101241Y-113241790D01*
X103138278Y-113226149D01*
X103027339Y-113193543D01*
X102815901Y-113172892D01*
X102570702Y-113166014D01*
X102358485Y-113174728D01*
X102358485Y-113174728D01*
G37*
X102358485Y-113174728D02*
X102245989Y-113200855D01*
X102244977Y-113201801D01*
X102288653Y-113233052D01*
X102461915Y-113254505D01*
X102679667Y-113261000D01*
X102936203Y-113255659D01*
X103101241Y-113241790D01*
X103138278Y-113226149D01*
X103027339Y-113193543D01*
X102815901Y-113172892D01*
X102570702Y-113166014D01*
X102358485Y-113174728D01*
G36*
X102194338Y-111899193D02*
G01*
X102077888Y-111923173D01*
X102073672Y-111927500D01*
X102115154Y-111974176D01*
X102251337Y-111991000D01*
X102418896Y-112027902D01*
X102467956Y-112159293D01*
X102468000Y-112165655D01*
X102422235Y-112300115D01*
X102311644Y-112313822D01*
X102203024Y-112306383D01*
X102149259Y-112359360D01*
X102131124Y-112513294D01*
X102129333Y-112698238D01*
X102129333Y-112982143D01*
X102552229Y-112941508D01*
X102882475Y-112937381D01*
X103088250Y-112996017D01*
X103102563Y-113006637D01*
X103179878Y-113049329D01*
X103217858Y-112989573D01*
X103229619Y-112797974D01*
X103230000Y-112721034D01*
X103225886Y-112626000D01*
X103060667Y-112626000D01*
X103031684Y-112785115D01*
X102976000Y-112837667D01*
X102912354Y-112765211D01*
X102891333Y-112626000D01*
X102806667Y-112626000D01*
X102762506Y-112796239D01*
X102679667Y-112837667D01*
X102577524Y-112764066D01*
X102552667Y-112626000D01*
X102468000Y-112626000D01*
X102439018Y-112785115D01*
X102383333Y-112837667D01*
X102319688Y-112765211D01*
X102298667Y-112626000D01*
X102327649Y-112466885D01*
X102383333Y-112414334D01*
X102446979Y-112486790D01*
X102468000Y-112626000D01*
X102552667Y-112626000D01*
X102596827Y-112455762D01*
X102679667Y-112414334D01*
X102781810Y-112487934D01*
X102806667Y-112626000D01*
X102891333Y-112626000D01*
X102920316Y-112466885D01*
X102976000Y-112414334D01*
X103039646Y-112486790D01*
X103060667Y-112626000D01*
X103225886Y-112626000D01*
X103219522Y-112479002D01*
X103175760Y-112362922D01*
X103080226Y-112330060D01*
X103060667Y-112329667D01*
X102915272Y-112280039D01*
X102882193Y-112167548D01*
X102886349Y-112160334D01*
X102806667Y-112160334D01*
X102753727Y-112298238D01*
X102679667Y-112329667D01*
X102576239Y-112259081D01*
X102552667Y-112160334D01*
X102605606Y-112022429D01*
X102679667Y-111991000D01*
X102783095Y-112061586D01*
X102806667Y-112160334D01*
X102886349Y-112160334D01*
X102951768Y-112046786D01*
X103114334Y-111972342D01*
X103124167Y-111970890D01*
X103160588Y-111951935D01*
X103051027Y-111929364D01*
X102818661Y-111907291D01*
X102734836Y-111901766D01*
X102428367Y-111891472D01*
X102194338Y-111899193D01*
X102194338Y-111899193D01*
G37*
X102194338Y-111899193D02*
X102077888Y-111923173D01*
X102073672Y-111927500D01*
X102115154Y-111974176D01*
X102251337Y-111991000D01*
X102418896Y-112027902D01*
X102467956Y-112159293D01*
X102468000Y-112165655D01*
X102422235Y-112300115D01*
X102311644Y-112313822D01*
X102203024Y-112306383D01*
X102149259Y-112359360D01*
X102131124Y-112513294D01*
X102129333Y-112698238D01*
X102129333Y-112982143D01*
X102552229Y-112941508D01*
X102882475Y-112937381D01*
X103088250Y-112996017D01*
X103102563Y-113006637D01*
X103179878Y-113049329D01*
X103217858Y-112989573D01*
X103229619Y-112797974D01*
X103230000Y-112721034D01*
X103225886Y-112626000D01*
X103060667Y-112626000D01*
X103031684Y-112785115D01*
X102976000Y-112837667D01*
X102912354Y-112765211D01*
X102891333Y-112626000D01*
X102806667Y-112626000D01*
X102762506Y-112796239D01*
X102679667Y-112837667D01*
X102577524Y-112764066D01*
X102552667Y-112626000D01*
X102468000Y-112626000D01*
X102439018Y-112785115D01*
X102383333Y-112837667D01*
X102319688Y-112765211D01*
X102298667Y-112626000D01*
X102327649Y-112466885D01*
X102383333Y-112414334D01*
X102446979Y-112486790D01*
X102468000Y-112626000D01*
X102552667Y-112626000D01*
X102596827Y-112455762D01*
X102679667Y-112414334D01*
X102781810Y-112487934D01*
X102806667Y-112626000D01*
X102891333Y-112626000D01*
X102920316Y-112466885D01*
X102976000Y-112414334D01*
X103039646Y-112486790D01*
X103060667Y-112626000D01*
X103225886Y-112626000D01*
X103219522Y-112479002D01*
X103175760Y-112362922D01*
X103080226Y-112330060D01*
X103060667Y-112329667D01*
X102915272Y-112280039D01*
X102882193Y-112167548D01*
X102886349Y-112160334D01*
X102806667Y-112160334D01*
X102753727Y-112298238D01*
X102679667Y-112329667D01*
X102576239Y-112259081D01*
X102552667Y-112160334D01*
X102605606Y-112022429D01*
X102679667Y-111991000D01*
X102783095Y-112061586D01*
X102806667Y-112160334D01*
X102886349Y-112160334D01*
X102951768Y-112046786D01*
X103114334Y-111972342D01*
X103124167Y-111970890D01*
X103160588Y-111951935D01*
X103051027Y-111929364D01*
X102818661Y-111907291D01*
X102734836Y-111901766D01*
X102428367Y-111891472D01*
X102194338Y-111899193D01*
D12*
X101600000Y-120396000D03*
X99060000Y-120396000D03*
X96520000Y-120396000D03*
X93980000Y-120396000D03*
D13*
X91440000Y-120396000D03*
D14*
X130442000Y-118614000D03*
X130442000Y-121614000D03*
X124942000Y-118614000D03*
X124942000Y-121614000D03*
D12*
X105156000Y-120396000D03*
D13*
X107696000Y-120396000D03*
D15*
X111760000Y-116205000D03*
X111760000Y-114554000D03*
X107696000Y-117856000D03*
X101600000Y-117856000D03*
X99060000Y-117856000D03*
X96520000Y-117856000D03*
X93980000Y-117856000D03*
X102362000Y-105664000D03*
D16*
X130232000Y-102014000D03*
X127692000Y-102014000D03*
D17*
X125152000Y-102014000D03*
D18*
X129540000Y-116332000D03*
X129540000Y-113792000D03*
X129540000Y-111252000D03*
X129540000Y-108712000D03*
X129540000Y-106172000D03*
D19*
X116586000Y-114300000D03*
X114808000Y-112776000D03*
X113690400Y-108407200D03*
X115824000Y-107594400D03*
X108813600Y-108204000D03*
X109728000Y-110642400D03*
X99314000Y-112877600D03*
X109321600Y-120446800D03*
X125374400Y-103987600D03*
X122834400Y-104749600D03*
X114604800Y-101346000D03*
X118262400Y-119227600D03*
X110693200Y-114604800D03*
X98221900Y-100558500D03*
X96139100Y-100558500D03*
X94538800Y-103886000D03*
X101600000Y-105664000D03*
X119278400Y-100203000D03*
X118440200Y-100203000D03*
X110540800Y-112268000D03*
X119938800Y-119329200D03*
X109728000Y-116840000D03*
X126492000Y-116586000D03*
X126492000Y-113538000D03*
X126492000Y-110490000D03*
X117449600Y-106172000D03*
X118694116Y-108381800D03*
X117552500Y-111627500D03*
X109219994Y-121107200D03*
X119329200Y-108381800D03*
X117957600Y-105765600D03*
X118273200Y-112054000D03*
X110998000Y-120650000D03*
X113786500Y-112121100D03*
X113817400Y-116149110D03*
X118789200Y-112554000D03*
X110413800Y-109931200D03*
X118960900Y-113169700D03*
X110058200Y-109550200D03*
X114294500Y-115702500D03*
X117170200Y-110794800D03*
X122910600Y-108204000D03*
X123647200Y-110490000D03*
X117348000Y-115570000D03*
X123647200Y-112014000D03*
X123647200Y-113538000D03*
X122402600Y-113538000D03*
X114701000Y-119171404D03*
X113201000Y-119209000D03*
X114173000Y-120243600D03*
X123647200Y-112776000D03*
X122402600Y-112776000D03*
X112852200Y-115468400D03*
X112801400Y-116048802D03*
X114731800Y-105130600D03*
X117861500Y-115158100D03*
D20*
X101600000Y-117856000D02*
X101600000Y-120396000D01*
D21*
X109321600Y-120446800D02*
X109118400Y-120243600D01*
X109118400Y-120243600D02*
X109118400Y-119938800D01*
D20*
X102362000Y-105664000D02*
X101600000Y-105664000D01*
X105156000Y-120396000D02*
X103378000Y-122174000D01*
X91440000Y-121550800D02*
X91440000Y-120396000D01*
X92063200Y-122174000D02*
X91440000Y-121550800D01*
X103378000Y-122174000D02*
X92063200Y-122174000D01*
D22*
X118440200Y-100203000D02*
X119862600Y-100203000D01*
X125831600Y-106172000D02*
X129540000Y-106172000D01*
X119862600Y-100203000D02*
X125831600Y-106172000D01*
D20*
X124712200Y-121843800D02*
X124942000Y-121614000D01*
X105156000Y-120396000D02*
X106603800Y-121843800D01*
X119938800Y-121843800D02*
X119938800Y-119329200D01*
X119938800Y-121843800D02*
X124712200Y-121843800D01*
X106603800Y-121843800D02*
X119938800Y-121843800D01*
X109728000Y-113080800D02*
X109728000Y-116840000D01*
X110540800Y-112268000D02*
X109728000Y-113080800D01*
D23*
X99060000Y-117856000D02*
X99060000Y-120396000D01*
D20*
X129286000Y-116586000D02*
X129540000Y-116332000D01*
X126492000Y-116586000D02*
X129286000Y-116586000D01*
X129286000Y-113538000D02*
X129540000Y-113792000D01*
X126492000Y-113538000D02*
X129286000Y-113538000D01*
X126492000Y-110490000D02*
X127254000Y-111252000D01*
X127254000Y-111252000D02*
X129540000Y-111252000D01*
D23*
X96520000Y-117856000D02*
X96520000Y-120396000D01*
X117449600Y-107137284D02*
X118694116Y-108381800D01*
X117449600Y-106172000D02*
X117449600Y-107137284D01*
X117552500Y-111627500D02*
X114833400Y-114346600D01*
X114833400Y-114346600D02*
X114833400Y-115781162D01*
X109507362Y-121107200D02*
X109219994Y-121107200D01*
X114833400Y-115781162D02*
X109507362Y-121107200D01*
X93980000Y-118563106D02*
X93980000Y-120396000D01*
X93980000Y-117856000D02*
X93980000Y-118563106D01*
X117957600Y-107010200D02*
X117957600Y-105765600D01*
X119329200Y-108381800D02*
X117957600Y-107010200D01*
X110998000Y-120116600D02*
X110998000Y-120650000D01*
X115265200Y-115849400D02*
X110998000Y-120116600D01*
X115265200Y-114427000D02*
X115265200Y-115849400D01*
X118273200Y-112054000D02*
X117638200Y-112054000D01*
X117638200Y-112054000D02*
X115265200Y-114427000D01*
X113786500Y-112121100D02*
X113817400Y-112152000D01*
X113817400Y-112152000D02*
X113817400Y-116149110D01*
X107696000Y-118563106D02*
X107696000Y-120396000D01*
X107696000Y-117856000D02*
X107696000Y-118563106D01*
X110701168Y-109931200D02*
X110413800Y-109931200D01*
X117602000Y-109931200D02*
X110701168Y-109931200D01*
X118789200Y-111118400D02*
X117602000Y-109931200D01*
X118789200Y-112554000D02*
X118789200Y-111118400D01*
X118960900Y-113169700D02*
X119176800Y-112953800D01*
X119176800Y-112953800D02*
X119176800Y-111074200D01*
X117652800Y-109550200D02*
X110345568Y-109550200D01*
X110345568Y-109550200D02*
X110058200Y-109550200D01*
X119176800Y-111074200D02*
X117652800Y-109550200D01*
X123647200Y-108940600D02*
X122910600Y-108204000D01*
X123647200Y-110490000D02*
X123647200Y-108940600D01*
X117170200Y-111480600D02*
X117170200Y-110794800D01*
X114294500Y-115702500D02*
X114294500Y-114356300D01*
X114294500Y-114356300D02*
X117170200Y-111480600D01*
X122529600Y-112014000D02*
X123647200Y-112014000D01*
X117348000Y-115570000D02*
X118973600Y-115570000D01*
X118973600Y-115570000D02*
X122529600Y-112014000D01*
X123647200Y-113538000D02*
X122402600Y-113538000D01*
X114701000Y-119715600D02*
X114173000Y-120243600D01*
X114701000Y-119171404D02*
X114701000Y-119715600D01*
X113201000Y-119271600D02*
X114173000Y-120243600D01*
X113201000Y-119209000D02*
X113201000Y-119271600D01*
X123647200Y-112776000D02*
X122402600Y-112776000D01*
D24*
X112674400Y-115468400D02*
X112852200Y-115468400D01*
X111760000Y-114554000D02*
X112674400Y-115468400D01*
X112645202Y-116205000D02*
X112801400Y-116048802D01*
X111760000Y-116205000D02*
X112645202Y-116205000D01*
D23*
X118801300Y-115158100D02*
X117861500Y-115158100D01*
X120396000Y-113563400D02*
X118801300Y-115158100D01*
X114731800Y-105130600D02*
X120396000Y-110794800D01*
X120396000Y-110794800D02*
X120396000Y-113563400D01*
D20*
G36*
X117739291Y-100342420D02*
G01*
X117779958Y-100476481D01*
X117845998Y-100600033D01*
X117934873Y-100708327D01*
X118043167Y-100797202D01*
X118166719Y-100863242D01*
X118300780Y-100903909D01*
X118405264Y-100914200D01*
X119568013Y-100914200D01*
X125304003Y-106650191D01*
X125326273Y-106677327D01*
X125353409Y-106699597D01*
X125434567Y-106766202D01*
X125558118Y-106832242D01*
X125689183Y-106872000D01*
X125692180Y-106872909D01*
X125796664Y-106883200D01*
X125796671Y-106883200D01*
X125831600Y-106886640D01*
X125866528Y-106883200D01*
X127181691Y-106883200D01*
X127189415Y-106961627D01*
X127215559Y-107047809D01*
X127258013Y-107127236D01*
X127315147Y-107196853D01*
X127384764Y-107253987D01*
X127464191Y-107296441D01*
X127550373Y-107322585D01*
X127640000Y-107331412D01*
X131165600Y-107331412D01*
X131165600Y-107348922D01*
X129743200Y-107351600D01*
X129578100Y-107516700D01*
X129578100Y-108673900D01*
X129598100Y-108673900D01*
X129598100Y-108750100D01*
X129578100Y-108750100D01*
X129578100Y-109907300D01*
X129743200Y-110072400D01*
X131165600Y-110075078D01*
X131165600Y-110092588D01*
X127640000Y-110092588D01*
X127550373Y-110101415D01*
X127464191Y-110127559D01*
X127384764Y-110170013D01*
X127315147Y-110227147D01*
X127258013Y-110296764D01*
X127224175Y-110360072D01*
X127102661Y-110238558D01*
X127077239Y-110177183D01*
X127004966Y-110069020D01*
X126912980Y-109977034D01*
X126804817Y-109904761D01*
X126684631Y-109854979D01*
X126557044Y-109829600D01*
X126426956Y-109829600D01*
X126299369Y-109854979D01*
X126179183Y-109904761D01*
X126071020Y-109977034D01*
X125979034Y-110069020D01*
X125906761Y-110177183D01*
X125856979Y-110297369D01*
X125831600Y-110424956D01*
X125831600Y-110555044D01*
X125856979Y-110682631D01*
X125906761Y-110802817D01*
X125979034Y-110910980D01*
X126071020Y-111002966D01*
X126179183Y-111075239D01*
X126240558Y-111100661D01*
X126801769Y-111661873D01*
X126820862Y-111685138D01*
X126913686Y-111761316D01*
X126958430Y-111785232D01*
X127019587Y-111817921D01*
X127134497Y-111852779D01*
X127180588Y-111857319D01*
X127180588Y-111952000D01*
X127189415Y-112041627D01*
X127215559Y-112127809D01*
X127258013Y-112207236D01*
X127315147Y-112276853D01*
X127384764Y-112333987D01*
X127464191Y-112376441D01*
X127550373Y-112402585D01*
X127640000Y-112411412D01*
X131165600Y-112411412D01*
X131165600Y-112632588D01*
X127640000Y-112632588D01*
X127550373Y-112641415D01*
X127464191Y-112667559D01*
X127384764Y-112710013D01*
X127315147Y-112767147D01*
X127258013Y-112836764D01*
X127215559Y-112916191D01*
X127211855Y-112928400D01*
X126746004Y-112928400D01*
X126684631Y-112902979D01*
X126557044Y-112877600D01*
X126426956Y-112877600D01*
X126299369Y-112902979D01*
X126179183Y-112952761D01*
X126071020Y-113025034D01*
X125979034Y-113117020D01*
X125906761Y-113225183D01*
X125856979Y-113345369D01*
X125831600Y-113472956D01*
X125831600Y-113603044D01*
X125856979Y-113730631D01*
X125906761Y-113850817D01*
X125979034Y-113958980D01*
X126071020Y-114050966D01*
X126179183Y-114123239D01*
X126299369Y-114173021D01*
X126426956Y-114198400D01*
X126557044Y-114198400D01*
X126684631Y-114173021D01*
X126746004Y-114147600D01*
X127180588Y-114147600D01*
X127180588Y-114492000D01*
X127189415Y-114581627D01*
X127215559Y-114667809D01*
X127258013Y-114747236D01*
X127315147Y-114816853D01*
X127384764Y-114873987D01*
X127464191Y-114916441D01*
X127550373Y-114942585D01*
X127640000Y-114951412D01*
X131165600Y-114951412D01*
X131165600Y-115172588D01*
X127640000Y-115172588D01*
X127550373Y-115181415D01*
X127464191Y-115207559D01*
X127384764Y-115250013D01*
X127315147Y-115307147D01*
X127258013Y-115376764D01*
X127215559Y-115456191D01*
X127189415Y-115542373D01*
X127180588Y-115632000D01*
X127180588Y-115976400D01*
X126746004Y-115976400D01*
X126684631Y-115950979D01*
X126557044Y-115925600D01*
X126426956Y-115925600D01*
X126299369Y-115950979D01*
X126179183Y-116000761D01*
X126071020Y-116073034D01*
X125979034Y-116165020D01*
X125906761Y-116273183D01*
X125856979Y-116393369D01*
X125831600Y-116520956D01*
X125831600Y-116651044D01*
X125856979Y-116778631D01*
X125906761Y-116898817D01*
X125979034Y-117006980D01*
X126071020Y-117098966D01*
X126179183Y-117171239D01*
X126299369Y-117221021D01*
X126426956Y-117246400D01*
X126557044Y-117246400D01*
X126684631Y-117221021D01*
X126746004Y-117195600D01*
X127211855Y-117195600D01*
X127215559Y-117207809D01*
X127258013Y-117287236D01*
X127315147Y-117356853D01*
X127384764Y-117413987D01*
X127464191Y-117456441D01*
X127550373Y-117482585D01*
X127640000Y-117491412D01*
X129769174Y-117491412D01*
X129608709Y-117598631D01*
X129426631Y-117780709D01*
X129283574Y-117994809D01*
X129185035Y-118232704D01*
X129134800Y-118485252D01*
X129134800Y-118742748D01*
X129185035Y-118995296D01*
X129283574Y-119233191D01*
X129426631Y-119447291D01*
X129608709Y-119629369D01*
X129822809Y-119772426D01*
X130060704Y-119870965D01*
X130313252Y-119921200D01*
X130570748Y-119921200D01*
X130823296Y-119870965D01*
X131061191Y-119772426D01*
X131165600Y-119702662D01*
X131165600Y-119883395D01*
X131147916Y-120175757D01*
X131095949Y-120459328D01*
X131090927Y-120475443D01*
X131061191Y-120455574D01*
X130823296Y-120357035D01*
X130570748Y-120306800D01*
X130313252Y-120306800D01*
X130060704Y-120357035D01*
X129822809Y-120455574D01*
X129608709Y-120598631D01*
X129426631Y-120780709D01*
X129283574Y-120994809D01*
X129185035Y-121232704D01*
X129134800Y-121485252D01*
X129134800Y-121742748D01*
X129185035Y-121995296D01*
X129277725Y-122219071D01*
X129065757Y-122257916D01*
X128773395Y-122275600D01*
X126072089Y-122275600D01*
X126100426Y-122233191D01*
X126198965Y-121995296D01*
X126249200Y-121742748D01*
X126249200Y-121485252D01*
X126198965Y-121232704D01*
X126100426Y-120994809D01*
X125957369Y-120780709D01*
X125775291Y-120598631D01*
X125561191Y-120455574D01*
X125323296Y-120357035D01*
X125070748Y-120306800D01*
X124813252Y-120306800D01*
X124560704Y-120357035D01*
X124322809Y-120455574D01*
X124108709Y-120598631D01*
X123926631Y-120780709D01*
X123783574Y-120994809D01*
X123685035Y-121232704D01*
X123684737Y-121234200D01*
X120548400Y-121234200D01*
X120548400Y-119583204D01*
X120573821Y-119521831D01*
X120599200Y-119394244D01*
X120599200Y-119264156D01*
X120573821Y-119136569D01*
X120524039Y-119016383D01*
X120451766Y-118908220D01*
X120359780Y-118816234D01*
X120251617Y-118743961D01*
X120131431Y-118694179D01*
X120003844Y-118668800D01*
X119873756Y-118668800D01*
X119746169Y-118694179D01*
X119625983Y-118743961D01*
X119517820Y-118816234D01*
X119425834Y-118908220D01*
X119353561Y-119016383D01*
X119303779Y-119136569D01*
X119278400Y-119264156D01*
X119278400Y-119394244D01*
X119303779Y-119521831D01*
X119329201Y-119583206D01*
X119329200Y-121234200D01*
X111312372Y-121234200D01*
X111418980Y-121162966D01*
X111510966Y-121070980D01*
X111583239Y-120962817D01*
X111633021Y-120842631D01*
X111658400Y-120715044D01*
X111658400Y-120584956D01*
X111633021Y-120457369D01*
X111583239Y-120337183D01*
X111562618Y-120306323D01*
X112549609Y-119319333D01*
X112565979Y-119401631D01*
X112615761Y-119521817D01*
X112688034Y-119629980D01*
X112780020Y-119721966D01*
X112888183Y-119794239D01*
X113008369Y-119844021D01*
X113021740Y-119846681D01*
X113519775Y-120344716D01*
X113537979Y-120436231D01*
X113587761Y-120556417D01*
X113660034Y-120664580D01*
X113752020Y-120756566D01*
X113860183Y-120828839D01*
X113980369Y-120878621D01*
X114107956Y-120904000D01*
X114238044Y-120904000D01*
X114365631Y-120878621D01*
X114485817Y-120828839D01*
X114593980Y-120756566D01*
X114685966Y-120664580D01*
X114758239Y-120556417D01*
X114808021Y-120436231D01*
X114826225Y-120344716D01*
X115059645Y-120111296D01*
X115079995Y-120094595D01*
X115146651Y-120013375D01*
X115196181Y-119920711D01*
X115226681Y-119820165D01*
X115234400Y-119741795D01*
X115234400Y-119741794D01*
X115236980Y-119715600D01*
X115234400Y-119689406D01*
X115234400Y-119561803D01*
X115286239Y-119484221D01*
X115336021Y-119364035D01*
X115361400Y-119236448D01*
X115361400Y-119106360D01*
X115336021Y-118978773D01*
X115286239Y-118858587D01*
X115213966Y-118750424D01*
X115121980Y-118658438D01*
X115013817Y-118586165D01*
X114893631Y-118536383D01*
X114766044Y-118511004D01*
X114635956Y-118511004D01*
X114508369Y-118536383D01*
X114388183Y-118586165D01*
X114280020Y-118658438D01*
X114188034Y-118750424D01*
X114115761Y-118858587D01*
X114065979Y-118978773D01*
X114040600Y-119106360D01*
X114040600Y-119236448D01*
X114065979Y-119364035D01*
X114078850Y-119395109D01*
X113861400Y-119177659D01*
X113861400Y-119143956D01*
X113836021Y-119016369D01*
X113786239Y-118896183D01*
X113713966Y-118788020D01*
X113621980Y-118696034D01*
X113513817Y-118623761D01*
X113393631Y-118573979D01*
X113311333Y-118557609D01*
X113383690Y-118485252D01*
X123634800Y-118485252D01*
X123634800Y-118742748D01*
X123685035Y-118995296D01*
X123783574Y-119233191D01*
X123926631Y-119447291D01*
X124108709Y-119629369D01*
X124322809Y-119772426D01*
X124560704Y-119870965D01*
X124813252Y-119921200D01*
X125070748Y-119921200D01*
X125323296Y-119870965D01*
X125561191Y-119772426D01*
X125775291Y-119629369D01*
X125957369Y-119447291D01*
X126100426Y-119233191D01*
X126198965Y-118995296D01*
X126249200Y-118742748D01*
X126249200Y-118485252D01*
X126198965Y-118232704D01*
X126100426Y-117994809D01*
X125957369Y-117780709D01*
X125775291Y-117598631D01*
X125561191Y-117455574D01*
X125323296Y-117357035D01*
X125070748Y-117306800D01*
X124813252Y-117306800D01*
X124560704Y-117357035D01*
X124322809Y-117455574D01*
X124108709Y-117598631D01*
X123926631Y-117780709D01*
X123783574Y-117994809D01*
X123685035Y-118232704D01*
X123634800Y-118485252D01*
X113383690Y-118485252D01*
X115623851Y-116245091D01*
X115644195Y-116228395D01*
X115710851Y-116147175D01*
X115760381Y-116054511D01*
X115790881Y-115953965D01*
X115798600Y-115875595D01*
X115798600Y-115875588D01*
X115801179Y-115849401D01*
X115798600Y-115823214D01*
X115798600Y-114647941D01*
X117859141Y-112587400D01*
X117882801Y-112587400D01*
X117960383Y-112639239D01*
X118080569Y-112689021D01*
X118145280Y-112701893D01*
X118154179Y-112746631D01*
X118203961Y-112866817D01*
X118276234Y-112974980D01*
X118317989Y-113016735D01*
X118300500Y-113104656D01*
X118300500Y-113234744D01*
X118325879Y-113362331D01*
X118375661Y-113482517D01*
X118447934Y-113590680D01*
X118539920Y-113682666D01*
X118648083Y-113754939D01*
X118768269Y-113804721D01*
X118895856Y-113830100D01*
X119025944Y-113830100D01*
X119153531Y-113804721D01*
X119273717Y-113754939D01*
X119381880Y-113682666D01*
X119473866Y-113590680D01*
X119546139Y-113482517D01*
X119595921Y-113362331D01*
X119616513Y-113258811D01*
X119622451Y-113251575D01*
X119671981Y-113158911D01*
X119702481Y-113058365D01*
X119710200Y-112979995D01*
X119710200Y-112979994D01*
X119712780Y-112953800D01*
X119710200Y-112927606D01*
X119710200Y-111100386D01*
X119712779Y-111074199D01*
X119710200Y-111048012D01*
X119710200Y-111048005D01*
X119702481Y-110969635D01*
X119671981Y-110869089D01*
X119622451Y-110776425D01*
X119618643Y-110771785D01*
X119862600Y-111015742D01*
X119862601Y-113342457D01*
X118580359Y-114624700D01*
X118251899Y-114624700D01*
X118174317Y-114572861D01*
X118054131Y-114523079D01*
X117926544Y-114497700D01*
X117796456Y-114497700D01*
X117668869Y-114523079D01*
X117548683Y-114572861D01*
X117440520Y-114645134D01*
X117348534Y-114737120D01*
X117276261Y-114845283D01*
X117246627Y-114916826D01*
X117155369Y-114934979D01*
X117035183Y-114984761D01*
X116927020Y-115057034D01*
X116835034Y-115149020D01*
X116762761Y-115257183D01*
X116712979Y-115377369D01*
X116687600Y-115504956D01*
X116687600Y-115635044D01*
X116712979Y-115762631D01*
X116762761Y-115882817D01*
X116835034Y-115990980D01*
X116927020Y-116082966D01*
X117035183Y-116155239D01*
X117155369Y-116205021D01*
X117282956Y-116230400D01*
X117413044Y-116230400D01*
X117540631Y-116205021D01*
X117660817Y-116155239D01*
X117738399Y-116103400D01*
X118947413Y-116103400D01*
X118973600Y-116105979D01*
X118999787Y-116103400D01*
X118999795Y-116103400D01*
X119078165Y-116095681D01*
X119178711Y-116065181D01*
X119271375Y-116015651D01*
X119352595Y-115948995D01*
X119369296Y-115928645D01*
X121742200Y-113555742D01*
X121742200Y-113603044D01*
X121767579Y-113730631D01*
X121817361Y-113850817D01*
X121889634Y-113958980D01*
X121981620Y-114050966D01*
X122089783Y-114123239D01*
X122209969Y-114173021D01*
X122337556Y-114198400D01*
X122467644Y-114198400D01*
X122595231Y-114173021D01*
X122715417Y-114123239D01*
X122792999Y-114071400D01*
X123256801Y-114071400D01*
X123334383Y-114123239D01*
X123454569Y-114173021D01*
X123582156Y-114198400D01*
X123712244Y-114198400D01*
X123839831Y-114173021D01*
X123960017Y-114123239D01*
X124068180Y-114050966D01*
X124160166Y-113958980D01*
X124232439Y-113850817D01*
X124282221Y-113730631D01*
X124307600Y-113603044D01*
X124307600Y-113472956D01*
X124282221Y-113345369D01*
X124232439Y-113225183D01*
X124186880Y-113157000D01*
X124232439Y-113088817D01*
X124282221Y-112968631D01*
X124307600Y-112841044D01*
X124307600Y-112710956D01*
X124282221Y-112583369D01*
X124232439Y-112463183D01*
X124186880Y-112395000D01*
X124232439Y-112326817D01*
X124282221Y-112206631D01*
X124307600Y-112079044D01*
X124307600Y-111948956D01*
X124282221Y-111821369D01*
X124232439Y-111701183D01*
X124160166Y-111593020D01*
X124068180Y-111501034D01*
X123960017Y-111428761D01*
X123839831Y-111378979D01*
X123712244Y-111353600D01*
X123582156Y-111353600D01*
X123454569Y-111378979D01*
X123334383Y-111428761D01*
X123256801Y-111480600D01*
X122555786Y-111480600D01*
X122529599Y-111478021D01*
X122503412Y-111480600D01*
X122503405Y-111480600D01*
X122425035Y-111488319D01*
X122324489Y-111518819D01*
X122231825Y-111568349D01*
X122188922Y-111603559D01*
X122171020Y-111618251D01*
X122150605Y-111635005D01*
X122133909Y-111655349D01*
X120929400Y-112859858D01*
X120929400Y-110820986D01*
X120931979Y-110794799D01*
X120929400Y-110768612D01*
X120929400Y-110768605D01*
X120921681Y-110690235D01*
X120891181Y-110589689D01*
X120841651Y-110497025D01*
X120804698Y-110451998D01*
X120791693Y-110436151D01*
X120791691Y-110436149D01*
X120774995Y-110415805D01*
X120754651Y-110399109D01*
X119397161Y-109041620D01*
X119521831Y-109016821D01*
X119642017Y-108967039D01*
X119750180Y-108894766D01*
X119842166Y-108802780D01*
X119914439Y-108694617D01*
X119964221Y-108574431D01*
X119989600Y-108446844D01*
X119989600Y-108316756D01*
X119964221Y-108189169D01*
X119943423Y-108138956D01*
X122250200Y-108138956D01*
X122250200Y-108269044D01*
X122275579Y-108396631D01*
X122325361Y-108516817D01*
X122397634Y-108624980D01*
X122489620Y-108716966D01*
X122597783Y-108789239D01*
X122717969Y-108839021D01*
X122809484Y-108857225D01*
X123113801Y-109161542D01*
X123113800Y-110099601D01*
X123061961Y-110177183D01*
X123012179Y-110297369D01*
X122986800Y-110424956D01*
X122986800Y-110555044D01*
X123012179Y-110682631D01*
X123061961Y-110802817D01*
X123134234Y-110910980D01*
X123226220Y-111002966D01*
X123334383Y-111075239D01*
X123454569Y-111125021D01*
X123582156Y-111150400D01*
X123712244Y-111150400D01*
X123839831Y-111125021D01*
X123960017Y-111075239D01*
X124068180Y-111002966D01*
X124160166Y-110910980D01*
X124232439Y-110802817D01*
X124282221Y-110682631D01*
X124307600Y-110555044D01*
X124307600Y-110424956D01*
X124282221Y-110297369D01*
X124232439Y-110177183D01*
X124180600Y-110099601D01*
X124180600Y-109412000D01*
X126976405Y-109412000D01*
X126989156Y-109541461D01*
X127026918Y-109665947D01*
X127088241Y-109780674D01*
X127170767Y-109881233D01*
X127271326Y-109963759D01*
X127386053Y-110025082D01*
X127510539Y-110062844D01*
X127640000Y-110075595D01*
X129336800Y-110072400D01*
X129501900Y-109907300D01*
X129501900Y-108750100D01*
X127144700Y-108750100D01*
X126979600Y-108915200D01*
X126976405Y-109412000D01*
X124180600Y-109412000D01*
X124180600Y-108966794D01*
X124183180Y-108940600D01*
X124178666Y-108894766D01*
X124172881Y-108836035D01*
X124142381Y-108735489D01*
X124092851Y-108642825D01*
X124026195Y-108561605D01*
X124005845Y-108544904D01*
X123563825Y-108102884D01*
X123545747Y-108012000D01*
X126976405Y-108012000D01*
X126979600Y-108508800D01*
X127144700Y-108673900D01*
X129501900Y-108673900D01*
X129501900Y-107516700D01*
X129336800Y-107351600D01*
X127640000Y-107348405D01*
X127510539Y-107361156D01*
X127386053Y-107398918D01*
X127271326Y-107460241D01*
X127170767Y-107542767D01*
X127088241Y-107643326D01*
X127026918Y-107758053D01*
X126989156Y-107882539D01*
X126976405Y-108012000D01*
X123545747Y-108012000D01*
X123545621Y-108011369D01*
X123495839Y-107891183D01*
X123423566Y-107783020D01*
X123331580Y-107691034D01*
X123223417Y-107618761D01*
X123103231Y-107568979D01*
X122975644Y-107543600D01*
X122845556Y-107543600D01*
X122717969Y-107568979D01*
X122597783Y-107618761D01*
X122489620Y-107691034D01*
X122397634Y-107783020D01*
X122325361Y-107891183D01*
X122275579Y-108011369D01*
X122250200Y-108138956D01*
X119943423Y-108138956D01*
X119914439Y-108068983D01*
X119842166Y-107960820D01*
X119750180Y-107868834D01*
X119642017Y-107796561D01*
X119521831Y-107746779D01*
X119430317Y-107728576D01*
X118491000Y-106789259D01*
X118491000Y-106155999D01*
X118542839Y-106078417D01*
X118592621Y-105958231D01*
X118618000Y-105830644D01*
X118618000Y-105700556D01*
X118592621Y-105572969D01*
X118542839Y-105452783D01*
X118470566Y-105344620D01*
X118378580Y-105252634D01*
X118270417Y-105180361D01*
X118150231Y-105130579D01*
X118022644Y-105105200D01*
X117892556Y-105105200D01*
X117764969Y-105130579D01*
X117644783Y-105180361D01*
X117536620Y-105252634D01*
X117444634Y-105344620D01*
X117372361Y-105452783D01*
X117344716Y-105519525D01*
X117256969Y-105536979D01*
X117136783Y-105586761D01*
X117028620Y-105659034D01*
X116936634Y-105751020D01*
X116864361Y-105859183D01*
X116814579Y-105979369D01*
X116789200Y-106106956D01*
X116789200Y-106237044D01*
X116814579Y-106364631D01*
X116864361Y-106484817D01*
X116912696Y-106557155D01*
X115385025Y-105029484D01*
X115366821Y-104937969D01*
X115317039Y-104817783D01*
X115244766Y-104709620D01*
X115152780Y-104617634D01*
X115044617Y-104545361D01*
X114924431Y-104495579D01*
X114796844Y-104470200D01*
X114666756Y-104470200D01*
X114539169Y-104495579D01*
X114418983Y-104545361D01*
X114310820Y-104617634D01*
X114218834Y-104709620D01*
X114146561Y-104817783D01*
X114096779Y-104937969D01*
X114071400Y-105065556D01*
X114071400Y-105195644D01*
X114096779Y-105323231D01*
X114146561Y-105443417D01*
X114218834Y-105551580D01*
X114310820Y-105643566D01*
X114418983Y-105715839D01*
X114539169Y-105765621D01*
X114630684Y-105783825D01*
X117955217Y-109108359D01*
X117950575Y-109104549D01*
X117857911Y-109055019D01*
X117757365Y-109024519D01*
X117678995Y-109016800D01*
X117678987Y-109016800D01*
X117652800Y-109014221D01*
X117626613Y-109016800D01*
X110448599Y-109016800D01*
X110371017Y-108964961D01*
X110250831Y-108915179D01*
X110123244Y-108889800D01*
X109993156Y-108889800D01*
X109865569Y-108915179D01*
X109745383Y-108964961D01*
X109637220Y-109037234D01*
X109545234Y-109129220D01*
X109472961Y-109237383D01*
X109423179Y-109357569D01*
X109397800Y-109485156D01*
X109397800Y-109615244D01*
X109423179Y-109742831D01*
X109472961Y-109863017D01*
X109545234Y-109971180D01*
X109637220Y-110063166D01*
X109745383Y-110135439D01*
X109791499Y-110154541D01*
X109828561Y-110244017D01*
X109900834Y-110352180D01*
X109992820Y-110444166D01*
X110100983Y-110516439D01*
X110221169Y-110566221D01*
X110348756Y-110591600D01*
X110478844Y-110591600D01*
X110606431Y-110566221D01*
X110726617Y-110516439D01*
X110804199Y-110464600D01*
X116596576Y-110464600D01*
X116584961Y-110481983D01*
X116535179Y-110602169D01*
X116509800Y-110729756D01*
X116509800Y-110859844D01*
X116535179Y-110987431D01*
X116584961Y-111107617D01*
X116636800Y-111185199D01*
X116636800Y-111259658D01*
X114350800Y-113545659D01*
X114350800Y-112465254D01*
X114371739Y-112433917D01*
X114421521Y-112313731D01*
X114446900Y-112186144D01*
X114446900Y-112056056D01*
X114421521Y-111928469D01*
X114371739Y-111808283D01*
X114299466Y-111700120D01*
X114207480Y-111608134D01*
X114099317Y-111535861D01*
X113979131Y-111486079D01*
X113851544Y-111460700D01*
X113721456Y-111460700D01*
X113593869Y-111486079D01*
X113473683Y-111535861D01*
X113365520Y-111608134D01*
X113273534Y-111700120D01*
X113201261Y-111808283D01*
X113151479Y-111928469D01*
X113126100Y-112056056D01*
X113126100Y-112186144D01*
X113151479Y-112313731D01*
X113201261Y-112433917D01*
X113273534Y-112542080D01*
X113284000Y-112552546D01*
X113284001Y-114966255D01*
X113273180Y-114955434D01*
X113165017Y-114883161D01*
X113044831Y-114833379D01*
X112917244Y-114808000D01*
X112787156Y-114808000D01*
X112741501Y-114817081D01*
X112693225Y-114768805D01*
X112717200Y-114648276D01*
X112717200Y-114459724D01*
X112680415Y-114274795D01*
X112608259Y-114100596D01*
X112503505Y-113943821D01*
X112370179Y-113810495D01*
X112213404Y-113705741D01*
X112039205Y-113633585D01*
X111854276Y-113596800D01*
X111665724Y-113596800D01*
X111480795Y-113633585D01*
X111306596Y-113705741D01*
X111149821Y-113810495D01*
X111016495Y-113943821D01*
X110911741Y-114100596D01*
X110839585Y-114274795D01*
X110802800Y-114459724D01*
X110802800Y-114648276D01*
X110839585Y-114833205D01*
X110911741Y-115007404D01*
X111016495Y-115164179D01*
X111149821Y-115297505D01*
X111272535Y-115379500D01*
X111149821Y-115461495D01*
X111016495Y-115594821D01*
X110911741Y-115751596D01*
X110839585Y-115925795D01*
X110802800Y-116110724D01*
X110802800Y-116299276D01*
X110839585Y-116484205D01*
X110911741Y-116658404D01*
X111016495Y-116815179D01*
X111149821Y-116948505D01*
X111306596Y-117053259D01*
X111480795Y-117125415D01*
X111665724Y-117162200D01*
X111854276Y-117162200D01*
X112039205Y-117125415D01*
X112213404Y-117053259D01*
X112370179Y-116948505D01*
X112503505Y-116815179D01*
X112571779Y-116713000D01*
X112620258Y-116713000D01*
X112645202Y-116715457D01*
X112670146Y-116713000D01*
X112670149Y-116713000D01*
X112727201Y-116707381D01*
X112736356Y-116709202D01*
X112866444Y-116709202D01*
X112994031Y-116683823D01*
X113114217Y-116634041D01*
X113222380Y-116561768D01*
X113268234Y-116515914D01*
X113298705Y-116561516D01*
X109392121Y-120468100D01*
X109285038Y-120446800D01*
X109154950Y-120446800D01*
X109027363Y-120472179D01*
X109005412Y-120481271D01*
X109005412Y-119546000D01*
X108996585Y-119456373D01*
X108970441Y-119370191D01*
X108927987Y-119290764D01*
X108870853Y-119221147D01*
X108801236Y-119164013D01*
X108721809Y-119121559D01*
X108635627Y-119095415D01*
X108546000Y-119086588D01*
X108229400Y-119086588D01*
X108229400Y-118650807D01*
X108306179Y-118599505D01*
X108439505Y-118466179D01*
X108544259Y-118309404D01*
X108616415Y-118135205D01*
X108653200Y-117950276D01*
X108653200Y-117761724D01*
X108616415Y-117576795D01*
X108544259Y-117402596D01*
X108439892Y-117246400D01*
X108712000Y-117246400D01*
X108741732Y-117243472D01*
X108770321Y-117234799D01*
X108796669Y-117220716D01*
X108819763Y-117201763D01*
X108838716Y-117178669D01*
X108852799Y-117152321D01*
X108861472Y-117123732D01*
X108864400Y-117094000D01*
X108864400Y-116774956D01*
X109067600Y-116774956D01*
X109067600Y-116905044D01*
X109092979Y-117032631D01*
X109142761Y-117152817D01*
X109215034Y-117260980D01*
X109307020Y-117352966D01*
X109415183Y-117425239D01*
X109535369Y-117475021D01*
X109662956Y-117500400D01*
X109793044Y-117500400D01*
X109920631Y-117475021D01*
X110040817Y-117425239D01*
X110148980Y-117352966D01*
X110240966Y-117260980D01*
X110313239Y-117152817D01*
X110363021Y-117032631D01*
X110388400Y-116905044D01*
X110388400Y-116774956D01*
X110363021Y-116647369D01*
X110337600Y-116585996D01*
X110337600Y-113333303D01*
X110792243Y-112878660D01*
X110853617Y-112853239D01*
X110961780Y-112780966D01*
X111053766Y-112688980D01*
X111126039Y-112580817D01*
X111175821Y-112460631D01*
X111201200Y-112333044D01*
X111201200Y-112202956D01*
X111175821Y-112075369D01*
X111126039Y-111955183D01*
X111053766Y-111847020D01*
X110961780Y-111755034D01*
X110853617Y-111682761D01*
X110733431Y-111632979D01*
X110605844Y-111607600D01*
X110475756Y-111607600D01*
X110348169Y-111632979D01*
X110227983Y-111682761D01*
X110119820Y-111755034D01*
X110027834Y-111847020D01*
X109955561Y-111955183D01*
X109930140Y-112016557D01*
X109318132Y-112628565D01*
X109294862Y-112647662D01*
X109218684Y-112740487D01*
X109162079Y-112846389D01*
X109141120Y-112915482D01*
X109127221Y-112961298D01*
X109115451Y-113080800D01*
X109118400Y-113110742D01*
X109118401Y-116585994D01*
X109092979Y-116647369D01*
X109067600Y-116774956D01*
X108864400Y-116774956D01*
X108864400Y-114522238D01*
X108866304Y-114518990D01*
X108888328Y-114482259D01*
X108889106Y-114480093D01*
X108890265Y-114478115D01*
X108904316Y-114437719D01*
X108918804Y-114397358D01*
X108919146Y-114395085D01*
X108919900Y-114392916D01*
X108925845Y-114350510D01*
X108932210Y-114308155D01*
X108932104Y-114305861D01*
X108932423Y-114303583D01*
X108930015Y-114260788D01*
X108928034Y-114218045D01*
X108927484Y-114215816D01*
X108927355Y-114213520D01*
X108916680Y-114172006D01*
X108906435Y-114130464D01*
X108905463Y-114128385D01*
X108904890Y-114126156D01*
X108886356Y-114087509D01*
X108868236Y-114048745D01*
X108865927Y-114044911D01*
X108865884Y-114044821D01*
X108865827Y-114044745D01*
X108864907Y-114043217D01*
X108864400Y-114042388D01*
X108864400Y-110744000D01*
X108861472Y-110714268D01*
X108852799Y-110685679D01*
X108838716Y-110659331D01*
X108819763Y-110636237D01*
X108796669Y-110617284D01*
X108770321Y-110603201D01*
X108741732Y-110594528D01*
X108712000Y-110591600D01*
X100330000Y-110591600D01*
X100300268Y-110594528D01*
X100271679Y-110603201D01*
X100245331Y-110617284D01*
X100222237Y-110636237D01*
X100203284Y-110659331D01*
X100189201Y-110685679D01*
X100180528Y-110714268D01*
X100177600Y-110744000D01*
X100177600Y-113758848D01*
X100176361Y-113764444D01*
X100171448Y-113777826D01*
X100166629Y-113808396D01*
X100159941Y-113838597D01*
X100159621Y-113852845D01*
X100157400Y-113866932D01*
X100157067Y-113873377D01*
X100149545Y-114041673D01*
X100150085Y-114051845D01*
X100149084Y-114061986D01*
X100149125Y-114068439D01*
X100151870Y-114275422D01*
X100152153Y-114277958D01*
X100151965Y-114280508D01*
X100157148Y-114322776D01*
X100161862Y-114365072D01*
X100162632Y-114367505D01*
X100162943Y-114370043D01*
X100176246Y-114410529D01*
X100177600Y-114414806D01*
X100177600Y-114444300D01*
X100052134Y-114444300D01*
X100052134Y-116558700D01*
X100177600Y-116558700D01*
X100177600Y-117094000D01*
X100180528Y-117123732D01*
X100189201Y-117152321D01*
X100203284Y-117178669D01*
X100222237Y-117201763D01*
X100245331Y-117220716D01*
X100271679Y-117234799D01*
X100300268Y-117243472D01*
X100330000Y-117246400D01*
X100610578Y-117246400D01*
X100525706Y-117402697D01*
X100457914Y-117620992D01*
X100434011Y-117848317D01*
X100454916Y-118075938D01*
X100519827Y-118295106D01*
X100626247Y-118497400D01*
X100634784Y-118510177D01*
X100865818Y-118536300D01*
X101546118Y-117856000D01*
X101531976Y-117841858D01*
X101585858Y-117787976D01*
X101600000Y-117802118D01*
X101614142Y-117787976D01*
X101668024Y-117841858D01*
X101653882Y-117856000D01*
X102334182Y-118536300D01*
X102565216Y-118510177D01*
X102674294Y-118309303D01*
X102742086Y-118091008D01*
X102765989Y-117863683D01*
X102745084Y-117636062D01*
X102680173Y-117416894D01*
X102590482Y-117246400D01*
X106952108Y-117246400D01*
X106847741Y-117402596D01*
X106775585Y-117576795D01*
X106738800Y-117761724D01*
X106738800Y-117950276D01*
X106775585Y-118135205D01*
X106847741Y-118309404D01*
X106952495Y-118466179D01*
X107085821Y-118599505D01*
X107162600Y-118650807D01*
X107162600Y-119086588D01*
X106846000Y-119086588D01*
X106756373Y-119095415D01*
X106670191Y-119121559D01*
X106590764Y-119164013D01*
X106521147Y-119221147D01*
X106464013Y-119290764D01*
X106421559Y-119370191D01*
X106395415Y-119456373D01*
X106386588Y-119546000D01*
X106386588Y-119949542D01*
X106369538Y-119893336D01*
X106248155Y-119666245D01*
X106084802Y-119467198D01*
X105885755Y-119303845D01*
X105658664Y-119182462D01*
X105412256Y-119107715D01*
X105220209Y-119088800D01*
X105091791Y-119088800D01*
X104899744Y-119107715D01*
X104653336Y-119182462D01*
X104426245Y-119303845D01*
X104227198Y-119467198D01*
X104063845Y-119666245D01*
X103942462Y-119893336D01*
X103867715Y-120139744D01*
X103842476Y-120396000D01*
X103867715Y-120652256D01*
X103907264Y-120782632D01*
X103125497Y-121564400D01*
X102546146Y-121564400D01*
X102682906Y-121448913D01*
X102867511Y-121217417D01*
X103003407Y-120954355D01*
X103085371Y-120669835D01*
X102944821Y-120434100D01*
X101638100Y-120434100D01*
X101638100Y-120454100D01*
X101561900Y-120454100D01*
X101561900Y-120434100D01*
X101541900Y-120434100D01*
X101541900Y-120357900D01*
X101561900Y-120357900D01*
X101561900Y-120337900D01*
X101638100Y-120337900D01*
X101638100Y-120357900D01*
X102944821Y-120357900D01*
X103085371Y-120122165D01*
X103003407Y-119837645D01*
X102867511Y-119574583D01*
X102682906Y-119343087D01*
X102456685Y-119152054D01*
X102197542Y-119008825D01*
X102003083Y-118946842D01*
X102039106Y-118936173D01*
X102241400Y-118829753D01*
X102254177Y-118821216D01*
X102280300Y-118590182D01*
X101600000Y-117909882D01*
X100919700Y-118590182D01*
X100945823Y-118821216D01*
X101146697Y-118930294D01*
X101198430Y-118946360D01*
X101002458Y-119008825D01*
X100743315Y-119152054D01*
X100517094Y-119343087D01*
X100332489Y-119574583D01*
X100219780Y-119792761D01*
X100152155Y-119666245D01*
X99988802Y-119467198D01*
X99789755Y-119303845D01*
X99593400Y-119198891D01*
X99593400Y-118650807D01*
X99670179Y-118599505D01*
X99803505Y-118466179D01*
X99908259Y-118309404D01*
X99980415Y-118135205D01*
X100017200Y-117950276D01*
X100017200Y-117761724D01*
X99980415Y-117576795D01*
X99908259Y-117402596D01*
X99803505Y-117245821D01*
X99670179Y-117112495D01*
X99513404Y-117007741D01*
X99339205Y-116935585D01*
X99154276Y-116898800D01*
X98965724Y-116898800D01*
X98780795Y-116935585D01*
X98606596Y-117007741D01*
X98449821Y-117112495D01*
X98316495Y-117245821D01*
X98211741Y-117402596D01*
X98139585Y-117576795D01*
X98102800Y-117761724D01*
X98102800Y-117950276D01*
X98139585Y-118135205D01*
X98211741Y-118309404D01*
X98316495Y-118466179D01*
X98449821Y-118599505D01*
X98526600Y-118650807D01*
X98526601Y-119198890D01*
X98330245Y-119303845D01*
X98131198Y-119467198D01*
X97967845Y-119666245D01*
X97846462Y-119893336D01*
X97790000Y-120079466D01*
X97733538Y-119893336D01*
X97612155Y-119666245D01*
X97448802Y-119467198D01*
X97249755Y-119303845D01*
X97053400Y-119198891D01*
X97053400Y-118650807D01*
X97130179Y-118599505D01*
X97263505Y-118466179D01*
X97368259Y-118309404D01*
X97440415Y-118135205D01*
X97477200Y-117950276D01*
X97477200Y-117761724D01*
X97440415Y-117576795D01*
X97368259Y-117402596D01*
X97263505Y-117245821D01*
X97130179Y-117112495D01*
X96973404Y-117007741D01*
X96799205Y-116935585D01*
X96614276Y-116898800D01*
X96425724Y-116898800D01*
X96240795Y-116935585D01*
X96066596Y-117007741D01*
X95909821Y-117112495D01*
X95776495Y-117245821D01*
X95671741Y-117402596D01*
X95599585Y-117576795D01*
X95562800Y-117761724D01*
X95562800Y-117950276D01*
X95599585Y-118135205D01*
X95671741Y-118309404D01*
X95776495Y-118466179D01*
X95909821Y-118599505D01*
X95986600Y-118650807D01*
X95986601Y-119198890D01*
X95790245Y-119303845D01*
X95591198Y-119467198D01*
X95427845Y-119666245D01*
X95306462Y-119893336D01*
X95250000Y-120079466D01*
X95193538Y-119893336D01*
X95072155Y-119666245D01*
X94908802Y-119467198D01*
X94709755Y-119303845D01*
X94513400Y-119198891D01*
X94513400Y-118650807D01*
X94590179Y-118599505D01*
X94723505Y-118466179D01*
X94828259Y-118309404D01*
X94900415Y-118135205D01*
X94937200Y-117950276D01*
X94937200Y-117761724D01*
X94900415Y-117576795D01*
X94828259Y-117402596D01*
X94723505Y-117245821D01*
X94590179Y-117112495D01*
X94433404Y-117007741D01*
X94259205Y-116935585D01*
X94074276Y-116898800D01*
X93885724Y-116898800D01*
X93700795Y-116935585D01*
X93526596Y-117007741D01*
X93369821Y-117112495D01*
X93236495Y-117245821D01*
X93131741Y-117402596D01*
X93059585Y-117576795D01*
X93022800Y-117761724D01*
X93022800Y-117950276D01*
X93059585Y-118135205D01*
X93131741Y-118309404D01*
X93236495Y-118466179D01*
X93369821Y-118599505D01*
X93446600Y-118650807D01*
X93446600Y-119198891D01*
X93250245Y-119303845D01*
X93051198Y-119467198D01*
X92887845Y-119666245D01*
X92766462Y-119893336D01*
X92749412Y-119949542D01*
X92749412Y-119546000D01*
X92740585Y-119456373D01*
X92714441Y-119370191D01*
X92671987Y-119290764D01*
X92614853Y-119221147D01*
X92545236Y-119164013D01*
X92465809Y-119121559D01*
X92379627Y-119095415D01*
X92290000Y-119086588D01*
X90590000Y-119086588D01*
X90500373Y-119095415D01*
X90414191Y-119121559D01*
X90334764Y-119164013D01*
X90265147Y-119221147D01*
X90208013Y-119290764D01*
X90165559Y-119370191D01*
X90139415Y-119456373D01*
X90130588Y-119546000D01*
X90130588Y-121246000D01*
X90139415Y-121335627D01*
X90165559Y-121421809D01*
X90208013Y-121501236D01*
X90265147Y-121570853D01*
X90334764Y-121627987D01*
X90414191Y-121670441D01*
X90500373Y-121696585D01*
X90590000Y-121705412D01*
X90849872Y-121705412D01*
X90874079Y-121785211D01*
X90930684Y-121891113D01*
X91006862Y-121983938D01*
X91030132Y-122003035D01*
X91257811Y-122230714D01*
X91122672Y-122205949D01*
X90847450Y-122120186D01*
X90584551Y-122001865D01*
X90337850Y-121852729D01*
X90110911Y-121674934D01*
X89907066Y-121471089D01*
X89729271Y-121244150D01*
X89580135Y-120997449D01*
X89461814Y-120734550D01*
X89376051Y-120459328D01*
X89324084Y-120175757D01*
X89306400Y-119883395D01*
X89306400Y-113357724D01*
X92006800Y-113357724D01*
X92006800Y-113546276D01*
X92043585Y-113731205D01*
X92115741Y-113905404D01*
X92220495Y-114062179D01*
X92353821Y-114195505D01*
X92510596Y-114300259D01*
X92684795Y-114372415D01*
X92869724Y-114409200D01*
X93058276Y-114409200D01*
X93243205Y-114372415D01*
X93417404Y-114300259D01*
X93574179Y-114195505D01*
X93707505Y-114062179D01*
X93812259Y-113905404D01*
X93884415Y-113731205D01*
X93921200Y-113546276D01*
X93921200Y-113357724D01*
X93884415Y-113172795D01*
X93812259Y-112998596D01*
X93707505Y-112841821D01*
X93574179Y-112708495D01*
X93417404Y-112603741D01*
X93243205Y-112531585D01*
X93058276Y-112494800D01*
X92869724Y-112494800D01*
X92684795Y-112531585D01*
X92510596Y-112603741D01*
X92353821Y-112708495D01*
X92220495Y-112841821D01*
X92115741Y-112998596D01*
X92043585Y-113172795D01*
X92006800Y-113357724D01*
X89306400Y-113357724D01*
X89306400Y-108957724D01*
X92006800Y-108957724D01*
X92006800Y-109146276D01*
X92043585Y-109331205D01*
X92115741Y-109505404D01*
X92220495Y-109662179D01*
X92353821Y-109795505D01*
X92510596Y-109900259D01*
X92684795Y-109972415D01*
X92869724Y-110009200D01*
X93058276Y-110009200D01*
X93243205Y-109972415D01*
X93417404Y-109900259D01*
X93574179Y-109795505D01*
X93707505Y-109662179D01*
X93812259Y-109505404D01*
X93884415Y-109331205D01*
X93921200Y-109146276D01*
X93921200Y-108957724D01*
X93884415Y-108772795D01*
X93812259Y-108598596D01*
X93707505Y-108441821D01*
X93574179Y-108308495D01*
X93417404Y-108203741D01*
X93243205Y-108131585D01*
X93058276Y-108094800D01*
X92869724Y-108094800D01*
X92684795Y-108131585D01*
X92510596Y-108203741D01*
X92353821Y-108308495D01*
X92220495Y-108441821D01*
X92115741Y-108598596D01*
X92043585Y-108772795D01*
X92006800Y-108957724D01*
X89306400Y-108957724D01*
X89306400Y-105598956D01*
X100939600Y-105598956D01*
X100939600Y-105729044D01*
X100964979Y-105856631D01*
X101014761Y-105976817D01*
X101087034Y-106084980D01*
X101179020Y-106176966D01*
X101287183Y-106249239D01*
X101407369Y-106299021D01*
X101534956Y-106324400D01*
X101665044Y-106324400D01*
X101668107Y-106323791D01*
X101751821Y-106407505D01*
X101908596Y-106512259D01*
X102082795Y-106584415D01*
X102267724Y-106621200D01*
X102456276Y-106621200D01*
X102641205Y-106584415D01*
X102815404Y-106512259D01*
X102972179Y-106407505D01*
X103105505Y-106274179D01*
X103210259Y-106117404D01*
X103282415Y-105943205D01*
X103319200Y-105758276D01*
X103319200Y-105569724D01*
X103282415Y-105384795D01*
X103210259Y-105210596D01*
X103105505Y-105053821D01*
X102972179Y-104920495D01*
X102815404Y-104815741D01*
X102641205Y-104743585D01*
X102456276Y-104706800D01*
X102267724Y-104706800D01*
X102082795Y-104743585D01*
X101908596Y-104815741D01*
X101751821Y-104920495D01*
X101668107Y-105004209D01*
X101665044Y-105003600D01*
X101534956Y-105003600D01*
X101407369Y-105028979D01*
X101287183Y-105078761D01*
X101179020Y-105151034D01*
X101087034Y-105243020D01*
X101014761Y-105351183D01*
X100964979Y-105471369D01*
X100939600Y-105598956D01*
X89306400Y-105598956D01*
X89306400Y-102620605D01*
X89324084Y-102328243D01*
X89376051Y-102044672D01*
X89461814Y-101769450D01*
X89580135Y-101506551D01*
X89729271Y-101259850D01*
X89907066Y-101032911D01*
X90110911Y-100829066D01*
X90337850Y-100651271D01*
X90584551Y-100502135D01*
X90847450Y-100383814D01*
X91122672Y-100298051D01*
X91406243Y-100246084D01*
X91698605Y-100228400D01*
X117728061Y-100228400D01*
X117739291Y-100342420D01*
X117739291Y-100342420D01*
G37*
X117739291Y-100342420D02*
X117779958Y-100476481D01*
X117845998Y-100600033D01*
X117934873Y-100708327D01*
X118043167Y-100797202D01*
X118166719Y-100863242D01*
X118300780Y-100903909D01*
X118405264Y-100914200D01*
X119568013Y-100914200D01*
X125304003Y-106650191D01*
X125326273Y-106677327D01*
X125353409Y-106699597D01*
X125434567Y-106766202D01*
X125558118Y-106832242D01*
X125689183Y-106872000D01*
X125692180Y-106872909D01*
X125796664Y-106883200D01*
X125796671Y-106883200D01*
X125831600Y-106886640D01*
X125866528Y-106883200D01*
X127181691Y-106883200D01*
X127189415Y-106961627D01*
X127215559Y-107047809D01*
X127258013Y-107127236D01*
X127315147Y-107196853D01*
X127384764Y-107253987D01*
X127464191Y-107296441D01*
X127550373Y-107322585D01*
X127640000Y-107331412D01*
X131165600Y-107331412D01*
X131165600Y-107348922D01*
X129743200Y-107351600D01*
X129578100Y-107516700D01*
X129578100Y-108673900D01*
X129598100Y-108673900D01*
X129598100Y-108750100D01*
X129578100Y-108750100D01*
X129578100Y-109907300D01*
X129743200Y-110072400D01*
X131165600Y-110075078D01*
X131165600Y-110092588D01*
X127640000Y-110092588D01*
X127550373Y-110101415D01*
X127464191Y-110127559D01*
X127384764Y-110170013D01*
X127315147Y-110227147D01*
X127258013Y-110296764D01*
X127224175Y-110360072D01*
X127102661Y-110238558D01*
X127077239Y-110177183D01*
X127004966Y-110069020D01*
X126912980Y-109977034D01*
X126804817Y-109904761D01*
X126684631Y-109854979D01*
X126557044Y-109829600D01*
X126426956Y-109829600D01*
X126299369Y-109854979D01*
X126179183Y-109904761D01*
X126071020Y-109977034D01*
X125979034Y-110069020D01*
X125906761Y-110177183D01*
X125856979Y-110297369D01*
X125831600Y-110424956D01*
X125831600Y-110555044D01*
X125856979Y-110682631D01*
X125906761Y-110802817D01*
X125979034Y-110910980D01*
X126071020Y-111002966D01*
X126179183Y-111075239D01*
X126240558Y-111100661D01*
X126801769Y-111661873D01*
X126820862Y-111685138D01*
X126913686Y-111761316D01*
X126958430Y-111785232D01*
X127019587Y-111817921D01*
X127134497Y-111852779D01*
X127180588Y-111857319D01*
X127180588Y-111952000D01*
X127189415Y-112041627D01*
X127215559Y-112127809D01*
X127258013Y-112207236D01*
X127315147Y-112276853D01*
X127384764Y-112333987D01*
X127464191Y-112376441D01*
X127550373Y-112402585D01*
X127640000Y-112411412D01*
X131165600Y-112411412D01*
X131165600Y-112632588D01*
X127640000Y-112632588D01*
X127550373Y-112641415D01*
X127464191Y-112667559D01*
X127384764Y-112710013D01*
X127315147Y-112767147D01*
X127258013Y-112836764D01*
X127215559Y-112916191D01*
X127211855Y-112928400D01*
X126746004Y-112928400D01*
X126684631Y-112902979D01*
X126557044Y-112877600D01*
X126426956Y-112877600D01*
X126299369Y-112902979D01*
X126179183Y-112952761D01*
X126071020Y-113025034D01*
X125979034Y-113117020D01*
X125906761Y-113225183D01*
X125856979Y-113345369D01*
X125831600Y-113472956D01*
X125831600Y-113603044D01*
X125856979Y-113730631D01*
X125906761Y-113850817D01*
X125979034Y-113958980D01*
X126071020Y-114050966D01*
X126179183Y-114123239D01*
X126299369Y-114173021D01*
X126426956Y-114198400D01*
X126557044Y-114198400D01*
X126684631Y-114173021D01*
X126746004Y-114147600D01*
X127180588Y-114147600D01*
X127180588Y-114492000D01*
X127189415Y-114581627D01*
X127215559Y-114667809D01*
X127258013Y-114747236D01*
X127315147Y-114816853D01*
X127384764Y-114873987D01*
X127464191Y-114916441D01*
X127550373Y-114942585D01*
X127640000Y-114951412D01*
X131165600Y-114951412D01*
X131165600Y-115172588D01*
X127640000Y-115172588D01*
X127550373Y-115181415D01*
X127464191Y-115207559D01*
X127384764Y-115250013D01*
X127315147Y-115307147D01*
X127258013Y-115376764D01*
X127215559Y-115456191D01*
X127189415Y-115542373D01*
X127180588Y-115632000D01*
X127180588Y-115976400D01*
X126746004Y-115976400D01*
X126684631Y-115950979D01*
X126557044Y-115925600D01*
X126426956Y-115925600D01*
X126299369Y-115950979D01*
X126179183Y-116000761D01*
X126071020Y-116073034D01*
X125979034Y-116165020D01*
X125906761Y-116273183D01*
X125856979Y-116393369D01*
X125831600Y-116520956D01*
X125831600Y-116651044D01*
X125856979Y-116778631D01*
X125906761Y-116898817D01*
X125979034Y-117006980D01*
X126071020Y-117098966D01*
X126179183Y-117171239D01*
X126299369Y-117221021D01*
X126426956Y-117246400D01*
X126557044Y-117246400D01*
X126684631Y-117221021D01*
X126746004Y-117195600D01*
X127211855Y-117195600D01*
X127215559Y-117207809D01*
X127258013Y-117287236D01*
X127315147Y-117356853D01*
X127384764Y-117413987D01*
X127464191Y-117456441D01*
X127550373Y-117482585D01*
X127640000Y-117491412D01*
X129769174Y-117491412D01*
X129608709Y-117598631D01*
X129426631Y-117780709D01*
X129283574Y-117994809D01*
X129185035Y-118232704D01*
X129134800Y-118485252D01*
X129134800Y-118742748D01*
X129185035Y-118995296D01*
X129283574Y-119233191D01*
X129426631Y-119447291D01*
X129608709Y-119629369D01*
X129822809Y-119772426D01*
X130060704Y-119870965D01*
X130313252Y-119921200D01*
X130570748Y-119921200D01*
X130823296Y-119870965D01*
X131061191Y-119772426D01*
X131165600Y-119702662D01*
X131165600Y-119883395D01*
X131147916Y-120175757D01*
X131095949Y-120459328D01*
X131090927Y-120475443D01*
X131061191Y-120455574D01*
X130823296Y-120357035D01*
X130570748Y-120306800D01*
X130313252Y-120306800D01*
X130060704Y-120357035D01*
X129822809Y-120455574D01*
X129608709Y-120598631D01*
X129426631Y-120780709D01*
X129283574Y-120994809D01*
X129185035Y-121232704D01*
X129134800Y-121485252D01*
X129134800Y-121742748D01*
X129185035Y-121995296D01*
X129277725Y-122219071D01*
X129065757Y-122257916D01*
X128773395Y-122275600D01*
X126072089Y-122275600D01*
X126100426Y-122233191D01*
X126198965Y-121995296D01*
X126249200Y-121742748D01*
X126249200Y-121485252D01*
X126198965Y-121232704D01*
X126100426Y-120994809D01*
X125957369Y-120780709D01*
X125775291Y-120598631D01*
X125561191Y-120455574D01*
X125323296Y-120357035D01*
X125070748Y-120306800D01*
X124813252Y-120306800D01*
X124560704Y-120357035D01*
X124322809Y-120455574D01*
X124108709Y-120598631D01*
X123926631Y-120780709D01*
X123783574Y-120994809D01*
X123685035Y-121232704D01*
X123684737Y-121234200D01*
X120548400Y-121234200D01*
X120548400Y-119583204D01*
X120573821Y-119521831D01*
X120599200Y-119394244D01*
X120599200Y-119264156D01*
X120573821Y-119136569D01*
X120524039Y-119016383D01*
X120451766Y-118908220D01*
X120359780Y-118816234D01*
X120251617Y-118743961D01*
X120131431Y-118694179D01*
X120003844Y-118668800D01*
X119873756Y-118668800D01*
X119746169Y-118694179D01*
X119625983Y-118743961D01*
X119517820Y-118816234D01*
X119425834Y-118908220D01*
X119353561Y-119016383D01*
X119303779Y-119136569D01*
X119278400Y-119264156D01*
X119278400Y-119394244D01*
X119303779Y-119521831D01*
X119329201Y-119583206D01*
X119329200Y-121234200D01*
X111312372Y-121234200D01*
X111418980Y-121162966D01*
X111510966Y-121070980D01*
X111583239Y-120962817D01*
X111633021Y-120842631D01*
X111658400Y-120715044D01*
X111658400Y-120584956D01*
X111633021Y-120457369D01*
X111583239Y-120337183D01*
X111562618Y-120306323D01*
X112549609Y-119319333D01*
X112565979Y-119401631D01*
X112615761Y-119521817D01*
X112688034Y-119629980D01*
X112780020Y-119721966D01*
X112888183Y-119794239D01*
X113008369Y-119844021D01*
X113021740Y-119846681D01*
X113519775Y-120344716D01*
X113537979Y-120436231D01*
X113587761Y-120556417D01*
X113660034Y-120664580D01*
X113752020Y-120756566D01*
X113860183Y-120828839D01*
X113980369Y-120878621D01*
X114107956Y-120904000D01*
X114238044Y-120904000D01*
X114365631Y-120878621D01*
X114485817Y-120828839D01*
X114593980Y-120756566D01*
X114685966Y-120664580D01*
X114758239Y-120556417D01*
X114808021Y-120436231D01*
X114826225Y-120344716D01*
X115059645Y-120111296D01*
X115079995Y-120094595D01*
X115146651Y-120013375D01*
X115196181Y-119920711D01*
X115226681Y-119820165D01*
X115234400Y-119741795D01*
X115234400Y-119741794D01*
X115236980Y-119715600D01*
X115234400Y-119689406D01*
X115234400Y-119561803D01*
X115286239Y-119484221D01*
X115336021Y-119364035D01*
X115361400Y-119236448D01*
X115361400Y-119106360D01*
X115336021Y-118978773D01*
X115286239Y-118858587D01*
X115213966Y-118750424D01*
X115121980Y-118658438D01*
X115013817Y-118586165D01*
X114893631Y-118536383D01*
X114766044Y-118511004D01*
X114635956Y-118511004D01*
X114508369Y-118536383D01*
X114388183Y-118586165D01*
X114280020Y-118658438D01*
X114188034Y-118750424D01*
X114115761Y-118858587D01*
X114065979Y-118978773D01*
X114040600Y-119106360D01*
X114040600Y-119236448D01*
X114065979Y-119364035D01*
X114078850Y-119395109D01*
X113861400Y-119177659D01*
X113861400Y-119143956D01*
X113836021Y-119016369D01*
X113786239Y-118896183D01*
X113713966Y-118788020D01*
X113621980Y-118696034D01*
X113513817Y-118623761D01*
X113393631Y-118573979D01*
X113311333Y-118557609D01*
X113383690Y-118485252D01*
X123634800Y-118485252D01*
X123634800Y-118742748D01*
X123685035Y-118995296D01*
X123783574Y-119233191D01*
X123926631Y-119447291D01*
X124108709Y-119629369D01*
X124322809Y-119772426D01*
X124560704Y-119870965D01*
X124813252Y-119921200D01*
X125070748Y-119921200D01*
X125323296Y-119870965D01*
X125561191Y-119772426D01*
X125775291Y-119629369D01*
X125957369Y-119447291D01*
X126100426Y-119233191D01*
X126198965Y-118995296D01*
X126249200Y-118742748D01*
X126249200Y-118485252D01*
X126198965Y-118232704D01*
X126100426Y-117994809D01*
X125957369Y-117780709D01*
X125775291Y-117598631D01*
X125561191Y-117455574D01*
X125323296Y-117357035D01*
X125070748Y-117306800D01*
X124813252Y-117306800D01*
X124560704Y-117357035D01*
X124322809Y-117455574D01*
X124108709Y-117598631D01*
X123926631Y-117780709D01*
X123783574Y-117994809D01*
X123685035Y-118232704D01*
X123634800Y-118485252D01*
X113383690Y-118485252D01*
X115623851Y-116245091D01*
X115644195Y-116228395D01*
X115710851Y-116147175D01*
X115760381Y-116054511D01*
X115790881Y-115953965D01*
X115798600Y-115875595D01*
X115798600Y-115875588D01*
X115801179Y-115849401D01*
X115798600Y-115823214D01*
X115798600Y-114647941D01*
X117859141Y-112587400D01*
X117882801Y-112587400D01*
X117960383Y-112639239D01*
X118080569Y-112689021D01*
X118145280Y-112701893D01*
X118154179Y-112746631D01*
X118203961Y-112866817D01*
X118276234Y-112974980D01*
X118317989Y-113016735D01*
X118300500Y-113104656D01*
X118300500Y-113234744D01*
X118325879Y-113362331D01*
X118375661Y-113482517D01*
X118447934Y-113590680D01*
X118539920Y-113682666D01*
X118648083Y-113754939D01*
X118768269Y-113804721D01*
X118895856Y-113830100D01*
X119025944Y-113830100D01*
X119153531Y-113804721D01*
X119273717Y-113754939D01*
X119381880Y-113682666D01*
X119473866Y-113590680D01*
X119546139Y-113482517D01*
X119595921Y-113362331D01*
X119616513Y-113258811D01*
X119622451Y-113251575D01*
X119671981Y-113158911D01*
X119702481Y-113058365D01*
X119710200Y-112979995D01*
X119710200Y-112979994D01*
X119712780Y-112953800D01*
X119710200Y-112927606D01*
X119710200Y-111100386D01*
X119712779Y-111074199D01*
X119710200Y-111048012D01*
X119710200Y-111048005D01*
X119702481Y-110969635D01*
X119671981Y-110869089D01*
X119622451Y-110776425D01*
X119618643Y-110771785D01*
X119862600Y-111015742D01*
X119862601Y-113342457D01*
X118580359Y-114624700D01*
X118251899Y-114624700D01*
X118174317Y-114572861D01*
X118054131Y-114523079D01*
X117926544Y-114497700D01*
X117796456Y-114497700D01*
X117668869Y-114523079D01*
X117548683Y-114572861D01*
X117440520Y-114645134D01*
X117348534Y-114737120D01*
X117276261Y-114845283D01*
X117246627Y-114916826D01*
X117155369Y-114934979D01*
X117035183Y-114984761D01*
X116927020Y-115057034D01*
X116835034Y-115149020D01*
X116762761Y-115257183D01*
X116712979Y-115377369D01*
X116687600Y-115504956D01*
X116687600Y-115635044D01*
X116712979Y-115762631D01*
X116762761Y-115882817D01*
X116835034Y-115990980D01*
X116927020Y-116082966D01*
X117035183Y-116155239D01*
X117155369Y-116205021D01*
X117282956Y-116230400D01*
X117413044Y-116230400D01*
X117540631Y-116205021D01*
X117660817Y-116155239D01*
X117738399Y-116103400D01*
X118947413Y-116103400D01*
X118973600Y-116105979D01*
X118999787Y-116103400D01*
X118999795Y-116103400D01*
X119078165Y-116095681D01*
X119178711Y-116065181D01*
X119271375Y-116015651D01*
X119352595Y-115948995D01*
X119369296Y-115928645D01*
X121742200Y-113555742D01*
X121742200Y-113603044D01*
X121767579Y-113730631D01*
X121817361Y-113850817D01*
X121889634Y-113958980D01*
X121981620Y-114050966D01*
X122089783Y-114123239D01*
X122209969Y-114173021D01*
X122337556Y-114198400D01*
X122467644Y-114198400D01*
X122595231Y-114173021D01*
X122715417Y-114123239D01*
X122792999Y-114071400D01*
X123256801Y-114071400D01*
X123334383Y-114123239D01*
X123454569Y-114173021D01*
X123582156Y-114198400D01*
X123712244Y-114198400D01*
X123839831Y-114173021D01*
X123960017Y-114123239D01*
X124068180Y-114050966D01*
X124160166Y-113958980D01*
X124232439Y-113850817D01*
X124282221Y-113730631D01*
X124307600Y-113603044D01*
X124307600Y-113472956D01*
X124282221Y-113345369D01*
X124232439Y-113225183D01*
X124186880Y-113157000D01*
X124232439Y-113088817D01*
X124282221Y-112968631D01*
X124307600Y-112841044D01*
X124307600Y-112710956D01*
X124282221Y-112583369D01*
X124232439Y-112463183D01*
X124186880Y-112395000D01*
X124232439Y-112326817D01*
X124282221Y-112206631D01*
X124307600Y-112079044D01*
X124307600Y-111948956D01*
X124282221Y-111821369D01*
X124232439Y-111701183D01*
X124160166Y-111593020D01*
X124068180Y-111501034D01*
X123960017Y-111428761D01*
X123839831Y-111378979D01*
X123712244Y-111353600D01*
X123582156Y-111353600D01*
X123454569Y-111378979D01*
X123334383Y-111428761D01*
X123256801Y-111480600D01*
X122555786Y-111480600D01*
X122529599Y-111478021D01*
X122503412Y-111480600D01*
X122503405Y-111480600D01*
X122425035Y-111488319D01*
X122324489Y-111518819D01*
X122231825Y-111568349D01*
X122188922Y-111603559D01*
X122171020Y-111618251D01*
X122150605Y-111635005D01*
X122133909Y-111655349D01*
X120929400Y-112859858D01*
X120929400Y-110820986D01*
X120931979Y-110794799D01*
X120929400Y-110768612D01*
X120929400Y-110768605D01*
X120921681Y-110690235D01*
X120891181Y-110589689D01*
X120841651Y-110497025D01*
X120804698Y-110451998D01*
X120791693Y-110436151D01*
X120791691Y-110436149D01*
X120774995Y-110415805D01*
X120754651Y-110399109D01*
X119397161Y-109041620D01*
X119521831Y-109016821D01*
X119642017Y-108967039D01*
X119750180Y-108894766D01*
X119842166Y-108802780D01*
X119914439Y-108694617D01*
X119964221Y-108574431D01*
X119989600Y-108446844D01*
X119989600Y-108316756D01*
X119964221Y-108189169D01*
X119943423Y-108138956D01*
X122250200Y-108138956D01*
X122250200Y-108269044D01*
X122275579Y-108396631D01*
X122325361Y-108516817D01*
X122397634Y-108624980D01*
X122489620Y-108716966D01*
X122597783Y-108789239D01*
X122717969Y-108839021D01*
X122809484Y-108857225D01*
X123113801Y-109161542D01*
X123113800Y-110099601D01*
X123061961Y-110177183D01*
X123012179Y-110297369D01*
X122986800Y-110424956D01*
X122986800Y-110555044D01*
X123012179Y-110682631D01*
X123061961Y-110802817D01*
X123134234Y-110910980D01*
X123226220Y-111002966D01*
X123334383Y-111075239D01*
X123454569Y-111125021D01*
X123582156Y-111150400D01*
X123712244Y-111150400D01*
X123839831Y-111125021D01*
X123960017Y-111075239D01*
X124068180Y-111002966D01*
X124160166Y-110910980D01*
X124232439Y-110802817D01*
X124282221Y-110682631D01*
X124307600Y-110555044D01*
X124307600Y-110424956D01*
X124282221Y-110297369D01*
X124232439Y-110177183D01*
X124180600Y-110099601D01*
X124180600Y-109412000D01*
X126976405Y-109412000D01*
X126989156Y-109541461D01*
X127026918Y-109665947D01*
X127088241Y-109780674D01*
X127170767Y-109881233D01*
X127271326Y-109963759D01*
X127386053Y-110025082D01*
X127510539Y-110062844D01*
X127640000Y-110075595D01*
X129336800Y-110072400D01*
X129501900Y-109907300D01*
X129501900Y-108750100D01*
X127144700Y-108750100D01*
X126979600Y-108915200D01*
X126976405Y-109412000D01*
X124180600Y-109412000D01*
X124180600Y-108966794D01*
X124183180Y-108940600D01*
X124178666Y-108894766D01*
X124172881Y-108836035D01*
X124142381Y-108735489D01*
X124092851Y-108642825D01*
X124026195Y-108561605D01*
X124005845Y-108544904D01*
X123563825Y-108102884D01*
X123545747Y-108012000D01*
X126976405Y-108012000D01*
X126979600Y-108508800D01*
X127144700Y-108673900D01*
X129501900Y-108673900D01*
X129501900Y-107516700D01*
X129336800Y-107351600D01*
X127640000Y-107348405D01*
X127510539Y-107361156D01*
X127386053Y-107398918D01*
X127271326Y-107460241D01*
X127170767Y-107542767D01*
X127088241Y-107643326D01*
X127026918Y-107758053D01*
X126989156Y-107882539D01*
X126976405Y-108012000D01*
X123545747Y-108012000D01*
X123545621Y-108011369D01*
X123495839Y-107891183D01*
X123423566Y-107783020D01*
X123331580Y-107691034D01*
X123223417Y-107618761D01*
X123103231Y-107568979D01*
X122975644Y-107543600D01*
X122845556Y-107543600D01*
X122717969Y-107568979D01*
X122597783Y-107618761D01*
X122489620Y-107691034D01*
X122397634Y-107783020D01*
X122325361Y-107891183D01*
X122275579Y-108011369D01*
X122250200Y-108138956D01*
X119943423Y-108138956D01*
X119914439Y-108068983D01*
X119842166Y-107960820D01*
X119750180Y-107868834D01*
X119642017Y-107796561D01*
X119521831Y-107746779D01*
X119430317Y-107728576D01*
X118491000Y-106789259D01*
X118491000Y-106155999D01*
X118542839Y-106078417D01*
X118592621Y-105958231D01*
X118618000Y-105830644D01*
X118618000Y-105700556D01*
X118592621Y-105572969D01*
X118542839Y-105452783D01*
X118470566Y-105344620D01*
X118378580Y-105252634D01*
X118270417Y-105180361D01*
X118150231Y-105130579D01*
X118022644Y-105105200D01*
X117892556Y-105105200D01*
X117764969Y-105130579D01*
X117644783Y-105180361D01*
X117536620Y-105252634D01*
X117444634Y-105344620D01*
X117372361Y-105452783D01*
X117344716Y-105519525D01*
X117256969Y-105536979D01*
X117136783Y-105586761D01*
X117028620Y-105659034D01*
X116936634Y-105751020D01*
X116864361Y-105859183D01*
X116814579Y-105979369D01*
X116789200Y-106106956D01*
X116789200Y-106237044D01*
X116814579Y-106364631D01*
X116864361Y-106484817D01*
X116912696Y-106557155D01*
X115385025Y-105029484D01*
X115366821Y-104937969D01*
X115317039Y-104817783D01*
X115244766Y-104709620D01*
X115152780Y-104617634D01*
X115044617Y-104545361D01*
X114924431Y-104495579D01*
X114796844Y-104470200D01*
X114666756Y-104470200D01*
X114539169Y-104495579D01*
X114418983Y-104545361D01*
X114310820Y-104617634D01*
X114218834Y-104709620D01*
X114146561Y-104817783D01*
X114096779Y-104937969D01*
X114071400Y-105065556D01*
X114071400Y-105195644D01*
X114096779Y-105323231D01*
X114146561Y-105443417D01*
X114218834Y-105551580D01*
X114310820Y-105643566D01*
X114418983Y-105715839D01*
X114539169Y-105765621D01*
X114630684Y-105783825D01*
X117955217Y-109108359D01*
X117950575Y-109104549D01*
X117857911Y-109055019D01*
X117757365Y-109024519D01*
X117678995Y-109016800D01*
X117678987Y-109016800D01*
X117652800Y-109014221D01*
X117626613Y-109016800D01*
X110448599Y-109016800D01*
X110371017Y-108964961D01*
X110250831Y-108915179D01*
X110123244Y-108889800D01*
X109993156Y-108889800D01*
X109865569Y-108915179D01*
X109745383Y-108964961D01*
X109637220Y-109037234D01*
X109545234Y-109129220D01*
X109472961Y-109237383D01*
X109423179Y-109357569D01*
X109397800Y-109485156D01*
X109397800Y-109615244D01*
X109423179Y-109742831D01*
X109472961Y-109863017D01*
X109545234Y-109971180D01*
X109637220Y-110063166D01*
X109745383Y-110135439D01*
X109791499Y-110154541D01*
X109828561Y-110244017D01*
X109900834Y-110352180D01*
X109992820Y-110444166D01*
X110100983Y-110516439D01*
X110221169Y-110566221D01*
X110348756Y-110591600D01*
X110478844Y-110591600D01*
X110606431Y-110566221D01*
X110726617Y-110516439D01*
X110804199Y-110464600D01*
X116596576Y-110464600D01*
X116584961Y-110481983D01*
X116535179Y-110602169D01*
X116509800Y-110729756D01*
X116509800Y-110859844D01*
X116535179Y-110987431D01*
X116584961Y-111107617D01*
X116636800Y-111185199D01*
X116636800Y-111259658D01*
X114350800Y-113545659D01*
X114350800Y-112465254D01*
X114371739Y-112433917D01*
X114421521Y-112313731D01*
X114446900Y-112186144D01*
X114446900Y-112056056D01*
X114421521Y-111928469D01*
X114371739Y-111808283D01*
X114299466Y-111700120D01*
X114207480Y-111608134D01*
X114099317Y-111535861D01*
X113979131Y-111486079D01*
X113851544Y-111460700D01*
X113721456Y-111460700D01*
X113593869Y-111486079D01*
X113473683Y-111535861D01*
X113365520Y-111608134D01*
X113273534Y-111700120D01*
X113201261Y-111808283D01*
X113151479Y-111928469D01*
X113126100Y-112056056D01*
X113126100Y-112186144D01*
X113151479Y-112313731D01*
X113201261Y-112433917D01*
X113273534Y-112542080D01*
X113284000Y-112552546D01*
X113284001Y-114966255D01*
X113273180Y-114955434D01*
X113165017Y-114883161D01*
X113044831Y-114833379D01*
X112917244Y-114808000D01*
X112787156Y-114808000D01*
X112741501Y-114817081D01*
X112693225Y-114768805D01*
X112717200Y-114648276D01*
X112717200Y-114459724D01*
X112680415Y-114274795D01*
X112608259Y-114100596D01*
X112503505Y-113943821D01*
X112370179Y-113810495D01*
X112213404Y-113705741D01*
X112039205Y-113633585D01*
X111854276Y-113596800D01*
X111665724Y-113596800D01*
X111480795Y-113633585D01*
X111306596Y-113705741D01*
X111149821Y-113810495D01*
X111016495Y-113943821D01*
X110911741Y-114100596D01*
X110839585Y-114274795D01*
X110802800Y-114459724D01*
X110802800Y-114648276D01*
X110839585Y-114833205D01*
X110911741Y-115007404D01*
X111016495Y-115164179D01*
X111149821Y-115297505D01*
X111272535Y-115379500D01*
X111149821Y-115461495D01*
X111016495Y-115594821D01*
X110911741Y-115751596D01*
X110839585Y-115925795D01*
X110802800Y-116110724D01*
X110802800Y-116299276D01*
X110839585Y-116484205D01*
X110911741Y-116658404D01*
X111016495Y-116815179D01*
X111149821Y-116948505D01*
X111306596Y-117053259D01*
X111480795Y-117125415D01*
X111665724Y-117162200D01*
X111854276Y-117162200D01*
X112039205Y-117125415D01*
X112213404Y-117053259D01*
X112370179Y-116948505D01*
X112503505Y-116815179D01*
X112571779Y-116713000D01*
X112620258Y-116713000D01*
X112645202Y-116715457D01*
X112670146Y-116713000D01*
X112670149Y-116713000D01*
X112727201Y-116707381D01*
X112736356Y-116709202D01*
X112866444Y-116709202D01*
X112994031Y-116683823D01*
X113114217Y-116634041D01*
X113222380Y-116561768D01*
X113268234Y-116515914D01*
X113298705Y-116561516D01*
X109392121Y-120468100D01*
X109285038Y-120446800D01*
X109154950Y-120446800D01*
X109027363Y-120472179D01*
X109005412Y-120481271D01*
X109005412Y-119546000D01*
X108996585Y-119456373D01*
X108970441Y-119370191D01*
X108927987Y-119290764D01*
X108870853Y-119221147D01*
X108801236Y-119164013D01*
X108721809Y-119121559D01*
X108635627Y-119095415D01*
X108546000Y-119086588D01*
X108229400Y-119086588D01*
X108229400Y-118650807D01*
X108306179Y-118599505D01*
X108439505Y-118466179D01*
X108544259Y-118309404D01*
X108616415Y-118135205D01*
X108653200Y-117950276D01*
X108653200Y-117761724D01*
X108616415Y-117576795D01*
X108544259Y-117402596D01*
X108439892Y-117246400D01*
X108712000Y-117246400D01*
X108741732Y-117243472D01*
X108770321Y-117234799D01*
X108796669Y-117220716D01*
X108819763Y-117201763D01*
X108838716Y-117178669D01*
X108852799Y-117152321D01*
X108861472Y-117123732D01*
X108864400Y-117094000D01*
X108864400Y-116774956D01*
X109067600Y-116774956D01*
X109067600Y-116905044D01*
X109092979Y-117032631D01*
X109142761Y-117152817D01*
X109215034Y-117260980D01*
X109307020Y-117352966D01*
X109415183Y-117425239D01*
X109535369Y-117475021D01*
X109662956Y-117500400D01*
X109793044Y-117500400D01*
X109920631Y-117475021D01*
X110040817Y-117425239D01*
X110148980Y-117352966D01*
X110240966Y-117260980D01*
X110313239Y-117152817D01*
X110363021Y-117032631D01*
X110388400Y-116905044D01*
X110388400Y-116774956D01*
X110363021Y-116647369D01*
X110337600Y-116585996D01*
X110337600Y-113333303D01*
X110792243Y-112878660D01*
X110853617Y-112853239D01*
X110961780Y-112780966D01*
X111053766Y-112688980D01*
X111126039Y-112580817D01*
X111175821Y-112460631D01*
X111201200Y-112333044D01*
X111201200Y-112202956D01*
X111175821Y-112075369D01*
X111126039Y-111955183D01*
X111053766Y-111847020D01*
X110961780Y-111755034D01*
X110853617Y-111682761D01*
X110733431Y-111632979D01*
X110605844Y-111607600D01*
X110475756Y-111607600D01*
X110348169Y-111632979D01*
X110227983Y-111682761D01*
X110119820Y-111755034D01*
X110027834Y-111847020D01*
X109955561Y-111955183D01*
X109930140Y-112016557D01*
X109318132Y-112628565D01*
X109294862Y-112647662D01*
X109218684Y-112740487D01*
X109162079Y-112846389D01*
X109141120Y-112915482D01*
X109127221Y-112961298D01*
X109115451Y-113080800D01*
X109118400Y-113110742D01*
X109118401Y-116585994D01*
X109092979Y-116647369D01*
X109067600Y-116774956D01*
X108864400Y-116774956D01*
X108864400Y-114522238D01*
X108866304Y-114518990D01*
X108888328Y-114482259D01*
X108889106Y-114480093D01*
X108890265Y-114478115D01*
X108904316Y-114437719D01*
X108918804Y-114397358D01*
X108919146Y-114395085D01*
X108919900Y-114392916D01*
X108925845Y-114350510D01*
X108932210Y-114308155D01*
X108932104Y-114305861D01*
X108932423Y-114303583D01*
X108930015Y-114260788D01*
X108928034Y-114218045D01*
X108927484Y-114215816D01*
X108927355Y-114213520D01*
X108916680Y-114172006D01*
X108906435Y-114130464D01*
X108905463Y-114128385D01*
X108904890Y-114126156D01*
X108886356Y-114087509D01*
X108868236Y-114048745D01*
X108865927Y-114044911D01*
X108865884Y-114044821D01*
X108865827Y-114044745D01*
X108864907Y-114043217D01*
X108864400Y-114042388D01*
X108864400Y-110744000D01*
X108861472Y-110714268D01*
X108852799Y-110685679D01*
X108838716Y-110659331D01*
X108819763Y-110636237D01*
X108796669Y-110617284D01*
X108770321Y-110603201D01*
X108741732Y-110594528D01*
X108712000Y-110591600D01*
X100330000Y-110591600D01*
X100300268Y-110594528D01*
X100271679Y-110603201D01*
X100245331Y-110617284D01*
X100222237Y-110636237D01*
X100203284Y-110659331D01*
X100189201Y-110685679D01*
X100180528Y-110714268D01*
X100177600Y-110744000D01*
X100177600Y-113758848D01*
X100176361Y-113764444D01*
X100171448Y-113777826D01*
X100166629Y-113808396D01*
X100159941Y-113838597D01*
X100159621Y-113852845D01*
X100157400Y-113866932D01*
X100157067Y-113873377D01*
X100149545Y-114041673D01*
X100150085Y-114051845D01*
X100149084Y-114061986D01*
X100149125Y-114068439D01*
X100151870Y-114275422D01*
X100152153Y-114277958D01*
X100151965Y-114280508D01*
X100157148Y-114322776D01*
X100161862Y-114365072D01*
X100162632Y-114367505D01*
X100162943Y-114370043D01*
X100176246Y-114410529D01*
X100177600Y-114414806D01*
X100177600Y-114444300D01*
X100052134Y-114444300D01*
X100052134Y-116558700D01*
X100177600Y-116558700D01*
X100177600Y-117094000D01*
X100180528Y-117123732D01*
X100189201Y-117152321D01*
X100203284Y-117178669D01*
X100222237Y-117201763D01*
X100245331Y-117220716D01*
X100271679Y-117234799D01*
X100300268Y-117243472D01*
X100330000Y-117246400D01*
X100610578Y-117246400D01*
X100525706Y-117402697D01*
X100457914Y-117620992D01*
X100434011Y-117848317D01*
X100454916Y-118075938D01*
X100519827Y-118295106D01*
X100626247Y-118497400D01*
X100634784Y-118510177D01*
X100865818Y-118536300D01*
X101546118Y-117856000D01*
X101531976Y-117841858D01*
X101585858Y-117787976D01*
X101600000Y-117802118D01*
X101614142Y-117787976D01*
X101668024Y-117841858D01*
X101653882Y-117856000D01*
X102334182Y-118536300D01*
X102565216Y-118510177D01*
X102674294Y-118309303D01*
X102742086Y-118091008D01*
X102765989Y-117863683D01*
X102745084Y-117636062D01*
X102680173Y-117416894D01*
X102590482Y-117246400D01*
X106952108Y-117246400D01*
X106847741Y-117402596D01*
X106775585Y-117576795D01*
X106738800Y-117761724D01*
X106738800Y-117950276D01*
X106775585Y-118135205D01*
X106847741Y-118309404D01*
X106952495Y-118466179D01*
X107085821Y-118599505D01*
X107162600Y-118650807D01*
X107162600Y-119086588D01*
X106846000Y-119086588D01*
X106756373Y-119095415D01*
X106670191Y-119121559D01*
X106590764Y-119164013D01*
X106521147Y-119221147D01*
X106464013Y-119290764D01*
X106421559Y-119370191D01*
X106395415Y-119456373D01*
X106386588Y-119546000D01*
X106386588Y-119949542D01*
X106369538Y-119893336D01*
X106248155Y-119666245D01*
X106084802Y-119467198D01*
X105885755Y-119303845D01*
X105658664Y-119182462D01*
X105412256Y-119107715D01*
X105220209Y-119088800D01*
X105091791Y-119088800D01*
X104899744Y-119107715D01*
X104653336Y-119182462D01*
X104426245Y-119303845D01*
X104227198Y-119467198D01*
X104063845Y-119666245D01*
X103942462Y-119893336D01*
X103867715Y-120139744D01*
X103842476Y-120396000D01*
X103867715Y-120652256D01*
X103907264Y-120782632D01*
X103125497Y-121564400D01*
X102546146Y-121564400D01*
X102682906Y-121448913D01*
X102867511Y-121217417D01*
X103003407Y-120954355D01*
X103085371Y-120669835D01*
X102944821Y-120434100D01*
X101638100Y-120434100D01*
X101638100Y-120454100D01*
X101561900Y-120454100D01*
X101561900Y-120434100D01*
X101541900Y-120434100D01*
X101541900Y-120357900D01*
X101561900Y-120357900D01*
X101561900Y-120337900D01*
X101638100Y-120337900D01*
X101638100Y-120357900D01*
X102944821Y-120357900D01*
X103085371Y-120122165D01*
X103003407Y-119837645D01*
X102867511Y-119574583D01*
X102682906Y-119343087D01*
X102456685Y-119152054D01*
X102197542Y-119008825D01*
X102003083Y-118946842D01*
X102039106Y-118936173D01*
X102241400Y-118829753D01*
X102254177Y-118821216D01*
X102280300Y-118590182D01*
X101600000Y-117909882D01*
X100919700Y-118590182D01*
X100945823Y-118821216D01*
X101146697Y-118930294D01*
X101198430Y-118946360D01*
X101002458Y-119008825D01*
X100743315Y-119152054D01*
X100517094Y-119343087D01*
X100332489Y-119574583D01*
X100219780Y-119792761D01*
X100152155Y-119666245D01*
X99988802Y-119467198D01*
X99789755Y-119303845D01*
X99593400Y-119198891D01*
X99593400Y-118650807D01*
X99670179Y-118599505D01*
X99803505Y-118466179D01*
X99908259Y-118309404D01*
X99980415Y-118135205D01*
X100017200Y-117950276D01*
X100017200Y-117761724D01*
X99980415Y-117576795D01*
X99908259Y-117402596D01*
X99803505Y-117245821D01*
X99670179Y-117112495D01*
X99513404Y-117007741D01*
X99339205Y-116935585D01*
X99154276Y-116898800D01*
X98965724Y-116898800D01*
X98780795Y-116935585D01*
X98606596Y-117007741D01*
X98449821Y-117112495D01*
X98316495Y-117245821D01*
X98211741Y-117402596D01*
X98139585Y-117576795D01*
X98102800Y-117761724D01*
X98102800Y-117950276D01*
X98139585Y-118135205D01*
X98211741Y-118309404D01*
X98316495Y-118466179D01*
X98449821Y-118599505D01*
X98526600Y-118650807D01*
X98526601Y-119198890D01*
X98330245Y-119303845D01*
X98131198Y-119467198D01*
X97967845Y-119666245D01*
X97846462Y-119893336D01*
X97790000Y-120079466D01*
X97733538Y-119893336D01*
X97612155Y-119666245D01*
X97448802Y-119467198D01*
X97249755Y-119303845D01*
X97053400Y-119198891D01*
X97053400Y-118650807D01*
X97130179Y-118599505D01*
X97263505Y-118466179D01*
X97368259Y-118309404D01*
X97440415Y-118135205D01*
X97477200Y-117950276D01*
X97477200Y-117761724D01*
X97440415Y-117576795D01*
X97368259Y-117402596D01*
X97263505Y-117245821D01*
X97130179Y-117112495D01*
X96973404Y-117007741D01*
X96799205Y-116935585D01*
X96614276Y-116898800D01*
X96425724Y-116898800D01*
X96240795Y-116935585D01*
X96066596Y-117007741D01*
X95909821Y-117112495D01*
X95776495Y-117245821D01*
X95671741Y-117402596D01*
X95599585Y-117576795D01*
X95562800Y-117761724D01*
X95562800Y-117950276D01*
X95599585Y-118135205D01*
X95671741Y-118309404D01*
X95776495Y-118466179D01*
X95909821Y-118599505D01*
X95986600Y-118650807D01*
X95986601Y-119198890D01*
X95790245Y-119303845D01*
X95591198Y-119467198D01*
X95427845Y-119666245D01*
X95306462Y-119893336D01*
X95250000Y-120079466D01*
X95193538Y-119893336D01*
X95072155Y-119666245D01*
X94908802Y-119467198D01*
X94709755Y-119303845D01*
X94513400Y-119198891D01*
X94513400Y-118650807D01*
X94590179Y-118599505D01*
X94723505Y-118466179D01*
X94828259Y-118309404D01*
X94900415Y-118135205D01*
X94937200Y-117950276D01*
X94937200Y-117761724D01*
X94900415Y-117576795D01*
X94828259Y-117402596D01*
X94723505Y-117245821D01*
X94590179Y-117112495D01*
X94433404Y-117007741D01*
X94259205Y-116935585D01*
X94074276Y-116898800D01*
X93885724Y-116898800D01*
X93700795Y-116935585D01*
X93526596Y-117007741D01*
X93369821Y-117112495D01*
X93236495Y-117245821D01*
X93131741Y-117402596D01*
X93059585Y-117576795D01*
X93022800Y-117761724D01*
X93022800Y-117950276D01*
X93059585Y-118135205D01*
X93131741Y-118309404D01*
X93236495Y-118466179D01*
X93369821Y-118599505D01*
X93446600Y-118650807D01*
X93446600Y-119198891D01*
X93250245Y-119303845D01*
X93051198Y-119467198D01*
X92887845Y-119666245D01*
X92766462Y-119893336D01*
X92749412Y-119949542D01*
X92749412Y-119546000D01*
X92740585Y-119456373D01*
X92714441Y-119370191D01*
X92671987Y-119290764D01*
X92614853Y-119221147D01*
X92545236Y-119164013D01*
X92465809Y-119121559D01*
X92379627Y-119095415D01*
X92290000Y-119086588D01*
X90590000Y-119086588D01*
X90500373Y-119095415D01*
X90414191Y-119121559D01*
X90334764Y-119164013D01*
X90265147Y-119221147D01*
X90208013Y-119290764D01*
X90165559Y-119370191D01*
X90139415Y-119456373D01*
X90130588Y-119546000D01*
X90130588Y-121246000D01*
X90139415Y-121335627D01*
X90165559Y-121421809D01*
X90208013Y-121501236D01*
X90265147Y-121570853D01*
X90334764Y-121627987D01*
X90414191Y-121670441D01*
X90500373Y-121696585D01*
X90590000Y-121705412D01*
X90849872Y-121705412D01*
X90874079Y-121785211D01*
X90930684Y-121891113D01*
X91006862Y-121983938D01*
X91030132Y-122003035D01*
X91257811Y-122230714D01*
X91122672Y-122205949D01*
X90847450Y-122120186D01*
X90584551Y-122001865D01*
X90337850Y-121852729D01*
X90110911Y-121674934D01*
X89907066Y-121471089D01*
X89729271Y-121244150D01*
X89580135Y-120997449D01*
X89461814Y-120734550D01*
X89376051Y-120459328D01*
X89324084Y-120175757D01*
X89306400Y-119883395D01*
X89306400Y-113357724D01*
X92006800Y-113357724D01*
X92006800Y-113546276D01*
X92043585Y-113731205D01*
X92115741Y-113905404D01*
X92220495Y-114062179D01*
X92353821Y-114195505D01*
X92510596Y-114300259D01*
X92684795Y-114372415D01*
X92869724Y-114409200D01*
X93058276Y-114409200D01*
X93243205Y-114372415D01*
X93417404Y-114300259D01*
X93574179Y-114195505D01*
X93707505Y-114062179D01*
X93812259Y-113905404D01*
X93884415Y-113731205D01*
X93921200Y-113546276D01*
X93921200Y-113357724D01*
X93884415Y-113172795D01*
X93812259Y-112998596D01*
X93707505Y-112841821D01*
X93574179Y-112708495D01*
X93417404Y-112603741D01*
X93243205Y-112531585D01*
X93058276Y-112494800D01*
X92869724Y-112494800D01*
X92684795Y-112531585D01*
X92510596Y-112603741D01*
X92353821Y-112708495D01*
X92220495Y-112841821D01*
X92115741Y-112998596D01*
X92043585Y-113172795D01*
X92006800Y-113357724D01*
X89306400Y-113357724D01*
X89306400Y-108957724D01*
X92006800Y-108957724D01*
X92006800Y-109146276D01*
X92043585Y-109331205D01*
X92115741Y-109505404D01*
X92220495Y-109662179D01*
X92353821Y-109795505D01*
X92510596Y-109900259D01*
X92684795Y-109972415D01*
X92869724Y-110009200D01*
X93058276Y-110009200D01*
X93243205Y-109972415D01*
X93417404Y-109900259D01*
X93574179Y-109795505D01*
X93707505Y-109662179D01*
X93812259Y-109505404D01*
X93884415Y-109331205D01*
X93921200Y-109146276D01*
X93921200Y-108957724D01*
X93884415Y-108772795D01*
X93812259Y-108598596D01*
X93707505Y-108441821D01*
X93574179Y-108308495D01*
X93417404Y-108203741D01*
X93243205Y-108131585D01*
X93058276Y-108094800D01*
X92869724Y-108094800D01*
X92684795Y-108131585D01*
X92510596Y-108203741D01*
X92353821Y-108308495D01*
X92220495Y-108441821D01*
X92115741Y-108598596D01*
X92043585Y-108772795D01*
X92006800Y-108957724D01*
X89306400Y-108957724D01*
X89306400Y-105598956D01*
X100939600Y-105598956D01*
X100939600Y-105729044D01*
X100964979Y-105856631D01*
X101014761Y-105976817D01*
X101087034Y-106084980D01*
X101179020Y-106176966D01*
X101287183Y-106249239D01*
X101407369Y-106299021D01*
X101534956Y-106324400D01*
X101665044Y-106324400D01*
X101668107Y-106323791D01*
X101751821Y-106407505D01*
X101908596Y-106512259D01*
X102082795Y-106584415D01*
X102267724Y-106621200D01*
X102456276Y-106621200D01*
X102641205Y-106584415D01*
X102815404Y-106512259D01*
X102972179Y-106407505D01*
X103105505Y-106274179D01*
X103210259Y-106117404D01*
X103282415Y-105943205D01*
X103319200Y-105758276D01*
X103319200Y-105569724D01*
X103282415Y-105384795D01*
X103210259Y-105210596D01*
X103105505Y-105053821D01*
X102972179Y-104920495D01*
X102815404Y-104815741D01*
X102641205Y-104743585D01*
X102456276Y-104706800D01*
X102267724Y-104706800D01*
X102082795Y-104743585D01*
X101908596Y-104815741D01*
X101751821Y-104920495D01*
X101668107Y-105004209D01*
X101665044Y-105003600D01*
X101534956Y-105003600D01*
X101407369Y-105028979D01*
X101287183Y-105078761D01*
X101179020Y-105151034D01*
X101087034Y-105243020D01*
X101014761Y-105351183D01*
X100964979Y-105471369D01*
X100939600Y-105598956D01*
X89306400Y-105598956D01*
X89306400Y-102620605D01*
X89324084Y-102328243D01*
X89376051Y-102044672D01*
X89461814Y-101769450D01*
X89580135Y-101506551D01*
X89729271Y-101259850D01*
X89907066Y-101032911D01*
X90110911Y-100829066D01*
X90337850Y-100651271D01*
X90584551Y-100502135D01*
X90847450Y-100383814D01*
X91122672Y-100298051D01*
X91406243Y-100246084D01*
X91698605Y-100228400D01*
X117728061Y-100228400D01*
X117739291Y-100342420D01*
G36*
X129065757Y-100246084D02*
G01*
X129349328Y-100298051D01*
X129624550Y-100383814D01*
X129887449Y-100502135D01*
X130134150Y-100651271D01*
X130141207Y-100656800D01*
X130098327Y-100656800D01*
X129836119Y-100708956D01*
X129589125Y-100811265D01*
X129366835Y-100959794D01*
X129177794Y-101148835D01*
X129078298Y-101297742D01*
X129008595Y-101162506D01*
X128982518Y-101123478D01*
X128710540Y-101049342D01*
X127745882Y-102014000D01*
X128710540Y-102978658D01*
X128982518Y-102904522D01*
X129078706Y-102730869D01*
X129177794Y-102879165D01*
X129366835Y-103068206D01*
X129589125Y-103216735D01*
X129836119Y-103319044D01*
X130098327Y-103371200D01*
X130365673Y-103371200D01*
X130627881Y-103319044D01*
X130874875Y-103216735D01*
X131097165Y-103068206D01*
X131165600Y-102999771D01*
X131165600Y-105012588D01*
X127640000Y-105012588D01*
X127550373Y-105021415D01*
X127464191Y-105047559D01*
X127384764Y-105090013D01*
X127315147Y-105147147D01*
X127258013Y-105216764D01*
X127215559Y-105296191D01*
X127189415Y-105382373D01*
X127181691Y-105460800D01*
X126126188Y-105460800D01*
X121779388Y-101114000D01*
X123792588Y-101114000D01*
X123792588Y-102914000D01*
X123801415Y-103003627D01*
X123827559Y-103089809D01*
X123870013Y-103169236D01*
X123927147Y-103238853D01*
X123996764Y-103295987D01*
X124076191Y-103338441D01*
X124162373Y-103364585D01*
X124252000Y-103373412D01*
X126052000Y-103373412D01*
X126141627Y-103364585D01*
X126227809Y-103338441D01*
X126307236Y-103295987D01*
X126376853Y-103238853D01*
X126433987Y-103169236D01*
X126476441Y-103089809D01*
X126493814Y-103032540D01*
X126727342Y-103032540D01*
X126801478Y-103304518D01*
X127070357Y-103453453D01*
X127363125Y-103547071D01*
X127668531Y-103581775D01*
X127974839Y-103556229D01*
X128270278Y-103471416D01*
X128543494Y-103330595D01*
X128582522Y-103304518D01*
X128656658Y-103032540D01*
X127692000Y-102067882D01*
X126727342Y-103032540D01*
X126493814Y-103032540D01*
X126502585Y-103003627D01*
X126509447Y-102933951D01*
X126673460Y-102978658D01*
X127638118Y-102014000D01*
X126673460Y-101049342D01*
X126509447Y-101094049D01*
X126502585Y-101024373D01*
X126493815Y-100995460D01*
X126727342Y-100995460D01*
X127692000Y-101960118D01*
X128656658Y-100995460D01*
X128582522Y-100723482D01*
X128313643Y-100574547D01*
X128020875Y-100480929D01*
X127715469Y-100446225D01*
X127409161Y-100471771D01*
X127113722Y-100556584D01*
X126840506Y-100697405D01*
X126801478Y-100723482D01*
X126727342Y-100995460D01*
X126493815Y-100995460D01*
X126476441Y-100938191D01*
X126433987Y-100858764D01*
X126376853Y-100789147D01*
X126307236Y-100732013D01*
X126227809Y-100689559D01*
X126141627Y-100663415D01*
X126052000Y-100654588D01*
X124252000Y-100654588D01*
X124162373Y-100663415D01*
X124076191Y-100689559D01*
X123996764Y-100732013D01*
X123927147Y-100789147D01*
X123870013Y-100858764D01*
X123827559Y-100938191D01*
X123801415Y-101024373D01*
X123792588Y-101114000D01*
X121779388Y-101114000D01*
X120893787Y-100228400D01*
X128773395Y-100228400D01*
X129065757Y-100246084D01*
X129065757Y-100246084D01*
G37*
X129065757Y-100246084D02*
X129349328Y-100298051D01*
X129624550Y-100383814D01*
X129887449Y-100502135D01*
X130134150Y-100651271D01*
X130141207Y-100656800D01*
X130098327Y-100656800D01*
X129836119Y-100708956D01*
X129589125Y-100811265D01*
X129366835Y-100959794D01*
X129177794Y-101148835D01*
X129078298Y-101297742D01*
X129008595Y-101162506D01*
X128982518Y-101123478D01*
X128710540Y-101049342D01*
X127745882Y-102014000D01*
X128710540Y-102978658D01*
X128982518Y-102904522D01*
X129078706Y-102730869D01*
X129177794Y-102879165D01*
X129366835Y-103068206D01*
X129589125Y-103216735D01*
X129836119Y-103319044D01*
X130098327Y-103371200D01*
X130365673Y-103371200D01*
X130627881Y-103319044D01*
X130874875Y-103216735D01*
X131097165Y-103068206D01*
X131165600Y-102999771D01*
X131165600Y-105012588D01*
X127640000Y-105012588D01*
X127550373Y-105021415D01*
X127464191Y-105047559D01*
X127384764Y-105090013D01*
X127315147Y-105147147D01*
X127258013Y-105216764D01*
X127215559Y-105296191D01*
X127189415Y-105382373D01*
X127181691Y-105460800D01*
X126126188Y-105460800D01*
X121779388Y-101114000D01*
X123792588Y-101114000D01*
X123792588Y-102914000D01*
X123801415Y-103003627D01*
X123827559Y-103089809D01*
X123870013Y-103169236D01*
X123927147Y-103238853D01*
X123996764Y-103295987D01*
X124076191Y-103338441D01*
X124162373Y-103364585D01*
X124252000Y-103373412D01*
X126052000Y-103373412D01*
X126141627Y-103364585D01*
X126227809Y-103338441D01*
X126307236Y-103295987D01*
X126376853Y-103238853D01*
X126433987Y-103169236D01*
X126476441Y-103089809D01*
X126493814Y-103032540D01*
X126727342Y-103032540D01*
X126801478Y-103304518D01*
X127070357Y-103453453D01*
X127363125Y-103547071D01*
X127668531Y-103581775D01*
X127974839Y-103556229D01*
X128270278Y-103471416D01*
X128543494Y-103330595D01*
X128582522Y-103304518D01*
X128656658Y-103032540D01*
X127692000Y-102067882D01*
X126727342Y-103032540D01*
X126493814Y-103032540D01*
X126502585Y-103003627D01*
X126509447Y-102933951D01*
X126673460Y-102978658D01*
X127638118Y-102014000D01*
X126673460Y-101049342D01*
X126509447Y-101094049D01*
X126502585Y-101024373D01*
X126493815Y-100995460D01*
X126727342Y-100995460D01*
X127692000Y-101960118D01*
X128656658Y-100995460D01*
X128582522Y-100723482D01*
X128313643Y-100574547D01*
X128020875Y-100480929D01*
X127715469Y-100446225D01*
X127409161Y-100471771D01*
X127113722Y-100556584D01*
X126840506Y-100697405D01*
X126801478Y-100723482D01*
X126727342Y-100995460D01*
X126493815Y-100995460D01*
X126476441Y-100938191D01*
X126433987Y-100858764D01*
X126376853Y-100789147D01*
X126307236Y-100732013D01*
X126227809Y-100689559D01*
X126141627Y-100663415D01*
X126052000Y-100654588D01*
X124252000Y-100654588D01*
X124162373Y-100663415D01*
X124076191Y-100689559D01*
X123996764Y-100732013D01*
X123927147Y-100789147D01*
X123870013Y-100858764D01*
X123827559Y-100938191D01*
X123801415Y-101024373D01*
X123792588Y-101114000D01*
X121779388Y-101114000D01*
X120893787Y-100228400D01*
X128773395Y-100228400D01*
X129065757Y-100246084D01*
M02*
