G04 #@! TF.GenerationSoftware,KiCad,Pcbnew,(5.1.4)-1*
G04 #@! TF.CreationDate,2019-11-22T21:00:23+08:00*
G04 #@! TF.ProjectId,vllink_lite.r3,766c6c69-6e6b-45f6-9c69-74652e72332e,rev?*
G04 #@! TF.SameCoordinates,Original*
G04 #@! TF.FileFunction,Legend,Top*
G04 #@! TF.FilePolarity,Positive*
%FSLAX46Y46*%
G04 Gerber Fmt 4.6, Leading zero omitted, Abs format (unit mm)*
G04 Created by KiCad (PCBNEW (5.1.4)-1) date 2019-11-22 21:00:23*
%MOMM*%
%LPD*%
G04 APERTURE LIST*
%ADD10C,0.120000*%
%ADD11C,0.150000*%
G04 APERTURE END LIST*
D10*
X90110000Y-121726000D02*
X90110000Y-120396000D01*
X91440000Y-121726000D02*
X90110000Y-121726000D01*
X92710000Y-121726000D02*
X92710000Y-119066000D01*
X92710000Y-119066000D02*
X102930000Y-119066000D01*
X92710000Y-121726000D02*
X102930000Y-121726000D01*
X102930000Y-121726000D02*
X102930000Y-119066000D01*
X130042000Y-117714000D02*
X125242000Y-117714000D01*
X130042000Y-122514000D02*
X130042000Y-117714000D01*
X125242000Y-122514000D02*
X130042000Y-122514000D01*
X125242000Y-117714000D02*
X125242000Y-122514000D01*
X114239000Y-111555000D02*
X113714000Y-111555000D01*
X117934000Y-115775000D02*
X117934000Y-115250000D01*
X117409000Y-115775000D02*
X117934000Y-115775000D01*
X113714000Y-115775000D02*
X113714000Y-115250000D01*
X114239000Y-115775000D02*
X113714000Y-115775000D01*
X117934000Y-111555000D02*
X117934000Y-112080000D01*
X117409000Y-111555000D02*
X117934000Y-111555000D01*
X112341000Y-110644000D02*
X111051000Y-110644000D01*
X112341000Y-110194000D02*
X112341000Y-110644000D01*
X112791000Y-110194000D02*
X112341000Y-110194000D01*
X119561000Y-110194000D02*
X119561000Y-110644000D01*
X119111000Y-110194000D02*
X119561000Y-110194000D01*
X112341000Y-117414000D02*
X112341000Y-116964000D01*
X112791000Y-117414000D02*
X112341000Y-117414000D01*
X119561000Y-117414000D02*
X119561000Y-116964000D01*
X119111000Y-117414000D02*
X119561000Y-117414000D01*
X109026000Y-119066000D02*
X109026000Y-120396000D01*
X107696000Y-119066000D02*
X109026000Y-119066000D01*
X106426000Y-119066000D02*
X106426000Y-121726000D01*
X106426000Y-121726000D02*
X103826000Y-121726000D01*
X106426000Y-119066000D02*
X103826000Y-119066000D01*
X103826000Y-119066000D02*
X103826000Y-121726000D01*
X115247000Y-105335000D02*
X116922000Y-105335000D01*
X115247000Y-105595000D02*
X115247000Y-105335000D01*
X112522000Y-105595000D02*
X115247000Y-105595000D01*
X109797000Y-105595000D02*
X109797000Y-105335000D01*
X112522000Y-105595000D02*
X109797000Y-105595000D01*
X115247000Y-100145000D02*
X115247000Y-100405000D01*
X112522000Y-100145000D02*
X115247000Y-100145000D01*
X109797000Y-100145000D02*
X109797000Y-100405000D01*
X112522000Y-100145000D02*
X109797000Y-100145000D01*
X99024000Y-99968000D02*
X105034000Y-99968000D01*
X101274000Y-106788000D02*
X105034000Y-106788000D01*
X105034000Y-99968000D02*
X105034000Y-101228000D01*
X105034000Y-106788000D02*
X105034000Y-105528000D01*
X114899221Y-107190000D02*
X115224779Y-107190000D01*
X114899221Y-106170000D02*
X115224779Y-106170000D01*
X111851221Y-107190000D02*
X112176779Y-107190000D01*
X111851221Y-106170000D02*
X112176779Y-106170000D01*
X111250000Y-120487221D02*
X111250000Y-120812779D01*
X112270000Y-120487221D02*
X112270000Y-120812779D01*
X109726000Y-120487221D02*
X109726000Y-120812779D01*
X110746000Y-120487221D02*
X110746000Y-120812779D01*
X110238000Y-115504279D02*
X110238000Y-115178721D01*
X109218000Y-115504279D02*
X109218000Y-115178721D01*
X124805221Y-117096000D02*
X125130779Y-117096000D01*
X124805221Y-116076000D02*
X125130779Y-116076000D01*
X125130779Y-114552000D02*
X124805221Y-114552000D01*
X125130779Y-115572000D02*
X124805221Y-115572000D01*
X124805221Y-114048000D02*
X125130779Y-114048000D01*
X124805221Y-113028000D02*
X125130779Y-113028000D01*
X125130779Y-111504000D02*
X124805221Y-111504000D01*
X125130779Y-112524000D02*
X124805221Y-112524000D01*
X124805221Y-111000000D02*
X125130779Y-111000000D01*
X124805221Y-109980000D02*
X125130779Y-109980000D01*
X125130779Y-108456000D02*
X124805221Y-108456000D01*
X125130779Y-109476000D02*
X124805221Y-109476000D01*
X125130779Y-106932000D02*
X124805221Y-106932000D01*
X125130779Y-107952000D02*
X124805221Y-107952000D01*
X125130779Y-105408000D02*
X124805221Y-105408000D01*
X125130779Y-106428000D02*
X124805221Y-106428000D01*
X121503221Y-101602000D02*
X121828779Y-101602000D01*
X121503221Y-100582000D02*
X121828779Y-100582000D01*
X121503221Y-103126000D02*
X121828779Y-103126000D01*
X121503221Y-102106000D02*
X121828779Y-102106000D01*
X100238779Y-107694000D02*
X99913221Y-107694000D01*
X100238779Y-108714000D02*
X99913221Y-108714000D01*
X100238779Y-109218000D02*
X99913221Y-109218000D01*
X100238779Y-110238000D02*
X99913221Y-110238000D01*
X126132000Y-103094000D02*
X126132000Y-103250000D01*
X126132000Y-100778000D02*
X126132000Y-100934000D01*
X128733130Y-103093837D02*
G75*
G02X126651039Y-103094000I-1041130J1079837D01*
G01*
X128733130Y-100934163D02*
G75*
G03X126651039Y-100934000I-1041130J-1079837D01*
G01*
X129364335Y-103092608D02*
G75*
G02X126132000Y-103249516I-1672335J1078608D01*
G01*
X129364335Y-100935392D02*
G75*
G03X126132000Y-100778484I-1672335J-1078608D01*
G01*
X87054000Y-107342000D02*
X89004000Y-107342000D01*
X91224000Y-107342000D02*
X94454000Y-107342000D01*
X96374000Y-108062000D02*
X96374000Y-109142000D01*
X96374000Y-113362000D02*
X96374000Y-114442000D01*
X91224000Y-115162000D02*
X94454000Y-115162000D01*
X87054000Y-115162000D02*
X89004000Y-115162000D01*
X96374000Y-109142000D02*
X96804000Y-109142000D01*
X87054000Y-115162000D02*
X87054000Y-107342000D01*
D11*
X131572000Y-108077000D02*
X131572000Y-117602000D01*
X127508000Y-117602000D02*
X127508000Y-104902000D01*
X131572000Y-104902000D02*
X131572000Y-106934000D01*
X129540000Y-104902000D02*
X131572000Y-104902000D01*
X127508000Y-117602000D02*
X131572000Y-117602000D01*
D10*
X99824000Y-114716779D02*
X99824000Y-114391221D01*
X98804000Y-114716779D02*
X98804000Y-114391221D01*
X109218000Y-107279221D02*
X109218000Y-107604779D01*
X110238000Y-107279221D02*
X110238000Y-107604779D01*
X119288779Y-119632000D02*
X118963221Y-119632000D01*
X119288779Y-120652000D02*
X118963221Y-120652000D01*
X110238000Y-112405279D02*
X110238000Y-112079721D01*
X109218000Y-112405279D02*
X109218000Y-112079721D01*
X97538000Y-101508779D02*
X97538000Y-101183221D01*
X96518000Y-101508779D02*
X96518000Y-101183221D01*
X95760000Y-101508779D02*
X95760000Y-101183221D01*
X94740000Y-101508779D02*
X94740000Y-101183221D01*
X96403279Y-103376000D02*
X96077721Y-103376000D01*
X96403279Y-104396000D02*
X96077721Y-104396000D01*
D11*
X91106666Y-117816380D02*
X91106666Y-118530666D01*
X91059047Y-118673523D01*
X90963809Y-118768761D01*
X90820952Y-118816380D01*
X90725714Y-118816380D01*
X91535238Y-117911619D02*
X91582857Y-117864000D01*
X91678095Y-117816380D01*
X91916190Y-117816380D01*
X92011428Y-117864000D01*
X92059047Y-117911619D01*
X92106666Y-118006857D01*
X92106666Y-118102095D01*
X92059047Y-118244952D01*
X91487619Y-118816380D01*
X92106666Y-118816380D01*
X121094666Y-122324761D02*
X121237523Y-122372380D01*
X121475619Y-122372380D01*
X121570857Y-122324761D01*
X121618476Y-122277142D01*
X121666095Y-122181904D01*
X121666095Y-122086666D01*
X121618476Y-121991428D01*
X121570857Y-121943809D01*
X121475619Y-121896190D01*
X121285142Y-121848571D01*
X121189904Y-121800952D01*
X121142285Y-121753333D01*
X121094666Y-121658095D01*
X121094666Y-121562857D01*
X121142285Y-121467619D01*
X121189904Y-121420000D01*
X121285142Y-121372380D01*
X121523238Y-121372380D01*
X121666095Y-121420000D01*
X121999428Y-121372380D02*
X122237523Y-122372380D01*
X122428000Y-121658095D01*
X122618476Y-122372380D01*
X122856571Y-121372380D01*
X123761333Y-122372380D02*
X123189904Y-122372380D01*
X123475619Y-122372380D02*
X123475619Y-121372380D01*
X123380380Y-121515238D01*
X123285142Y-121610476D01*
X123189904Y-121658095D01*
X116008333Y-116329666D02*
X116008333Y-116896333D01*
X116041666Y-116963000D01*
X116075000Y-116996333D01*
X116141666Y-117029666D01*
X116275000Y-117029666D01*
X116341666Y-116996333D01*
X116375000Y-116963000D01*
X116408333Y-116896333D01*
X116408333Y-116329666D01*
X117108333Y-117029666D02*
X116708333Y-117029666D01*
X116908333Y-117029666D02*
X116908333Y-116329666D01*
X116841666Y-116429666D01*
X116775000Y-116496333D01*
X116708333Y-116529666D01*
X117241666Y-117096333D02*
X117775000Y-117096333D01*
X117908333Y-116396333D02*
X117941666Y-116363000D01*
X118008333Y-116329666D01*
X118175000Y-116329666D01*
X118241666Y-116363000D01*
X118275000Y-116396333D01*
X118308333Y-116463000D01*
X118308333Y-116529666D01*
X118275000Y-116629666D01*
X117875000Y-117029666D01*
X118308333Y-117029666D01*
X118708333Y-116629666D02*
X118641666Y-116596333D01*
X118608333Y-116563000D01*
X118575000Y-116496333D01*
X118575000Y-116463000D01*
X118608333Y-116396333D01*
X118641666Y-116363000D01*
X118708333Y-116329666D01*
X118841666Y-116329666D01*
X118908333Y-116363000D01*
X118941666Y-116396333D01*
X118975000Y-116463000D01*
X118975000Y-116496333D01*
X118941666Y-116563000D01*
X118908333Y-116596333D01*
X118841666Y-116629666D01*
X118708333Y-116629666D01*
X118641666Y-116663000D01*
X118608333Y-116696333D01*
X118575000Y-116763000D01*
X118575000Y-116896333D01*
X118608333Y-116963000D01*
X118641666Y-116996333D01*
X118708333Y-117029666D01*
X118841666Y-117029666D01*
X118908333Y-116996333D01*
X118941666Y-116963000D01*
X118975000Y-116896333D01*
X118975000Y-116763000D01*
X118941666Y-116696333D01*
X118908333Y-116663000D01*
X118841666Y-116629666D01*
X119310333Y-117726666D02*
X119310333Y-118293333D01*
X119343666Y-118360000D01*
X119377000Y-118393333D01*
X119443666Y-118426666D01*
X119577000Y-118426666D01*
X119643666Y-118393333D01*
X119677000Y-118360000D01*
X119710333Y-118293333D01*
X119710333Y-117726666D01*
X120410333Y-118426666D02*
X120010333Y-118426666D01*
X120210333Y-118426666D02*
X120210333Y-117726666D01*
X120143666Y-117826666D01*
X120077000Y-117893333D01*
X120010333Y-117926666D01*
X120543666Y-118493333D02*
X121077000Y-118493333D01*
X121543666Y-117960000D02*
X121543666Y-118426666D01*
X121377000Y-117693333D02*
X121210333Y-118193333D01*
X121643666Y-118193333D01*
X122010333Y-118026666D02*
X121943666Y-117993333D01*
X121910333Y-117960000D01*
X121877000Y-117893333D01*
X121877000Y-117860000D01*
X121910333Y-117793333D01*
X121943666Y-117760000D01*
X122010333Y-117726666D01*
X122143666Y-117726666D01*
X122210333Y-117760000D01*
X122243666Y-117793333D01*
X122277000Y-117860000D01*
X122277000Y-117893333D01*
X122243666Y-117960000D01*
X122210333Y-117993333D01*
X122143666Y-118026666D01*
X122010333Y-118026666D01*
X121943666Y-118060000D01*
X121910333Y-118093333D01*
X121877000Y-118160000D01*
X121877000Y-118293333D01*
X121910333Y-118360000D01*
X121943666Y-118393333D01*
X122010333Y-118426666D01*
X122143666Y-118426666D01*
X122210333Y-118393333D01*
X122243666Y-118360000D01*
X122277000Y-118293333D01*
X122277000Y-118160000D01*
X122243666Y-118093333D01*
X122210333Y-118060000D01*
X122143666Y-118026666D01*
X104568666Y-117562380D02*
X104568666Y-118276666D01*
X104521047Y-118419523D01*
X104425809Y-118514761D01*
X104282952Y-118562380D01*
X104187714Y-118562380D01*
X104949619Y-117562380D02*
X105568666Y-117562380D01*
X105235333Y-117943333D01*
X105378190Y-117943333D01*
X105473428Y-117990952D01*
X105521047Y-118038571D01*
X105568666Y-118133809D01*
X105568666Y-118371904D01*
X105521047Y-118467142D01*
X105473428Y-118514761D01*
X105378190Y-118562380D01*
X105092476Y-118562380D01*
X104997238Y-118514761D01*
X104949619Y-118467142D01*
X117602095Y-104354380D02*
X117602095Y-105163904D01*
X117649714Y-105259142D01*
X117697333Y-105306761D01*
X117792571Y-105354380D01*
X117983047Y-105354380D01*
X118078285Y-105306761D01*
X118125904Y-105259142D01*
X118173523Y-105163904D01*
X118173523Y-104354380D01*
X118554476Y-104354380D02*
X119173523Y-104354380D01*
X118840190Y-104735333D01*
X118983047Y-104735333D01*
X119078285Y-104782952D01*
X119125904Y-104830571D01*
X119173523Y-104925809D01*
X119173523Y-105163904D01*
X119125904Y-105259142D01*
X119078285Y-105306761D01*
X118983047Y-105354380D01*
X118697333Y-105354380D01*
X118602095Y-105306761D01*
X118554476Y-105259142D01*
X105664095Y-105878380D02*
X105664095Y-106687904D01*
X105711714Y-106783142D01*
X105759333Y-106830761D01*
X105854571Y-106878380D01*
X106045047Y-106878380D01*
X106140285Y-106830761D01*
X106187904Y-106783142D01*
X106235523Y-106687904D01*
X106235523Y-105878380D01*
X106664095Y-105973619D02*
X106711714Y-105926000D01*
X106806952Y-105878380D01*
X107045047Y-105878380D01*
X107140285Y-105926000D01*
X107187904Y-105973619D01*
X107235523Y-106068857D01*
X107235523Y-106164095D01*
X107187904Y-106306952D01*
X106616476Y-106878380D01*
X107235523Y-106878380D01*
X114419142Y-108402380D02*
X114085809Y-107926190D01*
X113847714Y-108402380D02*
X113847714Y-107402380D01*
X114228666Y-107402380D01*
X114323904Y-107450000D01*
X114371523Y-107497619D01*
X114419142Y-107592857D01*
X114419142Y-107735714D01*
X114371523Y-107830952D01*
X114323904Y-107878571D01*
X114228666Y-107926190D01*
X113847714Y-107926190D01*
X115371523Y-108402380D02*
X114800095Y-108402380D01*
X115085809Y-108402380D02*
X115085809Y-107402380D01*
X114990571Y-107545238D01*
X114895333Y-107640476D01*
X114800095Y-107688095D01*
X115704857Y-107402380D02*
X116371523Y-107402380D01*
X115942952Y-108402380D01*
X111371142Y-108402380D02*
X111037809Y-107926190D01*
X110799714Y-108402380D02*
X110799714Y-107402380D01*
X111180666Y-107402380D01*
X111275904Y-107450000D01*
X111323523Y-107497619D01*
X111371142Y-107592857D01*
X111371142Y-107735714D01*
X111323523Y-107830952D01*
X111275904Y-107878571D01*
X111180666Y-107926190D01*
X110799714Y-107926190D01*
X112323523Y-108402380D02*
X111752095Y-108402380D01*
X112037809Y-108402380D02*
X112037809Y-107402380D01*
X111942571Y-107545238D01*
X111847333Y-107640476D01*
X111752095Y-107688095D01*
X113180666Y-107402380D02*
X112990190Y-107402380D01*
X112894952Y-107450000D01*
X112847333Y-107497619D01*
X112752095Y-107640476D01*
X112704476Y-107830952D01*
X112704476Y-108211904D01*
X112752095Y-108307142D01*
X112799714Y-108354761D01*
X112894952Y-108402380D01*
X113085428Y-108402380D01*
X113180666Y-108354761D01*
X113228285Y-108307142D01*
X113275904Y-108211904D01*
X113275904Y-107973809D01*
X113228285Y-107878571D01*
X113180666Y-107830952D01*
X113085428Y-107783333D01*
X112894952Y-107783333D01*
X112799714Y-107830952D01*
X112752095Y-107878571D01*
X112704476Y-107973809D01*
X115260380Y-121546857D02*
X114784190Y-121880190D01*
X115260380Y-122118285D02*
X114260380Y-122118285D01*
X114260380Y-121737333D01*
X114308000Y-121642095D01*
X114355619Y-121594476D01*
X114450857Y-121546857D01*
X114593714Y-121546857D01*
X114688952Y-121594476D01*
X114736571Y-121642095D01*
X114784190Y-121737333D01*
X114784190Y-122118285D01*
X115260380Y-120594476D02*
X115260380Y-121165904D01*
X115260380Y-120880190D02*
X114260380Y-120880190D01*
X114403238Y-120975428D01*
X114498476Y-121070666D01*
X114546095Y-121165904D01*
X114260380Y-119689714D02*
X114260380Y-120165904D01*
X114736571Y-120213523D01*
X114688952Y-120165904D01*
X114641333Y-120070666D01*
X114641333Y-119832571D01*
X114688952Y-119737333D01*
X114736571Y-119689714D01*
X114831809Y-119642095D01*
X115069904Y-119642095D01*
X115165142Y-119689714D01*
X115212761Y-119737333D01*
X115260380Y-119832571D01*
X115260380Y-120070666D01*
X115212761Y-120165904D01*
X115165142Y-120213523D01*
X113990380Y-121546857D02*
X113514190Y-121880190D01*
X113990380Y-122118285D02*
X112990380Y-122118285D01*
X112990380Y-121737333D01*
X113038000Y-121642095D01*
X113085619Y-121594476D01*
X113180857Y-121546857D01*
X113323714Y-121546857D01*
X113418952Y-121594476D01*
X113466571Y-121642095D01*
X113514190Y-121737333D01*
X113514190Y-122118285D01*
X113990380Y-120594476D02*
X113990380Y-121165904D01*
X113990380Y-120880190D02*
X112990380Y-120880190D01*
X113133238Y-120975428D01*
X113228476Y-121070666D01*
X113276095Y-121165904D01*
X113323714Y-119737333D02*
X113990380Y-119737333D01*
X112942761Y-119975428D02*
X113657047Y-120213523D01*
X113657047Y-119594476D01*
X110180380Y-118498857D02*
X109704190Y-118832190D01*
X110180380Y-119070285D02*
X109180380Y-119070285D01*
X109180380Y-118689333D01*
X109228000Y-118594095D01*
X109275619Y-118546476D01*
X109370857Y-118498857D01*
X109513714Y-118498857D01*
X109608952Y-118546476D01*
X109656571Y-118594095D01*
X109704190Y-118689333D01*
X109704190Y-119070285D01*
X110180380Y-117546476D02*
X110180380Y-118117904D01*
X110180380Y-117832190D02*
X109180380Y-117832190D01*
X109323238Y-117927428D01*
X109418476Y-118022666D01*
X109466095Y-118117904D01*
X109180380Y-117213142D02*
X109180380Y-116594095D01*
X109561333Y-116927428D01*
X109561333Y-116784571D01*
X109608952Y-116689333D01*
X109656571Y-116641714D01*
X109751809Y-116594095D01*
X109989904Y-116594095D01*
X110085142Y-116641714D01*
X110132761Y-116689333D01*
X110180380Y-116784571D01*
X110180380Y-117070285D01*
X110132761Y-117165523D01*
X110085142Y-117213142D01*
X121785142Y-117038380D02*
X121451809Y-116562190D01*
X121213714Y-117038380D02*
X121213714Y-116038380D01*
X121594666Y-116038380D01*
X121689904Y-116086000D01*
X121737523Y-116133619D01*
X121785142Y-116228857D01*
X121785142Y-116371714D01*
X121737523Y-116466952D01*
X121689904Y-116514571D01*
X121594666Y-116562190D01*
X121213714Y-116562190D01*
X122737523Y-117038380D02*
X122166095Y-117038380D01*
X122451809Y-117038380D02*
X122451809Y-116038380D01*
X122356571Y-116181238D01*
X122261333Y-116276476D01*
X122166095Y-116324095D01*
X123118476Y-116133619D02*
X123166095Y-116086000D01*
X123261333Y-116038380D01*
X123499428Y-116038380D01*
X123594666Y-116086000D01*
X123642285Y-116133619D01*
X123689904Y-116228857D01*
X123689904Y-116324095D01*
X123642285Y-116466952D01*
X123070857Y-117038380D01*
X123689904Y-117038380D01*
X121785142Y-115514380D02*
X121451809Y-115038190D01*
X121213714Y-115514380D02*
X121213714Y-114514380D01*
X121594666Y-114514380D01*
X121689904Y-114562000D01*
X121737523Y-114609619D01*
X121785142Y-114704857D01*
X121785142Y-114847714D01*
X121737523Y-114942952D01*
X121689904Y-114990571D01*
X121594666Y-115038190D01*
X121213714Y-115038190D01*
X122737523Y-115514380D02*
X122166095Y-115514380D01*
X122451809Y-115514380D02*
X122451809Y-114514380D01*
X122356571Y-114657238D01*
X122261333Y-114752476D01*
X122166095Y-114800095D01*
X123689904Y-115514380D02*
X123118476Y-115514380D01*
X123404190Y-115514380D02*
X123404190Y-114514380D01*
X123308952Y-114657238D01*
X123213714Y-114752476D01*
X123118476Y-114800095D01*
X121785142Y-113990380D02*
X121451809Y-113514190D01*
X121213714Y-113990380D02*
X121213714Y-112990380D01*
X121594666Y-112990380D01*
X121689904Y-113038000D01*
X121737523Y-113085619D01*
X121785142Y-113180857D01*
X121785142Y-113323714D01*
X121737523Y-113418952D01*
X121689904Y-113466571D01*
X121594666Y-113514190D01*
X121213714Y-113514190D01*
X122737523Y-113990380D02*
X122166095Y-113990380D01*
X122451809Y-113990380D02*
X122451809Y-112990380D01*
X122356571Y-113133238D01*
X122261333Y-113228476D01*
X122166095Y-113276095D01*
X123356571Y-112990380D02*
X123451809Y-112990380D01*
X123547047Y-113038000D01*
X123594666Y-113085619D01*
X123642285Y-113180857D01*
X123689904Y-113371333D01*
X123689904Y-113609428D01*
X123642285Y-113799904D01*
X123594666Y-113895142D01*
X123547047Y-113942761D01*
X123451809Y-113990380D01*
X123356571Y-113990380D01*
X123261333Y-113942761D01*
X123213714Y-113895142D01*
X123166095Y-113799904D01*
X123118476Y-113609428D01*
X123118476Y-113371333D01*
X123166095Y-113180857D01*
X123213714Y-113085619D01*
X123261333Y-113038000D01*
X123356571Y-112990380D01*
X122261333Y-112466380D02*
X121928000Y-111990190D01*
X121689904Y-112466380D02*
X121689904Y-111466380D01*
X122070857Y-111466380D01*
X122166095Y-111514000D01*
X122213714Y-111561619D01*
X122261333Y-111656857D01*
X122261333Y-111799714D01*
X122213714Y-111894952D01*
X122166095Y-111942571D01*
X122070857Y-111990190D01*
X121689904Y-111990190D01*
X122737523Y-112466380D02*
X122928000Y-112466380D01*
X123023238Y-112418761D01*
X123070857Y-112371142D01*
X123166095Y-112228285D01*
X123213714Y-112037809D01*
X123213714Y-111656857D01*
X123166095Y-111561619D01*
X123118476Y-111514000D01*
X123023238Y-111466380D01*
X122832761Y-111466380D01*
X122737523Y-111514000D01*
X122689904Y-111561619D01*
X122642285Y-111656857D01*
X122642285Y-111894952D01*
X122689904Y-111990190D01*
X122737523Y-112037809D01*
X122832761Y-112085428D01*
X123023238Y-112085428D01*
X123118476Y-112037809D01*
X123166095Y-111990190D01*
X123213714Y-111894952D01*
X122261333Y-110942380D02*
X121928000Y-110466190D01*
X121689904Y-110942380D02*
X121689904Y-109942380D01*
X122070857Y-109942380D01*
X122166095Y-109990000D01*
X122213714Y-110037619D01*
X122261333Y-110132857D01*
X122261333Y-110275714D01*
X122213714Y-110370952D01*
X122166095Y-110418571D01*
X122070857Y-110466190D01*
X121689904Y-110466190D01*
X122832761Y-110370952D02*
X122737523Y-110323333D01*
X122689904Y-110275714D01*
X122642285Y-110180476D01*
X122642285Y-110132857D01*
X122689904Y-110037619D01*
X122737523Y-109990000D01*
X122832761Y-109942380D01*
X123023238Y-109942380D01*
X123118476Y-109990000D01*
X123166095Y-110037619D01*
X123213714Y-110132857D01*
X123213714Y-110180476D01*
X123166095Y-110275714D01*
X123118476Y-110323333D01*
X123023238Y-110370952D01*
X122832761Y-110370952D01*
X122737523Y-110418571D01*
X122689904Y-110466190D01*
X122642285Y-110561428D01*
X122642285Y-110751904D01*
X122689904Y-110847142D01*
X122737523Y-110894761D01*
X122832761Y-110942380D01*
X123023238Y-110942380D01*
X123118476Y-110894761D01*
X123166095Y-110847142D01*
X123213714Y-110751904D01*
X123213714Y-110561428D01*
X123166095Y-110466190D01*
X123118476Y-110418571D01*
X123023238Y-110370952D01*
X122261333Y-109418380D02*
X121928000Y-108942190D01*
X121689904Y-109418380D02*
X121689904Y-108418380D01*
X122070857Y-108418380D01*
X122166095Y-108466000D01*
X122213714Y-108513619D01*
X122261333Y-108608857D01*
X122261333Y-108751714D01*
X122213714Y-108846952D01*
X122166095Y-108894571D01*
X122070857Y-108942190D01*
X121689904Y-108942190D01*
X122594666Y-108418380D02*
X123261333Y-108418380D01*
X122832761Y-109418380D01*
X122261333Y-107894380D02*
X121928000Y-107418190D01*
X121689904Y-107894380D02*
X121689904Y-106894380D01*
X122070857Y-106894380D01*
X122166095Y-106942000D01*
X122213714Y-106989619D01*
X122261333Y-107084857D01*
X122261333Y-107227714D01*
X122213714Y-107322952D01*
X122166095Y-107370571D01*
X122070857Y-107418190D01*
X121689904Y-107418190D01*
X123118476Y-106894380D02*
X122928000Y-106894380D01*
X122832761Y-106942000D01*
X122785142Y-106989619D01*
X122689904Y-107132476D01*
X122642285Y-107322952D01*
X122642285Y-107703904D01*
X122689904Y-107799142D01*
X122737523Y-107846761D01*
X122832761Y-107894380D01*
X123023238Y-107894380D01*
X123118476Y-107846761D01*
X123166095Y-107799142D01*
X123213714Y-107703904D01*
X123213714Y-107465809D01*
X123166095Y-107370571D01*
X123118476Y-107322952D01*
X123023238Y-107275333D01*
X122832761Y-107275333D01*
X122737523Y-107322952D01*
X122689904Y-107370571D01*
X122642285Y-107465809D01*
X122261333Y-106370380D02*
X121928000Y-105894190D01*
X121689904Y-106370380D02*
X121689904Y-105370380D01*
X122070857Y-105370380D01*
X122166095Y-105418000D01*
X122213714Y-105465619D01*
X122261333Y-105560857D01*
X122261333Y-105703714D01*
X122213714Y-105798952D01*
X122166095Y-105846571D01*
X122070857Y-105894190D01*
X121689904Y-105894190D01*
X123166095Y-105370380D02*
X122689904Y-105370380D01*
X122642285Y-105846571D01*
X122689904Y-105798952D01*
X122785142Y-105751333D01*
X123023238Y-105751333D01*
X123118476Y-105798952D01*
X123166095Y-105846571D01*
X123213714Y-105941809D01*
X123213714Y-106179904D01*
X123166095Y-106275142D01*
X123118476Y-106322761D01*
X123023238Y-106370380D01*
X122785142Y-106370380D01*
X122689904Y-106322761D01*
X122642285Y-106275142D01*
X118959333Y-101544380D02*
X118626000Y-101068190D01*
X118387904Y-101544380D02*
X118387904Y-100544380D01*
X118768857Y-100544380D01*
X118864095Y-100592000D01*
X118911714Y-100639619D01*
X118959333Y-100734857D01*
X118959333Y-100877714D01*
X118911714Y-100972952D01*
X118864095Y-101020571D01*
X118768857Y-101068190D01*
X118387904Y-101068190D01*
X119816476Y-100877714D02*
X119816476Y-101544380D01*
X119578380Y-100496761D02*
X119340285Y-101211047D01*
X119959333Y-101211047D01*
X118959333Y-103068380D02*
X118626000Y-102592190D01*
X118387904Y-103068380D02*
X118387904Y-102068380D01*
X118768857Y-102068380D01*
X118864095Y-102116000D01*
X118911714Y-102163619D01*
X118959333Y-102258857D01*
X118959333Y-102401714D01*
X118911714Y-102496952D01*
X118864095Y-102544571D01*
X118768857Y-102592190D01*
X118387904Y-102592190D01*
X119292666Y-102068380D02*
X119911714Y-102068380D01*
X119578380Y-102449333D01*
X119721238Y-102449333D01*
X119816476Y-102496952D01*
X119864095Y-102544571D01*
X119911714Y-102639809D01*
X119911714Y-102877904D01*
X119864095Y-102973142D01*
X119816476Y-103020761D01*
X119721238Y-103068380D01*
X119435523Y-103068380D01*
X119340285Y-103020761D01*
X119292666Y-102973142D01*
X102449333Y-108656380D02*
X102116000Y-108180190D01*
X101877904Y-108656380D02*
X101877904Y-107656380D01*
X102258857Y-107656380D01*
X102354095Y-107704000D01*
X102401714Y-107751619D01*
X102449333Y-107846857D01*
X102449333Y-107989714D01*
X102401714Y-108084952D01*
X102354095Y-108132571D01*
X102258857Y-108180190D01*
X101877904Y-108180190D01*
X102830285Y-107751619D02*
X102877904Y-107704000D01*
X102973142Y-107656380D01*
X103211238Y-107656380D01*
X103306476Y-107704000D01*
X103354095Y-107751619D01*
X103401714Y-107846857D01*
X103401714Y-107942095D01*
X103354095Y-108084952D01*
X102782666Y-108656380D01*
X103401714Y-108656380D01*
X102449333Y-110180380D02*
X102116000Y-109704190D01*
X101877904Y-110180380D02*
X101877904Y-109180380D01*
X102258857Y-109180380D01*
X102354095Y-109228000D01*
X102401714Y-109275619D01*
X102449333Y-109370857D01*
X102449333Y-109513714D01*
X102401714Y-109608952D01*
X102354095Y-109656571D01*
X102258857Y-109704190D01*
X101877904Y-109704190D01*
X103401714Y-110180380D02*
X102830285Y-110180380D01*
X103116000Y-110180380D02*
X103116000Y-109180380D01*
X103020761Y-109323238D01*
X102925523Y-109418476D01*
X102830285Y-109466095D01*
X130452952Y-100782380D02*
X129976761Y-100782380D01*
X129976761Y-99782380D01*
X130786285Y-100258571D02*
X131119619Y-100258571D01*
X131262476Y-100782380D02*
X130786285Y-100782380D01*
X130786285Y-99782380D01*
X131262476Y-99782380D01*
X131691047Y-100782380D02*
X131691047Y-99782380D01*
X131929142Y-99782380D01*
X132072000Y-99830000D01*
X132167238Y-99925238D01*
X132214857Y-100020476D01*
X132262476Y-100210952D01*
X132262476Y-100353809D01*
X132214857Y-100544285D01*
X132167238Y-100639523D01*
X132072000Y-100734761D01*
X131929142Y-100782380D01*
X131691047Y-100782380D01*
X133214857Y-100782380D02*
X132643428Y-100782380D01*
X132929142Y-100782380D02*
X132929142Y-99782380D01*
X132833904Y-99925238D01*
X132738666Y-100020476D01*
X132643428Y-100068095D01*
X92376666Y-105370380D02*
X92376666Y-106084666D01*
X92329047Y-106227523D01*
X92233809Y-106322761D01*
X92090952Y-106370380D01*
X91995714Y-106370380D01*
X93376666Y-106370380D02*
X92805238Y-106370380D01*
X93090952Y-106370380D02*
X93090952Y-105370380D01*
X92995714Y-105513238D01*
X92900476Y-105608476D01*
X92805238Y-105656095D01*
X127730476Y-104566380D02*
X127730476Y-103566380D01*
X128397142Y-103566380D02*
X128587619Y-103566380D01*
X128682857Y-103614000D01*
X128778095Y-103709238D01*
X128825714Y-103899714D01*
X128825714Y-104233047D01*
X128778095Y-104423523D01*
X128682857Y-104518761D01*
X128587619Y-104566380D01*
X128397142Y-104566380D01*
X128301904Y-104518761D01*
X128206666Y-104423523D01*
X128159047Y-104233047D01*
X128159047Y-103899714D01*
X128206666Y-103709238D01*
X128301904Y-103614000D01*
X128397142Y-103566380D01*
X129016190Y-104661619D02*
X129778095Y-104661619D01*
X129968571Y-104280666D02*
X130444761Y-104280666D01*
X129873333Y-104566380D02*
X130206666Y-103566380D01*
X130540000Y-104566380D01*
X131397142Y-104566380D02*
X130825714Y-104566380D01*
X131111428Y-104566380D02*
X131111428Y-103566380D01*
X131016190Y-103709238D01*
X130920952Y-103804476D01*
X130825714Y-103852095D01*
X97812571Y-115387333D02*
X97812571Y-115720666D01*
X98336380Y-115720666D02*
X97336380Y-115720666D01*
X97336380Y-115244476D01*
X97812571Y-114530190D02*
X97860190Y-114387333D01*
X97907809Y-114339714D01*
X98003047Y-114292095D01*
X98145904Y-114292095D01*
X98241142Y-114339714D01*
X98288761Y-114387333D01*
X98336380Y-114482571D01*
X98336380Y-114863523D01*
X97336380Y-114863523D01*
X97336380Y-114530190D01*
X97384000Y-114434952D01*
X97431619Y-114387333D01*
X97526857Y-114339714D01*
X97622095Y-114339714D01*
X97717333Y-114387333D01*
X97764952Y-114434952D01*
X97812571Y-114530190D01*
X97812571Y-114863523D01*
X98336380Y-113339714D02*
X98336380Y-113911142D01*
X98336380Y-113625428D02*
X97336380Y-113625428D01*
X97479238Y-113720666D01*
X97574476Y-113815904D01*
X97622095Y-113911142D01*
X108561142Y-107608666D02*
X108608761Y-107656285D01*
X108656380Y-107799142D01*
X108656380Y-107894380D01*
X108608761Y-108037238D01*
X108513523Y-108132476D01*
X108418285Y-108180095D01*
X108227809Y-108227714D01*
X108084952Y-108227714D01*
X107894476Y-108180095D01*
X107799238Y-108132476D01*
X107704000Y-108037238D01*
X107656380Y-107894380D01*
X107656380Y-107799142D01*
X107704000Y-107656285D01*
X107751619Y-107608666D01*
X107656380Y-106751523D02*
X107656380Y-106942000D01*
X107704000Y-107037238D01*
X107751619Y-107084857D01*
X107894476Y-107180095D01*
X108084952Y-107227714D01*
X108465904Y-107227714D01*
X108561142Y-107180095D01*
X108608761Y-107132476D01*
X108656380Y-107037238D01*
X108656380Y-106846761D01*
X108608761Y-106751523D01*
X108561142Y-106703904D01*
X108465904Y-106656285D01*
X108227809Y-106656285D01*
X108132571Y-106703904D01*
X108084952Y-106751523D01*
X108037333Y-106846761D01*
X108037333Y-107037238D01*
X108084952Y-107132476D01*
X108132571Y-107180095D01*
X108227809Y-107227714D01*
X118959333Y-121929142D02*
X118911714Y-121976761D01*
X118768857Y-122024380D01*
X118673619Y-122024380D01*
X118530761Y-121976761D01*
X118435523Y-121881523D01*
X118387904Y-121786285D01*
X118340285Y-121595809D01*
X118340285Y-121452952D01*
X118387904Y-121262476D01*
X118435523Y-121167238D01*
X118530761Y-121072000D01*
X118673619Y-121024380D01*
X118768857Y-121024380D01*
X118911714Y-121072000D01*
X118959333Y-121119619D01*
X119864095Y-121024380D02*
X119387904Y-121024380D01*
X119340285Y-121500571D01*
X119387904Y-121452952D01*
X119483142Y-121405333D01*
X119721238Y-121405333D01*
X119816476Y-121452952D01*
X119864095Y-121500571D01*
X119911714Y-121595809D01*
X119911714Y-121833904D01*
X119864095Y-121929142D01*
X119816476Y-121976761D01*
X119721238Y-122024380D01*
X119483142Y-122024380D01*
X119387904Y-121976761D01*
X119340285Y-121929142D01*
X110085142Y-110148666D02*
X110132761Y-110196285D01*
X110180380Y-110339142D01*
X110180380Y-110434380D01*
X110132761Y-110577238D01*
X110037523Y-110672476D01*
X109942285Y-110720095D01*
X109751809Y-110767714D01*
X109608952Y-110767714D01*
X109418476Y-110720095D01*
X109323238Y-110672476D01*
X109228000Y-110577238D01*
X109180380Y-110434380D01*
X109180380Y-110339142D01*
X109228000Y-110196285D01*
X109275619Y-110148666D01*
X109513714Y-109291523D02*
X110180380Y-109291523D01*
X109132761Y-109529619D02*
X109847047Y-109767714D01*
X109847047Y-109148666D01*
X94083142Y-101004666D02*
X94130761Y-101052285D01*
X94178380Y-101195142D01*
X94178380Y-101290380D01*
X94130761Y-101433238D01*
X94035523Y-101528476D01*
X93940285Y-101576095D01*
X93749809Y-101623714D01*
X93606952Y-101623714D01*
X93416476Y-101576095D01*
X93321238Y-101528476D01*
X93226000Y-101433238D01*
X93178380Y-101290380D01*
X93178380Y-101195142D01*
X93226000Y-101052285D01*
X93273619Y-101004666D01*
X93178380Y-100671333D02*
X93178380Y-100052285D01*
X93559333Y-100385619D01*
X93559333Y-100242761D01*
X93606952Y-100147523D01*
X93654571Y-100099904D01*
X93749809Y-100052285D01*
X93987904Y-100052285D01*
X94083142Y-100099904D01*
X94130761Y-100147523D01*
X94178380Y-100242761D01*
X94178380Y-100528476D01*
X94130761Y-100623714D01*
X94083142Y-100671333D01*
X92559142Y-101004666D02*
X92606761Y-101052285D01*
X92654380Y-101195142D01*
X92654380Y-101290380D01*
X92606761Y-101433238D01*
X92511523Y-101528476D01*
X92416285Y-101576095D01*
X92225809Y-101623714D01*
X92082952Y-101623714D01*
X91892476Y-101576095D01*
X91797238Y-101528476D01*
X91702000Y-101433238D01*
X91654380Y-101290380D01*
X91654380Y-101195142D01*
X91702000Y-101052285D01*
X91749619Y-101004666D01*
X91749619Y-100623714D02*
X91702000Y-100576095D01*
X91654380Y-100480857D01*
X91654380Y-100242761D01*
X91702000Y-100147523D01*
X91749619Y-100099904D01*
X91844857Y-100052285D01*
X91940095Y-100052285D01*
X92082952Y-100099904D01*
X92654380Y-100671333D01*
X92654380Y-100052285D01*
X93559333Y-104243142D02*
X93511714Y-104290761D01*
X93368857Y-104338380D01*
X93273619Y-104338380D01*
X93130761Y-104290761D01*
X93035523Y-104195523D01*
X92987904Y-104100285D01*
X92940285Y-103909809D01*
X92940285Y-103766952D01*
X92987904Y-103576476D01*
X93035523Y-103481238D01*
X93130761Y-103386000D01*
X93273619Y-103338380D01*
X93368857Y-103338380D01*
X93511714Y-103386000D01*
X93559333Y-103433619D01*
X94511714Y-104338380D02*
X93940285Y-104338380D01*
X94226000Y-104338380D02*
X94226000Y-103338380D01*
X94130761Y-103481238D01*
X94035523Y-103576476D01*
X93940285Y-103624095D01*
M02*
