G04 #@! TF.GenerationSoftware,KiCad,Pcbnew,(5.1.4)-1*
G04 #@! TF.CreationDate,2019-11-22T21:00:23+08:00*
G04 #@! TF.ProjectId,vllink_lite.r3,766c6c69-6e6b-45f6-9c69-74652e72332e,rev?*
G04 #@! TF.SameCoordinates,Original*
G04 #@! TF.FileFunction,Legend,Bot*
G04 #@! TF.FilePolarity,Positive*
%FSLAX46Y46*%
G04 Gerber Fmt 4.6, Leading zero omitted, Abs format (unit mm)*
G04 Created by KiCad (PCBNEW (5.1.4)-1) date 2019-11-22 21:00:23*
%MOMM*%
%LPD*%
G04 APERTURE LIST*
%ADD10C,0.120000*%
%ADD11C,0.150000*%
G04 APERTURE END LIST*
D10*
X119126000Y-114300000D02*
X119126000Y-117602000D01*
X119126000Y-109474000D02*
X119126000Y-112776000D01*
X119126000Y-104902000D02*
X119126000Y-108204000D01*
X126746000Y-117602000D02*
X126746000Y-113792000D01*
X115570000Y-117602000D02*
X126746000Y-117602000D01*
X115570000Y-104902000D02*
X115570000Y-117602000D01*
X126746000Y-104902000D02*
X115570000Y-104902000D01*
X126746000Y-108458000D02*
X126746000Y-104902000D01*
D11*
X126327833Y-105275809D02*
X125927833Y-105275809D01*
X126127833Y-106875809D02*
X126127833Y-105275809D01*
X125694500Y-106875809D02*
X125694500Y-105275809D01*
X125527833Y-105275809D01*
X125427833Y-105352000D01*
X125361166Y-105504380D01*
X125327833Y-105656761D01*
X125294500Y-105961523D01*
X125294500Y-106190095D01*
X125327833Y-106494857D01*
X125361166Y-106647238D01*
X125427833Y-106799619D01*
X125527833Y-106875809D01*
X125694500Y-106875809D01*
X124994500Y-106875809D02*
X124994500Y-105275809D01*
X117827833Y-105275809D02*
X117594500Y-106875809D01*
X117361166Y-105275809D01*
X116727833Y-106723428D02*
X116761166Y-106799619D01*
X116861166Y-106875809D01*
X116927833Y-106875809D01*
X117027833Y-106799619D01*
X117094500Y-106647238D01*
X117127833Y-106494857D01*
X117161166Y-106190095D01*
X117161166Y-105961523D01*
X117127833Y-105656761D01*
X117094500Y-105504380D01*
X117027833Y-105352000D01*
X116927833Y-105275809D01*
X116861166Y-105275809D01*
X116761166Y-105352000D01*
X116727833Y-105428190D01*
X116027833Y-106723428D02*
X116061166Y-106799619D01*
X116161166Y-106875809D01*
X116227833Y-106875809D01*
X116327833Y-106799619D01*
X116394500Y-106647238D01*
X116427833Y-106494857D01*
X116461166Y-106190095D01*
X116461166Y-105961523D01*
X116427833Y-105656761D01*
X116394500Y-105504380D01*
X116327833Y-105352000D01*
X116227833Y-105275809D01*
X116161166Y-105275809D01*
X116061166Y-105352000D01*
X116027833Y-105428190D01*
X126327833Y-107825809D02*
X125927833Y-107825809D01*
X126127833Y-109425809D02*
X126127833Y-107825809D01*
X125694500Y-109425809D02*
X125694500Y-107825809D01*
X125461166Y-108968666D01*
X125227833Y-107825809D01*
X125227833Y-109425809D01*
X124927833Y-109349619D02*
X124827833Y-109425809D01*
X124661166Y-109425809D01*
X124594500Y-109349619D01*
X124561166Y-109273428D01*
X124527833Y-109121047D01*
X124527833Y-108968666D01*
X124561166Y-108816285D01*
X124594500Y-108740095D01*
X124661166Y-108663904D01*
X124794500Y-108587714D01*
X124861166Y-108511523D01*
X124894500Y-108435333D01*
X124927833Y-108282952D01*
X124927833Y-108130571D01*
X124894500Y-107978190D01*
X124861166Y-107902000D01*
X124794500Y-107825809D01*
X124627833Y-107825809D01*
X124527833Y-107902000D01*
X123727833Y-107749619D02*
X124327833Y-109806761D01*
X123527833Y-109349619D02*
X123427833Y-109425809D01*
X123261166Y-109425809D01*
X123194500Y-109349619D01*
X123161166Y-109273428D01*
X123127833Y-109121047D01*
X123127833Y-108968666D01*
X123161166Y-108816285D01*
X123194500Y-108740095D01*
X123261166Y-108663904D01*
X123394500Y-108587714D01*
X123461166Y-108511523D01*
X123494500Y-108435333D01*
X123527833Y-108282952D01*
X123527833Y-108130571D01*
X123494500Y-107978190D01*
X123461166Y-107902000D01*
X123394500Y-107825809D01*
X123227833Y-107825809D01*
X123127833Y-107902000D01*
X122894500Y-107825809D02*
X122727833Y-109425809D01*
X122594500Y-108282952D01*
X122461166Y-109425809D01*
X122294500Y-107825809D01*
X122027833Y-109425809D02*
X122027833Y-107825809D01*
X121861166Y-107825809D01*
X121761166Y-107902000D01*
X121694500Y-108054380D01*
X121661166Y-108206761D01*
X121627833Y-108511523D01*
X121627833Y-108740095D01*
X121661166Y-109044857D01*
X121694500Y-109197238D01*
X121761166Y-109349619D01*
X121861166Y-109425809D01*
X122027833Y-109425809D01*
X121327833Y-109425809D02*
X121327833Y-107825809D01*
X120861166Y-107825809D02*
X120727833Y-107825809D01*
X120661166Y-107902000D01*
X120594500Y-108054380D01*
X120561166Y-108359142D01*
X120561166Y-108892476D01*
X120594500Y-109197238D01*
X120661166Y-109349619D01*
X120727833Y-109425809D01*
X120861166Y-109425809D01*
X120927833Y-109349619D01*
X120994500Y-109197238D01*
X121027833Y-108892476D01*
X121027833Y-108359142D01*
X120994500Y-108054380D01*
X120927833Y-107902000D01*
X120861166Y-107825809D01*
X117761166Y-107902000D02*
X117827833Y-107825809D01*
X117927833Y-107825809D01*
X118027833Y-107902000D01*
X118094500Y-108054380D01*
X118127833Y-108206761D01*
X118161166Y-108511523D01*
X118161166Y-108740095D01*
X118127833Y-109044857D01*
X118094500Y-109197238D01*
X118027833Y-109349619D01*
X117927833Y-109425809D01*
X117861166Y-109425809D01*
X117761166Y-109349619D01*
X117727833Y-109273428D01*
X117727833Y-108740095D01*
X117861166Y-108740095D01*
X117427833Y-109425809D02*
X117427833Y-107825809D01*
X117027833Y-109425809D01*
X117027833Y-107825809D01*
X116694500Y-109425809D02*
X116694500Y-107825809D01*
X116527833Y-107825809D01*
X116427833Y-107902000D01*
X116361166Y-108054380D01*
X116327833Y-108206761D01*
X116294500Y-108511523D01*
X116294500Y-108740095D01*
X116327833Y-109044857D01*
X116361166Y-109197238D01*
X116427833Y-109349619D01*
X116527833Y-109425809D01*
X116694500Y-109425809D01*
X126327833Y-110375809D02*
X125927833Y-110375809D01*
X126127833Y-111975809D02*
X126127833Y-110375809D01*
X125294500Y-111823428D02*
X125327833Y-111899619D01*
X125427833Y-111975809D01*
X125494500Y-111975809D01*
X125594500Y-111899619D01*
X125661166Y-111747238D01*
X125694500Y-111594857D01*
X125727833Y-111290095D01*
X125727833Y-111061523D01*
X125694500Y-110756761D01*
X125661166Y-110604380D01*
X125594500Y-110452000D01*
X125494500Y-110375809D01*
X125427833Y-110375809D01*
X125327833Y-110452000D01*
X125294500Y-110528190D01*
X124994500Y-111975809D02*
X124994500Y-110375809D01*
X124594500Y-111975809D02*
X124894500Y-111061523D01*
X124594500Y-110375809D02*
X124994500Y-111290095D01*
X123794500Y-110299619D02*
X124394500Y-112356761D01*
X123594500Y-111899619D02*
X123494500Y-111975809D01*
X123327833Y-111975809D01*
X123261166Y-111899619D01*
X123227833Y-111823428D01*
X123194500Y-111671047D01*
X123194500Y-111518666D01*
X123227833Y-111366285D01*
X123261166Y-111290095D01*
X123327833Y-111213904D01*
X123461166Y-111137714D01*
X123527833Y-111061523D01*
X123561166Y-110985333D01*
X123594500Y-110832952D01*
X123594500Y-110680571D01*
X123561166Y-110528190D01*
X123527833Y-110452000D01*
X123461166Y-110375809D01*
X123294500Y-110375809D01*
X123194500Y-110452000D01*
X122961166Y-110375809D02*
X122794500Y-111975809D01*
X122661166Y-110832952D01*
X122527833Y-111975809D01*
X122361166Y-110375809D01*
X121694500Y-111823428D02*
X121727833Y-111899619D01*
X121827833Y-111975809D01*
X121894500Y-111975809D01*
X121994500Y-111899619D01*
X122061166Y-111747238D01*
X122094500Y-111594857D01*
X122127833Y-111290095D01*
X122127833Y-111061523D01*
X122094500Y-110756761D01*
X122061166Y-110604380D01*
X121994500Y-110452000D01*
X121894500Y-110375809D01*
X121827833Y-110375809D01*
X121727833Y-110452000D01*
X121694500Y-110528190D01*
X121061166Y-111975809D02*
X121394500Y-111975809D01*
X121394500Y-110375809D01*
X120827833Y-111975809D02*
X120827833Y-110375809D01*
X120427833Y-111975809D02*
X120727833Y-111061523D01*
X120427833Y-110375809D02*
X120827833Y-111290095D01*
X118094500Y-110375809D02*
X117694500Y-110375809D01*
X117894500Y-111975809D02*
X117894500Y-110375809D01*
X117494500Y-111899619D02*
X117394500Y-111975809D01*
X117227833Y-111975809D01*
X117161166Y-111899619D01*
X117127833Y-111823428D01*
X117094500Y-111671047D01*
X117094500Y-111518666D01*
X117127833Y-111366285D01*
X117161166Y-111290095D01*
X117227833Y-111213904D01*
X117361166Y-111137714D01*
X117427833Y-111061523D01*
X117461166Y-110985333D01*
X117494500Y-110832952D01*
X117494500Y-110680571D01*
X117461166Y-110528190D01*
X117427833Y-110452000D01*
X117361166Y-110375809D01*
X117194500Y-110375809D01*
X117094500Y-110452000D01*
X116394500Y-111975809D02*
X116627833Y-111213904D01*
X116794500Y-111975809D02*
X116794500Y-110375809D01*
X116527833Y-110375809D01*
X116461166Y-110452000D01*
X116427833Y-110528190D01*
X116394500Y-110680571D01*
X116394500Y-110909142D01*
X116427833Y-111061523D01*
X116461166Y-111137714D01*
X116527833Y-111213904D01*
X116794500Y-111213904D01*
X116194500Y-110375809D02*
X115794500Y-110375809D01*
X115994500Y-111975809D02*
X115994500Y-110375809D01*
X126261166Y-114449619D02*
X126161166Y-114525809D01*
X125994500Y-114525809D01*
X125927833Y-114449619D01*
X125894500Y-114373428D01*
X125861166Y-114221047D01*
X125861166Y-114068666D01*
X125894500Y-113916285D01*
X125927833Y-113840095D01*
X125994500Y-113763904D01*
X126127833Y-113687714D01*
X126194500Y-113611523D01*
X126227833Y-113535333D01*
X126261166Y-113382952D01*
X126261166Y-113230571D01*
X126227833Y-113078190D01*
X126194500Y-113002000D01*
X126127833Y-112925809D01*
X125961166Y-112925809D01*
X125861166Y-113002000D01*
X125161166Y-114525809D02*
X125394500Y-113763904D01*
X125561166Y-114525809D02*
X125561166Y-112925809D01*
X125294500Y-112925809D01*
X125227833Y-113002000D01*
X125194500Y-113078190D01*
X125161166Y-113230571D01*
X125161166Y-113459142D01*
X125194500Y-113611523D01*
X125227833Y-113687714D01*
X125294500Y-113763904D01*
X125561166Y-113763904D01*
X124894500Y-114449619D02*
X124794500Y-114525809D01*
X124627833Y-114525809D01*
X124561166Y-114449619D01*
X124527833Y-114373428D01*
X124494500Y-114221047D01*
X124494500Y-114068666D01*
X124527833Y-113916285D01*
X124561166Y-113840095D01*
X124627833Y-113763904D01*
X124761166Y-113687714D01*
X124827833Y-113611523D01*
X124861166Y-113535333D01*
X124894500Y-113382952D01*
X124894500Y-113230571D01*
X124861166Y-113078190D01*
X124827833Y-113002000D01*
X124761166Y-112925809D01*
X124594500Y-112925809D01*
X124494500Y-113002000D01*
X124294500Y-112925809D02*
X123894500Y-112925809D01*
X124094500Y-114525809D02*
X124094500Y-112925809D01*
X123161166Y-112849619D02*
X123761166Y-114906761D01*
X122961166Y-114449619D02*
X122861166Y-114525809D01*
X122694500Y-114525809D01*
X122627833Y-114449619D01*
X122594500Y-114373428D01*
X122561166Y-114221047D01*
X122561166Y-114068666D01*
X122594500Y-113916285D01*
X122627833Y-113840095D01*
X122694500Y-113763904D01*
X122827833Y-113687714D01*
X122894500Y-113611523D01*
X122927833Y-113535333D01*
X122961166Y-113382952D01*
X122961166Y-113230571D01*
X122927833Y-113078190D01*
X122894500Y-113002000D01*
X122827833Y-112925809D01*
X122661166Y-112925809D01*
X122561166Y-113002000D01*
X122327833Y-112925809D02*
X122161166Y-114525809D01*
X122027833Y-113382952D01*
X121894500Y-114525809D01*
X121727833Y-112925809D01*
X121061166Y-114525809D02*
X121294500Y-113763904D01*
X121461166Y-114525809D02*
X121461166Y-112925809D01*
X121194500Y-112925809D01*
X121127833Y-113002000D01*
X121094500Y-113078190D01*
X121061166Y-113230571D01*
X121061166Y-113459142D01*
X121094500Y-113611523D01*
X121127833Y-113687714D01*
X121194500Y-113763904D01*
X121461166Y-113763904D01*
X120794500Y-114449619D02*
X120694500Y-114525809D01*
X120527833Y-114525809D01*
X120461166Y-114449619D01*
X120427833Y-114373428D01*
X120394500Y-114221047D01*
X120394500Y-114068666D01*
X120427833Y-113916285D01*
X120461166Y-113840095D01*
X120527833Y-113763904D01*
X120661166Y-113687714D01*
X120727833Y-113611523D01*
X120761166Y-113535333D01*
X120794500Y-113382952D01*
X120794500Y-113230571D01*
X120761166Y-113078190D01*
X120727833Y-113002000D01*
X120661166Y-112925809D01*
X120494500Y-112925809D01*
X120394500Y-113002000D01*
X120194500Y-112925809D02*
X119794500Y-112925809D01*
X119994500Y-114525809D02*
X119994500Y-112925809D01*
X118061166Y-112925809D02*
X117661166Y-112925809D01*
X117861166Y-114525809D02*
X117861166Y-112925809D01*
X117494500Y-112925809D02*
X117027833Y-114525809D01*
X117027833Y-112925809D02*
X117494500Y-114525809D01*
X116761166Y-114525809D02*
X116761166Y-112925809D01*
X116594500Y-112925809D01*
X116494500Y-113002000D01*
X116427833Y-113154380D01*
X116394500Y-113306761D01*
X116361166Y-113611523D01*
X116361166Y-113840095D01*
X116394500Y-114144857D01*
X116427833Y-114297238D01*
X116494500Y-114449619D01*
X116594500Y-114525809D01*
X116761166Y-114525809D01*
X126327833Y-115475809D02*
X125927833Y-115475809D01*
X126127833Y-117075809D02*
X126127833Y-115475809D01*
X125694500Y-117075809D02*
X125694500Y-115475809D01*
X125527833Y-115475809D01*
X125427833Y-115552000D01*
X125361166Y-115704380D01*
X125327833Y-115856761D01*
X125294500Y-116161523D01*
X125294500Y-116390095D01*
X125327833Y-116694857D01*
X125361166Y-116847238D01*
X125427833Y-116999619D01*
X125527833Y-117075809D01*
X125694500Y-117075809D01*
X124861166Y-115475809D02*
X124727833Y-115475809D01*
X124661166Y-115552000D01*
X124594500Y-115704380D01*
X124561166Y-116009142D01*
X124561166Y-116542476D01*
X124594500Y-116847238D01*
X124661166Y-116999619D01*
X124727833Y-117075809D01*
X124861166Y-117075809D01*
X124927833Y-116999619D01*
X124994500Y-116847238D01*
X125027833Y-116542476D01*
X125027833Y-116009142D01*
X124994500Y-115704380D01*
X124927833Y-115552000D01*
X124861166Y-115475809D01*
X123761166Y-115399619D02*
X124361166Y-117456761D01*
X123561166Y-116999619D02*
X123461166Y-117075809D01*
X123294500Y-117075809D01*
X123227833Y-116999619D01*
X123194500Y-116923428D01*
X123161166Y-116771047D01*
X123161166Y-116618666D01*
X123194500Y-116466285D01*
X123227833Y-116390095D01*
X123294500Y-116313904D01*
X123427833Y-116237714D01*
X123494500Y-116161523D01*
X123527833Y-116085333D01*
X123561166Y-115932952D01*
X123561166Y-115780571D01*
X123527833Y-115628190D01*
X123494500Y-115552000D01*
X123427833Y-115475809D01*
X123261166Y-115475809D01*
X123161166Y-115552000D01*
X122927833Y-115475809D02*
X122761166Y-117075809D01*
X122627833Y-115932952D01*
X122494500Y-117075809D01*
X122327833Y-115475809D01*
X121927833Y-115475809D02*
X121794500Y-115475809D01*
X121727833Y-115552000D01*
X121661166Y-115704380D01*
X121627833Y-116009142D01*
X121627833Y-116542476D01*
X121661166Y-116847238D01*
X121727833Y-116999619D01*
X121794500Y-117075809D01*
X121927833Y-117075809D01*
X121994500Y-116999619D01*
X122061166Y-116847238D01*
X122094500Y-116542476D01*
X122094500Y-116009142D01*
X122061166Y-115704380D01*
X121994500Y-115552000D01*
X121927833Y-115475809D01*
X117727833Y-117075809D02*
X117961166Y-116313904D01*
X118127833Y-117075809D02*
X118127833Y-115475809D01*
X117861166Y-115475809D01*
X117794500Y-115552000D01*
X117761166Y-115628190D01*
X117727833Y-115780571D01*
X117727833Y-116009142D01*
X117761166Y-116161523D01*
X117794500Y-116237714D01*
X117861166Y-116313904D01*
X118127833Y-116313904D01*
X117494500Y-115475809D02*
X117027833Y-117075809D01*
X117027833Y-115475809D02*
X117494500Y-117075809D01*
X116761166Y-117075809D02*
X116761166Y-115475809D01*
X116594500Y-115475809D01*
X116494500Y-115552000D01*
X116427833Y-115704380D01*
X116394500Y-115856761D01*
X116361166Y-116161523D01*
X116361166Y-116390095D01*
X116394500Y-116694857D01*
X116427833Y-116847238D01*
X116494500Y-116999619D01*
X116594500Y-117075809D01*
X116761166Y-117075809D01*
D10*
X112460000Y-116205000D02*
G75*
G03X112460000Y-116205000I-700000J0D01*
G01*
X112460000Y-114554000D02*
G75*
G03X112460000Y-114554000I-700000J0D01*
G01*
X108396000Y-117856000D02*
G75*
G03X108396000Y-117856000I-700000J0D01*
G01*
X102300000Y-117856000D02*
G75*
G03X102300000Y-117856000I-700000J0D01*
G01*
X99760000Y-117856000D02*
G75*
G03X99760000Y-117856000I-700000J0D01*
G01*
X97220000Y-117856000D02*
G75*
G03X97220000Y-117856000I-700000J0D01*
G01*
X94680000Y-117856000D02*
G75*
G03X94680000Y-117856000I-700000J0D01*
G01*
X103062000Y-105664000D02*
G75*
G03X103062000Y-105664000I-700000J0D01*
G01*
D11*
X127508000Y-108077000D02*
X127508000Y-117602000D01*
X131572000Y-117602000D02*
X131572000Y-104902000D01*
X127508000Y-104902000D02*
X127508000Y-106934000D01*
X129540000Y-104902000D02*
X127508000Y-104902000D01*
X131572000Y-117602000D02*
X127508000Y-117602000D01*
X115307904Y-115657380D02*
X114736476Y-115657380D01*
X115022190Y-116657380D02*
X115022190Y-115657380D01*
X114403142Y-116657380D02*
X114403142Y-115657380D01*
X114022190Y-115657380D01*
X113926952Y-115705000D01*
X113879333Y-115752619D01*
X113831714Y-115847857D01*
X113831714Y-115990714D01*
X113879333Y-116085952D01*
X113926952Y-116133571D01*
X114022190Y-116181190D01*
X114403142Y-116181190D01*
X113260285Y-116085952D02*
X113355523Y-116038333D01*
X113403142Y-115990714D01*
X113450761Y-115895476D01*
X113450761Y-115847857D01*
X113403142Y-115752619D01*
X113355523Y-115705000D01*
X113260285Y-115657380D01*
X113069809Y-115657380D01*
X112974571Y-115705000D01*
X112926952Y-115752619D01*
X112879333Y-115847857D01*
X112879333Y-115895476D01*
X112926952Y-115990714D01*
X112974571Y-116038333D01*
X113069809Y-116085952D01*
X113260285Y-116085952D01*
X113355523Y-116133571D01*
X113403142Y-116181190D01*
X113450761Y-116276428D01*
X113450761Y-116466904D01*
X113403142Y-116562142D01*
X113355523Y-116609761D01*
X113260285Y-116657380D01*
X113069809Y-116657380D01*
X112974571Y-116609761D01*
X112926952Y-116562142D01*
X112879333Y-116466904D01*
X112879333Y-116276428D01*
X112926952Y-116181190D01*
X112974571Y-116133571D01*
X113069809Y-116085952D01*
X115307904Y-114006380D02*
X114736476Y-114006380D01*
X115022190Y-115006380D02*
X115022190Y-114006380D01*
X114403142Y-115006380D02*
X114403142Y-114006380D01*
X114022190Y-114006380D01*
X113926952Y-114054000D01*
X113879333Y-114101619D01*
X113831714Y-114196857D01*
X113831714Y-114339714D01*
X113879333Y-114434952D01*
X113926952Y-114482571D01*
X114022190Y-114530190D01*
X114403142Y-114530190D01*
X113498380Y-114006380D02*
X112831714Y-114006380D01*
X113260285Y-115006380D01*
X111243904Y-117308380D02*
X110672476Y-117308380D01*
X110958190Y-118308380D02*
X110958190Y-117308380D01*
X110339142Y-118308380D02*
X110339142Y-117308380D01*
X109958190Y-117308380D01*
X109862952Y-117356000D01*
X109815333Y-117403619D01*
X109767714Y-117498857D01*
X109767714Y-117641714D01*
X109815333Y-117736952D01*
X109862952Y-117784571D01*
X109958190Y-117832190D01*
X110339142Y-117832190D01*
X108910571Y-117308380D02*
X109101047Y-117308380D01*
X109196285Y-117356000D01*
X109243904Y-117403619D01*
X109339142Y-117546476D01*
X109386761Y-117736952D01*
X109386761Y-118117904D01*
X109339142Y-118213142D01*
X109291523Y-118260761D01*
X109196285Y-118308380D01*
X109005809Y-118308380D01*
X108910571Y-118260761D01*
X108862952Y-118213142D01*
X108815333Y-118117904D01*
X108815333Y-117879809D01*
X108862952Y-117784571D01*
X108910571Y-117736952D01*
X109005809Y-117689333D01*
X109196285Y-117689333D01*
X109291523Y-117736952D01*
X109339142Y-117784571D01*
X109386761Y-117879809D01*
X105147904Y-117308380D02*
X104576476Y-117308380D01*
X104862190Y-118308380D02*
X104862190Y-117308380D01*
X104243142Y-118308380D02*
X104243142Y-117308380D01*
X103862190Y-117308380D01*
X103766952Y-117356000D01*
X103719333Y-117403619D01*
X103671714Y-117498857D01*
X103671714Y-117641714D01*
X103719333Y-117736952D01*
X103766952Y-117784571D01*
X103862190Y-117832190D01*
X104243142Y-117832190D01*
X102766952Y-117308380D02*
X103243142Y-117308380D01*
X103290761Y-117784571D01*
X103243142Y-117736952D01*
X103147904Y-117689333D01*
X102909809Y-117689333D01*
X102814571Y-117736952D01*
X102766952Y-117784571D01*
X102719333Y-117879809D01*
X102719333Y-118117904D01*
X102766952Y-118213142D01*
X102814571Y-118260761D01*
X102909809Y-118308380D01*
X103147904Y-118308380D01*
X103243142Y-118260761D01*
X103290761Y-118213142D01*
X98512380Y-114054095D02*
X98512380Y-114625523D01*
X99512380Y-114339809D02*
X98512380Y-114339809D01*
X99512380Y-114958857D02*
X98512380Y-114958857D01*
X98512380Y-115339809D01*
X98560000Y-115435047D01*
X98607619Y-115482666D01*
X98702857Y-115530285D01*
X98845714Y-115530285D01*
X98940952Y-115482666D01*
X98988571Y-115435047D01*
X99036190Y-115339809D01*
X99036190Y-114958857D01*
X98845714Y-116387428D02*
X99512380Y-116387428D01*
X98464761Y-116149333D02*
X99179047Y-115911238D01*
X99179047Y-116530285D01*
X95972380Y-114054095D02*
X95972380Y-114625523D01*
X96972380Y-114339809D02*
X95972380Y-114339809D01*
X96972380Y-114958857D02*
X95972380Y-114958857D01*
X95972380Y-115339809D01*
X96020000Y-115435047D01*
X96067619Y-115482666D01*
X96162857Y-115530285D01*
X96305714Y-115530285D01*
X96400952Y-115482666D01*
X96448571Y-115435047D01*
X96496190Y-115339809D01*
X96496190Y-114958857D01*
X95972380Y-115863619D02*
X95972380Y-116482666D01*
X96353333Y-116149333D01*
X96353333Y-116292190D01*
X96400952Y-116387428D01*
X96448571Y-116435047D01*
X96543809Y-116482666D01*
X96781904Y-116482666D01*
X96877142Y-116435047D01*
X96924761Y-116387428D01*
X96972380Y-116292190D01*
X96972380Y-116006476D01*
X96924761Y-115911238D01*
X96877142Y-115863619D01*
X93432380Y-114054095D02*
X93432380Y-114625523D01*
X94432380Y-114339809D02*
X93432380Y-114339809D01*
X94432380Y-114958857D02*
X93432380Y-114958857D01*
X93432380Y-115339809D01*
X93480000Y-115435047D01*
X93527619Y-115482666D01*
X93622857Y-115530285D01*
X93765714Y-115530285D01*
X93860952Y-115482666D01*
X93908571Y-115435047D01*
X93956190Y-115339809D01*
X93956190Y-114958857D01*
X93527619Y-115911238D02*
X93480000Y-115958857D01*
X93432380Y-116054095D01*
X93432380Y-116292190D01*
X93480000Y-116387428D01*
X93527619Y-116435047D01*
X93622857Y-116482666D01*
X93718095Y-116482666D01*
X93860952Y-116435047D01*
X94432380Y-115863619D01*
X94432380Y-116482666D01*
X103623904Y-107148380D02*
X103052476Y-107148380D01*
X103338190Y-108148380D02*
X103338190Y-107148380D01*
X102719142Y-108148380D02*
X102719142Y-107148380D01*
X102338190Y-107148380D01*
X102242952Y-107196000D01*
X102195333Y-107243619D01*
X102147714Y-107338857D01*
X102147714Y-107481714D01*
X102195333Y-107576952D01*
X102242952Y-107624571D01*
X102338190Y-107672190D01*
X102719142Y-107672190D01*
X101195333Y-108148380D02*
X101766761Y-108148380D01*
X101481047Y-108148380D02*
X101481047Y-107148380D01*
X101576285Y-107291238D01*
X101671523Y-107386476D01*
X101766761Y-107434095D01*
X131372952Y-104566380D02*
X131372952Y-103566380D01*
X130706285Y-103566380D02*
X130515809Y-103566380D01*
X130420571Y-103614000D01*
X130325333Y-103709238D01*
X130277714Y-103899714D01*
X130277714Y-104233047D01*
X130325333Y-104423523D01*
X130420571Y-104518761D01*
X130515809Y-104566380D01*
X130706285Y-104566380D01*
X130801523Y-104518761D01*
X130896761Y-104423523D01*
X130944380Y-104233047D01*
X130944380Y-103899714D01*
X130896761Y-103709238D01*
X130801523Y-103614000D01*
X130706285Y-103566380D01*
X130087238Y-104661619D02*
X129325333Y-104661619D01*
X128753904Y-104042571D02*
X128611047Y-104090190D01*
X128563428Y-104137809D01*
X128515809Y-104233047D01*
X128515809Y-104375904D01*
X128563428Y-104471142D01*
X128611047Y-104518761D01*
X128706285Y-104566380D01*
X129087238Y-104566380D01*
X129087238Y-103566380D01*
X128753904Y-103566380D01*
X128658666Y-103614000D01*
X128611047Y-103661619D01*
X128563428Y-103756857D01*
X128563428Y-103852095D01*
X128611047Y-103947333D01*
X128658666Y-103994952D01*
X128753904Y-104042571D01*
X129087238Y-104042571D01*
X127563428Y-104566380D02*
X128134857Y-104566380D01*
X127849142Y-104566380D02*
X127849142Y-103566380D01*
X127944380Y-103709238D01*
X128039619Y-103804476D01*
X128134857Y-103852095D01*
M02*
